<svg width="150" height="141" viewBox="0 0 150 141" fill="none" xmlns="http://www.w3.org/2000/svg">
<g style="mix-blend-mode:multiply">
<path d="M60.895 140.918C94.5264 140.918 121.79 138.161 121.79 134.761C121.79 131.361 94.5264 128.604 60.895 128.604C27.2636 128.604 0 131.361 0 134.761C0 138.161 27.2636 140.918 60.895 140.918Z" fill="#DADADA"/>
</g>
<path d="M98.3871 12.2734H4.05664V133.604H98.3871V12.2734Z" fill="#4595FF"/>
<path d="M4.05664 133.604V12.2734H98.3871L4.05664 133.604Z" fill="#006EFF"/>
<path d="M93.0472 104.194L71.4547 126.678H9.42871V18.5H93.0472V104.194Z" fill="white"/>
<path d="M71.4551 126.679V104.195H93.0476L71.4551 126.679Z" fill="#D1E1EB"/>
<path d="M66.6099 14.2915L55.9686 9.96349C56.6266 9.02756 57.0181 7.89146 57.0181 6.66339C57.0181 3.48772 54.4298 0.917969 51.2434 0.917969C48.057 0.917969 45.4633 3.49313 45.4633 6.66339C45.4633 7.81031 45.8059 8.88149 46.3877 9.77955L35.8769 14.2915C34.3761 14.2915 33.1636 15.4979 33.1636 16.9911V25.804C33.1636 27.2917 34.3761 28.5036 35.8769 28.5036H66.6153C68.1107 28.5036 69.3232 27.2971 69.3232 25.804V16.9911C69.3232 15.4979 68.1107 14.2915 66.6153 14.2915H66.6099ZM39.7158 24.0998C38.3945 24.0998 37.3179 23.0286 37.3179 21.714C37.3179 20.3994 38.3945 19.3282 39.7158 19.3282C41.0371 19.3282 42.1138 20.394 42.1138 21.714C42.1138 23.0341 41.0426 24.0998 39.7158 24.0998ZM51.2434 9.67135C49.5686 9.67135 48.2147 8.32426 48.2147 6.65798C48.2147 4.9917 49.5686 3.65002 51.2434 3.65002C52.9182 3.65002 54.2667 4.99711 54.2667 6.65798C54.2667 8.31885 52.9127 9.67135 51.2434 9.67135ZM63.0048 24.0998C61.678 24.0998 60.6068 23.0286 60.6068 21.714C60.6068 20.3994 61.678 19.3282 63.0048 19.3282C64.3316 19.3282 65.4028 20.394 65.4028 21.714C65.4028 23.0341 64.3261 24.0998 63.0048 24.0998Z" fill="#454F56"/>
<path d="M63.3258 21.6109C63.3258 22.2547 62.8038 22.7795 62.1513 22.7795H40.1945C39.5475 22.7795 39.02 22.2547 39.02 21.6109C39.02 20.9672 39.542 20.4424 40.1945 20.4424H62.1513C62.7984 20.4424 63.3258 20.9672 63.3258 21.6109Z" fill="#C6C6C6"/>
<path d="M44.0661 38.4414H20.7554V43.8135H44.0661V38.4414Z" fill="#D6D6D6"/>
<path d="M81.0196 47.4873H20.7554V52.8594H81.0196V47.4873Z" fill="#D6D6D6"/>
<path d="M81.0196 57.3877H20.7554V62.7598H81.0196V57.3877Z" fill="#D6D6D6"/>
<path d="M81.0196 67.2881H20.7554V72.6602H81.0196V67.2881Z" fill="#D6D6D6"/>
<path d="M81.0196 77.1826H20.7554V82.5547H81.0196V77.1826Z" fill="#D6D6D6"/>
<path d="M81.0196 87.083H20.7554V92.4551H81.0196V87.083Z" fill="#D6D6D6"/>
<path d="M59.4163 96.9834H20.7554V102.356H59.4163V96.9834Z" fill="#D6D6D6"/>
<path d="M99.7357 138.429C99.3279 138.429 99.0234 138.413 98.8494 138.402H86.914C68.8831 137.737 68.4644 123.378 68.459 122.534V97.1075H73.2549V122.572C73.2549 122.572 73.2658 125.31 74.9568 127.988C77.1808 131.51 81.2481 133.409 87.0499 133.636H99.0723L99.1974 133.647C99.2355 133.647 104.243 134.063 108.033 130.547C111.247 127.56 112.808 122.583 112.655 115.745V69.7112C112.552 68.4831 111.981 59.654 116.559 54.4983C118.664 52.1233 121.475 50.879 124.906 50.7979H124.966H132.655V55.5695H124.999C122.943 55.6236 121.361 56.3052 120.165 57.6523C117.31 60.855 117.234 67.201 117.44 69.3758L117.451 69.6084V115.675C117.625 123.957 115.537 130.157 111.236 134.101C107 137.985 101.894 138.44 99.7357 138.44V138.429Z" fill="#202332"/>
<path d="M46.9482 61.4341C46.1326 61.4341 45.4474 60.7957 45.4094 59.9734C45.3931 59.5677 44.9635 49.9433 46.5567 37.2514C46.5948 36.8402 46.9645 33.3833 48.7752 29.8992C51.3743 24.9004 55.6374 22.2549 61.1021 22.2549C61.9558 22.2549 62.6409 22.942 62.6409 23.7859C62.6409 24.6299 61.9504 25.3169 61.1021 25.3169C50.8143 25.3169 49.667 37.0458 49.6235 37.5435C49.6235 37.5652 49.6235 37.5868 49.618 37.6031C48.052 50.0461 48.4816 59.73 48.487 59.8273C48.5251 60.6767 47.8671 61.3908 47.0189 61.4287C46.9917 61.4287 46.9699 61.4287 46.9482 61.4287V61.4341Z" fill="#C6C6C6"/>
<g style="mix-blend-mode:multiply">
<path d="M61.1021 22.249C55.6319 22.249 51.3743 24.8945 48.7752 29.8934C46.9645 33.3774 46.5947 36.8344 46.5567 37.2455C44.9635 49.9374 45.3876 59.5618 45.4093 59.9675C45.4474 60.7899 46.1325 61.4282 46.9482 61.4282C46.9699 61.4282 46.9971 61.4282 47.0188 61.4282C47.8671 61.3904 48.525 60.6708 48.487 59.8269C48.487 59.8107 48.4707 59.4211 48.4544 58.7287C48.4217 58.7287 48.3891 58.7449 48.351 58.7449C48.3293 58.7449 48.3075 58.7449 48.2858 58.7449C47.5626 58.7449 46.9645 58.1822 46.9264 57.4519C46.9101 57.0948 46.5349 48.6011 47.9378 37.397C47.9704 37.0346 48.2967 33.9833 49.8953 30.905C52.1899 26.4905 55.9527 24.1588 60.7758 24.1588C61.3413 24.1588 61.8253 24.4996 62.0319 24.9919C62.3962 24.7106 62.6409 24.2778 62.6409 23.7801C62.6409 22.9307 61.9503 22.249 61.1021 22.249Z" fill="#C6C6C6"/>
</g>
<path d="M94.7709 61.4341C95.5865 61.4341 96.2716 60.7957 96.3097 59.9734C96.326 59.5677 96.7556 49.9433 95.1624 37.2514C95.1243 36.8402 94.7546 33.3833 92.9439 29.8992C90.3447 24.9004 86.0817 22.2549 80.617 22.2549C79.7633 22.2549 79.0781 22.942 79.0781 23.7859C79.0781 24.6299 79.7687 25.3169 80.617 25.3169C90.9102 25.3169 92.0521 37.0458 92.0956 37.5435C92.0956 37.5652 92.0956 37.5868 92.101 37.6031C93.6671 50.0461 93.2375 59.73 93.2321 59.8273C93.194 60.6767 93.8519 61.3908 94.7002 61.4287C94.7219 61.4287 94.7491 61.4287 94.7709 61.4287V61.4341Z" fill="#C6C6C6"/>
<g style="mix-blend-mode:multiply">
<path d="M80.6169 22.249C86.0871 22.249 90.3501 24.8945 92.9439 29.8934C94.7546 33.3774 95.1243 36.8344 95.1624 37.2455C96.7556 49.9374 96.3314 59.5618 96.3097 59.9675C96.2716 60.7899 95.5919 61.4282 94.7709 61.4282C94.7491 61.4282 94.7219 61.4282 94.7002 61.4282C93.8519 61.3904 93.194 60.6708 93.2321 59.8269C93.2321 59.8107 93.2484 59.4211 93.2647 58.7287C93.2973 58.7287 93.3299 58.7449 93.368 58.7449C93.3897 58.7449 93.4115 58.7449 93.4332 58.7449C94.1564 58.7449 94.76 58.1822 94.7926 57.4519C94.8089 57.0948 95.1841 48.6011 93.7812 37.397C93.7486 37.0346 93.4224 33.9833 91.8237 30.905C89.5345 26.4905 85.7717 24.1588 80.9432 24.1588C80.3777 24.1588 79.8938 24.4996 79.6871 24.9919C79.3228 24.7106 79.0781 24.2778 79.0781 23.7801C79.0781 22.9307 79.7687 22.249 80.6169 22.249Z" fill="#C6C6C6"/>
</g>
<path d="M71.9389 97.5026C71.841 97.5026 71.7649 97.5026 71.6996 97.5026C71.6343 97.5026 71.5745 97.5026 71.5093 97.5026C65.2779 97.5026 59.9328 95.555 55.6262 91.7139C43.1743 80.6126 43.854 57.2305 43.8866 56.2405C43.941 54.7528 45.3656 53.5896 47.0621 53.6329C48.7641 53.6762 50.1017 54.9205 50.0473 56.4028C50.0364 56.7004 49.4383 78.5135 60.0306 87.9485C63.2225 90.7942 67.0396 92.1521 71.705 92.1142C71.7975 92.1142 71.8301 92.1142 71.9171 92.1142C72.2977 92.1196 76.8055 92.1467 81.411 88.2894C86.0928 84.3671 91.6771 75.63 91.6771 56.3108C91.6771 54.8231 93.0583 53.6221 94.7602 53.6221C96.4622 53.6221 97.8433 54.8285 97.8433 56.3108C97.8433 73.5092 93.6781 85.633 85.462 92.3523C79.6003 97.1509 73.5375 97.4918 71.9389 97.4918V97.5026Z" fill="#202332"/>
<g style="mix-blend-mode:multiply">
<path d="M94.7601 53.633C93.1071 53.633 91.7641 54.7691 91.6879 56.1919C93.1669 56.1919 94.3686 57.2415 94.3686 58.5345C94.3686 73.5148 90.7418 84.0805 83.5806 89.9395C78.4747 94.116 73.1949 94.4136 71.7974 94.4136C71.7158 94.4136 71.6452 94.4136 71.5908 94.4136H71.4277C65.9956 94.4136 61.341 92.7203 57.5891 89.3715C46.7412 79.6984 47.3339 59.3297 47.3611 58.4695C47.4046 57.1982 48.6063 56.2028 50.0472 56.1973C49.9711 54.807 48.6879 53.6817 47.0675 53.633C45.371 53.5897 43.9463 54.7529 43.8919 56.2406C43.8593 57.2307 43.1796 80.6127 55.6316 91.714C59.9436 95.5551 65.2832 97.5027 71.5147 97.5027C71.5799 97.5027 71.6397 97.5027 71.705 97.5027C71.7702 97.5027 71.8463 97.5027 71.9442 97.5027C73.5483 97.5027 79.6057 97.1619 85.4674 92.3632C93.6835 85.644 97.8487 73.5148 97.8487 56.3218C97.8487 54.834 96.4675 53.633 94.7656 53.633H94.7601Z" fill="#B2B2B2"/>
</g>
<path d="M67.17 23.9536C67.17 25.4143 65.9792 26.5936 64.5165 26.5936L59.552 26.1662C58.0132 25.7821 58.0567 24.9815 58.0132 23.9536C58.0132 22.8445 58.0132 22.0384 59.6825 21.6543L64.5219 21.3135C65.9846 21.3135 67.1754 22.4929 67.1754 23.9536H67.17Z" fill="#202332"/>
<g style="mix-blend-mode:soft-light">
<path d="M63.4671 23.9537C64.6361 23.9537 65.4083 23.6129 66.0281 22.7256C65.5496 22.2604 64.8971 21.9736 64.1739 21.9736L61.2322 22.1792C61.118 23.5858 61.9826 23.9591 63.4671 23.9537Z" fill="white"/>
</g>
<g style="mix-blend-mode:multiply">
<path d="M62.3958 25.3714C60.2263 25.063 59.3726 23.5753 59.378 21.7305C58.0132 22.1416 58.0132 22.9153 58.0132 23.9486C58.0567 24.9765 58.0132 25.7771 59.552 26.1613L64.5165 26.5886C65.8106 26.5886 66.8818 25.6689 67.1211 24.4517C65.8432 25.4201 64.2065 25.6257 62.3958 25.3714Z" fill="#878787"/>
</g>
<path d="M73.0753 23.9536C73.0753 25.4143 74.2661 26.5936 75.7288 26.5936L80.6933 26.1662C82.2321 25.7821 82.1886 24.9815 82.2321 23.9536C82.2321 22.8445 82.2321 22.0384 80.5628 21.6543L75.7233 21.3135C74.2552 21.3135 73.0698 22.4929 73.0698 23.9536H73.0753Z" fill="#202332"/>
<g style="mix-blend-mode:soft-light">
<path d="M76.7784 23.9537C75.6039 23.9537 74.8372 23.6129 74.2173 22.7256C74.6958 22.2604 75.3483 21.9736 76.0715 21.9736L79.0132 22.1792C79.1274 23.5858 78.2628 23.9591 76.7784 23.9537Z" fill="white"/>
</g>
<g style="mix-blend-mode:multiply">
<path d="M77.8492 25.3714C80.0188 25.063 80.8725 23.5753 80.8671 21.7305C82.2319 22.1416 82.2319 22.9153 82.2319 23.9486C82.1884 24.9765 82.2319 25.7771 80.6931 26.1613L75.7286 26.5886C74.4345 26.5886 73.3633 25.6689 73.124 24.4517C74.4018 25.4201 76.0385 25.6257 77.8492 25.3714Z" fill="#878787"/>
</g>
<path d="M150 53.7784C150 59.486 145.351 64.1169 139.615 64.1169C133.878 64.1169 129.229 59.4914 129.229 53.7784C129.229 48.0655 133.878 43.4453 139.615 43.4453C145.351 43.4453 150 48.0763 150 53.7784Z" fill="#202332"/>
<path d="M147.151 53.7785C147.151 57.9172 143.78 61.2768 139.615 61.2768C135.449 61.2768 132.078 57.9172 132.078 53.7785C132.078 49.6399 135.455 46.2803 139.615 46.2803C143.774 46.2803 147.151 49.6345 147.151 53.7785Z" fill="#B2B2B2"/>
<path d="M145.949 53.7792C145.949 57.2633 143.111 60.0819 139.615 60.0819C136.118 60.0819 133.28 57.2578 133.28 53.7792C133.28 50.3006 136.118 47.4766 139.615 47.4766C143.111 47.4766 145.949 50.3006 145.949 53.7792Z" fill="#9D9D9C"/>
</svg>
