<svg width="8" height="5" viewBox="0 0 8 5" fill="none" xmlns="http://www.w3.org/2000/svg">
<path d="M4.00017 3.63077L6.71557 0.915392C6.80787 0.82308 6.92389 0.775858 7.06364 0.773725C7.20337 0.77158 7.32153 0.818803 7.41811 0.915392C7.51469 1.01197 7.56299 1.12906 7.56299 1.26666C7.56299 1.40426 7.51469 1.52135 7.41811 1.61792L4.42195 4.61407C4.35957 4.67647 4.29375 4.72049 4.22452 4.74612C4.1553 4.77177 4.08052 4.78459 4.00017 4.78459C3.91983 4.78459 3.84504 4.77177 3.77582 4.74612C3.70659 4.72049 3.64078 4.67647 3.57839 4.61407L0.582238 1.61792C0.489927 1.52562 0.442704 1.4096 0.440571 1.26986C0.438426 1.13012 0.485649 1.01197 0.582238 0.915392C0.678815 0.818803 0.795904 0.770508 0.933504 0.770508C1.0711 0.770508 1.18819 0.818803 1.28477 0.915392L4.00017 3.63077Z" fill="black" stroke="black" stroke-width="0.2"/>
</svg>
