<svg width="22" height="22" viewBox="0 0 22 22" fill="none" xmlns="http://www.w3.org/2000/svg">
<path d="M8.83609 13.1383L1.17719 10.0358C0.913949 9.93322 0.724204 9.77675 0.60796 9.5664C0.491716 9.35602 0.433594 9.14063 0.433594 8.92023C0.433594 8.69985 0.497271 8.48367 0.624627 8.2717C0.751982 8.05974 0.947282 7.90247 1.21053 7.7999L19.4639 0.965228C19.7017 0.865316 19.9322 0.845771 20.1552 0.906593C20.3783 0.967438 20.5709 1.07898 20.7332 1.24123C20.8954 1.40345 21.007 1.5961 21.0678 1.81919C21.1286 2.04226 21.1089 2.27266 21.0086 2.51039L14.1472 20.7554C14.0469 21.0129 13.8914 21.2061 13.6808 21.3348C13.4701 21.4636 13.2544 21.528 13.0338 21.528C12.8131 21.528 12.5964 21.4675 12.3838 21.3465C12.1712 21.2254 12.0142 21.0338 11.913 20.7716L8.83609 13.1383Z" fill="#0067F9"/>
</svg>
