<svg width="500" height="500" viewBox="0 0 500 500" fill="none" xmlns="http://www.w3.org/2000/svg">
<path d="M31.2002 92.8505C31.0602 92.0105 30.9902 91.1505 30.9902 90.2705C30.9902 81.4105 38.1702 74.2305 47.0302 74.2305C49.7402 74.2305 52.2902 74.9005 54.5202 76.0905C56.4802 77.1305 59.7502 77.5205 61.1102 74.4205C64.5602 65.9905 72.8402 60.0505 82.5202 60.0505C87.4702 60.0505 92.0602 61.6105 95.8202 64.2605C98.0302 65.8205 101.85 65.6905 103.11 62.1605C107.56 48.8805 120.1 39.3105 134.88 39.3105C150.91 39.3105 164.3 50.5605 167.6 65.6005C168.22 68.5905 170.44 70.5405 174.76 69.8505C175.94 69.6105 177.17 69.4805 178.43 69.4805C186.65 69.4805 193.61 74.8705 195.98 82.3105C196.6 84.2805 198.54 84.9005 200.5 83.7305C202.46 82.4205 204.82 81.6505 207.35 81.6505C213.77 81.6505 219.05 86.5705 219.62 92.8405H31.2002V92.8505Z" fill="#F8F8F8"/>
<path d="M158.87 80.841L158.24 80.431C164.53 70.721 174.06 69.551 174.16 69.541L174.24 70.291C174.15 70.301 164.95 71.441 158.87 80.841Z" fill="#5B1A31"/>
<path d="M147.24 85.3705L146.71 84.8405C149.97 81.5405 154.28 79.8205 158.53 80.1205C162.15 80.3705 165.31 82.0605 167.42 84.8805L166.82 85.3305C164.85 82.6905 161.88 81.1005 158.48 80.8705C154.44 80.5905 150.35 82.2305 147.24 85.3705Z" fill="#5B1A31"/>
<path d="M47.78 82.1606L47.25 81.6305C50.51 78.3305 54.83 76.6106 59.07 76.9106C62.69 77.1606 65.85 78.8505 67.96 81.6705L67.36 82.1206C65.39 79.4806 62.42 77.8906 59.02 77.6606C55 77.3806 50.89 79.0206 47.78 82.1606Z" fill="#5B1A31"/>
<path d="M67.78 82.1606L67.25 81.6305C70.51 78.3305 74.83 76.6106 79.07 76.9106C82.69 77.1606 85.85 78.8505 87.96 81.6705L87.36 82.1206C85.39 79.4806 82.42 77.8906 79.02 77.6606C75 77.3806 70.89 79.0206 67.78 82.1606Z" fill="#5B1A31"/>
<path d="M460.68 57.3902C459.99 57.3902 459.31 57.4402 458.64 57.5302C456.77 57.8802 455 56.7402 454.76 54.5302C453.82 42.7302 443.95 33.4502 431.91 33.4502C422.11 33.4502 413.75 39.6002 410.48 48.2502C409.71 50.5402 407.44 51.4302 404.98 50.3002C401.73 48.5302 398.01 47.5302 394.05 47.5302C383.94 47.5302 375.37 54.0802 372.32 63.1602H472.3C469.63 59.6602 465.42 57.3902 460.68 57.3902Z" fill="#F8F8F8"/>
<path d="M416.07 59.9605C412.87 54.8705 405.77 51.0005 405.7 50.9705L406.06 50.3105C406.36 50.4705 413.4 54.3105 416.71 59.5705L416.08 59.9705L416.07 59.9605Z" fill="#5B1A31"/>
<path d="M416.34 59.9605C419.54 54.8705 426.64 51.0005 426.71 50.9705L426.35 50.3105C426.05 50.4705 419.01 54.3105 415.7 59.5705L416.33 59.9705L416.34 59.9605Z" fill="#5B1A31"/>
<path d="M437.04 60.4606L436.47 59.9806C436.55 59.8906 438.37 57.7806 443.02 57.1006L443.13 57.8406C438.78 58.4806 437.06 60.4406 437.04 60.4606Z" fill="#5B1A31"/>
<path d="M151.02 449.51H337.11L355.93 408.87C355.93 408.87 412.61 399.51 422.88 381.38C429.62 369.19 419.51 355.39 419.03 350.9C418.55 346.41 428.23 334.43 427.8 331.22C427.37 328.01 420.96 323.95 420.96 323.95C420.96 323.95 428.55 320.85 429.73 317.32C430.91 313.79 423.31 297.96 427.59 286.95C429.73 284.7 447.51 282.13 450.54 274.05C454.93 263.36 417.1 219.03 416.89 214.86C416.68 210.69 420.95 201.6 420.95 201.6C423.34 196.52 415.65 178.67 413.95 173.31C411.14 164.46 407.77 155.79 403.73 147.42C396.47 132.38 387.08 118.35 375.52 106.28C323.66 52.1703 232.01 47.7103 171.1 89.1603C143.04 108.25 124.61 138.92 119.69 172.36C115.38 201.66 121 238.4 137.32 263.63C137.32 263.63 173.79 319.99 176.78 352.51C179.77 385.02 151.01 449.51 151.01 449.51H151.02Z" fill="#E8F1FF"/>
<path d="M380.88 166.67C378.28 163.23 374.22 161.15 371.73 157.58C364.14 146.7 374.74 131.97 364.25 122.05C361.59 119.54 358.26 117.68 354.55 116.8C351 115.96 347.35 115.76 344.14 113.96C333.01 107.7 335.14 93.8896 317.45 88.6296C307.6 86.1396 298.06 90.1496 289.9 88.5496C283.23 87.2396 280.96 83.0496 275.15 79.7896C265.73 74.4896 252.39 74.0696 244.28 80.9496C241.58 83.2396 239.49 86.2496 236.2 87.7696C230.34 90.4696 223.42 87.4396 216.88 86.9496C208.14 86.2996 199.19 90.8196 195.15 97.9296C193.1 101.54 192.15 105.81 189 108.69C184.87 112.47 178.38 112.67 172.82 114.29C166.26 116.2 160.62 120.62 157.14 126.24C152.95 133 153.33 139.34 154.77 146.8C156.14 153.86 150.99 160.12 147.37 165.78C143.14 172.4 141.44 180.68 143.71 188.22C147.48 200.74 159.97 206.65 172.95 206.65H361.23C365.26 206.65 370.36 205.55 372.48 204.51C379.96 199.79 384.65 191.9 385.51 183.75C386.13 177.82 384.72 171.75 380.88 166.67Z" fill="white"/>
<path d="M326.52 415.32L326.38 414.58C339.48 412.03 355.7 408.54 355.86 408.51L356.02 409.24C355.86 409.28 339.62 412.77 326.52 415.32Z" fill="#5B1A31"/>
<path d="M173.89 184.44C173.89 184.44 167.51 169.1 175.28 142.87C175.28 142.87 186.51 161.52 189.29 184.46L173.89 184.44Z" fill="#A29C3C"/>
<path d="M171.42 184.45C171.85 178.99 169.63 173.42 166.53 167.83C173.07 172.23 178.11 177.62 180.89 184.45H171.42Z" fill="#A29C3C"/>
<path d="M182.93 184.451C182.86 175.101 188.72 160.091 193.96 152.561L192.29 184.451H182.93Z" fill="#A29C3C"/>
<path d="M169.89 184.45C169.89 184.45 165.56 177.61 157.06 176.6C157.06 176.6 170.3 170.89 176.92 184.47L169.89 184.45Z" fill="#A29C3C"/>
<path d="M185.34 184.45C185.34 184.45 189.84 169.71 205.47 164.41C205.47 164.41 196.2 172.34 194.48 184.45H185.34Z" fill="#A29C3C"/>
<path d="M176.59 183.731C174.52 179.561 170.49 177.541 170.45 177.521L170.78 176.851C170.95 176.941 175.08 178.991 177.27 183.401L176.6 183.731H176.59Z" fill="#5B1A31"/>
<path d="M179.01 183.33C177.86 177.46 171.36 171.99 171.3 171.94L171.78 171.36C172.06 171.59 178.55 177.05 179.75 183.19L179.01 183.33Z" fill="#5B1A31"/>
<path d="M183.3 183.26L182.55 183.22C182.91 176.63 185.7 168.8 185.73 168.73L186.43 168.98C186.4 169.06 183.64 176.78 183.29 183.26H183.3Z" fill="#5B1A31"/>
<path d="M192.35 182.94H191.6C191.6 179.51 192.51 172.59 192.55 172.3L193.29 172.4C193.29 172.47 192.34 179.56 192.34 182.94H192.35Z" fill="#5B1A31"/>
<path d="M169.38 184.271C169.38 184.271 168.69 202.63 175.3 207.15H188.66C194.38 204.96 194.58 184.271 194.58 184.271H169.37H169.38Z" fill="#0067F9"/>
<path d="M195.73 189.86H168.24L167.56 183.58L196.53 182.94L195.73 189.86Z" fill="#0067F9"/>
<path d="M194.59 189.48H169.38V190.23H194.59V189.48Z" fill="#043D8E"/>
<path d="M252.26 145.74C245.35 143.28 241.22 138.75 236.97 132.32C243.11 133.36 248.63 135.48 252.83 139.99C248.86 134.63 246.71 127.08 245.31 118.63C251.19 124.43 255.85 130.68 257.82 137.92C257.49 129.2 259.91 120.4 263.59 111.58C265.21 121.33 265.52 130.45 263.33 138.38C265.56 132.82 269.95 128.3 275.77 124.46C273.54 130.81 271.01 136.09 267.89 139.3C270.5 136.22 274.35 134.26 278.68 132.74C274.82 138.97 269.67 143.54 264.27 145.74H252.26Z" fill="#A29C3C"/>
<path d="M254.83 145.801C254.31 142.721 252.55 140.231 252.53 140.211L253.14 139.771C253.22 139.881 255.02 142.42 255.57 145.68L254.83 145.801Z" fill="#5B1A31"/>
<path d="M258.88 145.85C258.12 143.51 257.47 138.18 257.45 137.96L258.19 137.87C258.19 137.92 258.85 143.35 259.59 145.62L258.88 145.85Z" fill="#5B1A31"/>
<path d="M261.09 145.91L260.43 145.55C261.82 142.98 262.65 140.61 262.96 138.32L263.7 138.42C263.38 140.81 262.52 143.26 261.08 145.91H261.09Z" fill="#5B1A31"/>
<path d="M262.86 145.93L262.22 145.54C263.83 142.89 267.46 139.19 267.61 139.03L268.15 139.56C268.15 139.56 264.43 143.35 262.86 145.93Z" fill="#5B1A31"/>
<path d="M233.24 143.881C233.13 144.871 233.06 145.871 233.06 146.891C233.06 161.371 246.16 172.351 260.63 172.351C275.1 172.351 285.48 161.971 285.48 146.891C285.48 145.871 285.42 144.871 285.3 143.881H233.23H233.24Z" fill="#7CB2FF"/>
<path d="M287.48 147.07H231.06V147.82H287.48V147.07Z" fill="#00347F"/>
<path d="M283.66 147.58L259.13 81.7L234.74 147.58L234.03 147.32L259.13 79.54L284.37 147.32L283.66 147.58Z" fill="#00347F"/>
<path d="M261 81.2305C261 82.3305 260.1 83.2305 259 83.2305C257.9 83.2305 257 82.3305 257 81.2305C257 80.1305 257.9 79.2305 259 79.2305C260.1 79.2305 261 80.1305 261 81.2305Z" fill="#5B1A31"/>
<path d="M55.9502 449.51C39.1502 443.96 35.2502 424.01 33.9102 401.21C43.0702 414.29 50.5402 427.76 55.0702 441.93C45.5502 400.06 62.4802 357.37 62.4802 357.37C62.4802 357.37 74.0102 412.17 70.0602 432.21C73.9902 414.02 83.9602 398.01 97.3902 383.25C93.4202 410.45 89.1902 423.97 76.9902 442.78C82.7302 433.72 89.1902 430.47 100.56 426.6C96.2902 436.97 90.3702 445.23 81.3402 449.51H55.9502Z" fill="#968E29"/>
<path d="M57.91 449.511C56.17 446.591 54.77 442.231 54.71 442.041L55.42 441.811C55.42 441.811 56.85 446.271 58.55 449.121L57.91 449.501V449.511Z" fill="#5B1A31"/>
<path d="M65.3404 449.661L64.6504 449.371C67.0204 443.661 68.7104 437.861 69.6904 432.141L70.4304 432.271C69.4404 438.041 67.7304 443.891 65.3504 449.661H65.3404Z" fill="#5B1A31"/>
<path d="M75.5801 449.55L74.8301 449.48C75.0501 447.06 75.6601 444.76 76.6401 442.62L77.3201 442.93C76.3701 444.99 75.7901 447.21 75.5701 449.54L75.5801 449.55Z" fill="#5B1A31"/>
<path d="M61.6303 449.541C59.9903 426.541 59.8203 401.701 61.1103 373.601L61.8603 373.641C60.5703 401.711 60.7403 426.531 62.3803 449.501L61.6303 449.551V449.541Z" fill="#5B1A31"/>
<path d="M60.9203 395.711L60.6104 395.031C63.1904 393.861 64.9404 392.131 65.8204 389.891L66.5203 390.161C65.5703 392.601 63.6903 394.461 60.9203 395.721V395.711Z" fill="#5B1A31"/>
<path d="M60.5499 418C57.8999 417.4 55.7599 416.19 54.1699 414.42L54.7299 413.92C56.2099 415.58 58.2199 416.7 60.7099 417.27L60.5399 418H60.5499Z" fill="#5B1A31"/>
<path d="M61.1601 432.551L60.8901 431.851C63.2101 430.961 65.2501 429.421 66.9401 427.271L67.5301 427.731C65.7501 429.991 63.6101 431.611 61.1601 432.551Z" fill="#5B1A31"/>
<path d="M313.49 196.43V188.54H315.11V186.9L284.85 186.58C281.79 186.58 278.97 189.4 278.97 192.46C278.97 195.52 281.83 198.03 284.89 198.03H315.12V196.43H313.5H313.49Z" fill="#7CB2FF"/>
<path d="M325.91 196.43V188.54H327.53V186.9L297.27 186.58C294.21 186.58 291.39 189.4 291.39 192.46C291.39 195.52 294.25 198.03 297.31 198.03H327.54V196.43H325.92H325.91Z" fill="#BBD7FF"/>
<path d="M325.91 188.54H297.65C295.47 188.54 293.7 190.31 293.7 192.49C293.7 194.67 295.47 196.44 297.65 196.44H325.91V188.55V188.54Z" fill="white"/>
<path d="M325.908 189.534L296.154 190.115L296.164 190.615L325.918 190.033L325.908 189.534Z" fill="#043D8E"/>
<path d="M325.909 192.12L299.559 192.226L299.561 192.726L325.911 192.62L325.909 192.12Z" fill="#043D8E"/>
<path d="M325.91 195.13H297.69V195.63H325.91V195.13Z" fill="#043D8E"/>
<path d="M279.27 199.23V205.18H278.05V206.661H324C326.31 206.661 328.43 204.531 328.43 202.221C328.43 199.911 326.28 198.021 323.97 198.021H278.04V199.221H279.26L279.27 199.23Z" fill="#0067F9"/>
<path d="M275.24 199.23V205.18H274.02V206.65H291.5C293.81 206.65 295.93 204.531 295.93 202.221C295.93 199.911 293.78 198.021 291.47 198.021H274.02V199.221H275.24V199.23Z" fill="#003684"/>
<path d="M275.24 205.17H291.21C292.85 205.17 294.18 203.84 294.18 202.2C294.18 200.56 292.85 199.23 291.21 199.23H275.24V205.18V205.17Z" fill="white"/>
<path d="M275.25 204.501L275.23 204.001L292.33 203.551L292.34 204.051L275.25 204.501Z" fill="#043D8E"/>
<path d="M275.24 202.53V202.03L289.77 201.95V202.45L275.24 202.53Z" fill="#043D8E"/>
<path d="M291.18 199.761H275.24V200.261H291.18V199.761Z" fill="#043D8E"/>
<path d="M321.33 186.84L276.8 186.57V183.65L321.6 182.54L321.33 186.84Z" fill="#002A66"/>
<path d="M282.1 447.07L277.98 382.8C278.03 381.5 276.9 380.4 275.45 380.33L237.68 378.72C236.12 378.65 234.82 379.78 234.86 381.17L227.31 447.17C227.35 448.47 228.54 449.51 229.99 449.5L279.43 449.37C280.87 449.37 282.05 448.34 282.1 447.06V447.07Z" fill="#0067F9"/>
<path d="M268.13 382.251L270.72 381.791C270.7 381.671 268.5 369.991 257.49 369.501C246.56 369.031 242.78 379.471 242.74 379.571L245.23 380.441C245.36 380.091 248.43 371.751 257.38 372.131C266.31 372.531 268.12 382.151 268.13 382.251Z" fill="#0067F9"/>
<path d="M238.81 422.44L206.48 382.33L202.06 387.03L232.18 444.77L238.81 422.44Z" fill="#0067F9"/>
<path d="M206.48 382.33C209.6 376.79 211.97 370.79 210 368C203.33 363.72 185.55 384.47 188.45 389.45C190.8 391.59 198.09 389.5 202.06 387.03L206.48 382.33Z" fill="#0067F9"/>
<path d="M274.36 436.89C287.21 431.89 301.23 415.72 304.37 402.27C305.81 396.08 304.86 390.93 301.6 387.38C298.75 384.27 295.37 382.73 291.58 382.78C282.53 382.92 274.35 392.27 274.01 392.67L276.47 394.79C276.54 394.7 284.05 386.13 291.64 386.02C291.69 386.02 291.74 386.02 291.79 386.02C294.6 386.02 297.03 387.18 299.21 389.57C302.37 393.02 302.04 397.98 301.21 401.53C298.28 414.09 285.19 429.19 273.19 433.86L274.37 436.89H274.36Z" fill="#0067F9"/>
<path d="M228.49 437.93L228.33 437.2C230.88 436.66 232.93 433.91 233.93 429.65C235.27 424 234.52 416.15 230.98 413.33L231.45 412.74C235.22 415.74 236.05 423.95 234.66 429.82C233.58 434.37 231.33 437.33 228.48 437.94L228.49 437.93Z" fill="#073A82"/>
<path d="M202.28 387.331L201.84 386.721C203.74 385.351 205.2 383.811 206.15 382.141L206.8 382.511C205.79 384.281 204.26 385.901 202.27 387.331H202.28Z" fill="#073A82"/>
<path d="M189.02 389.851C188.81 389.851 188.61 389.841 188.41 389.811L188.5 389.071C193.81 389.661 202.88 381.011 207.15 374.781C209.28 371.671 210.22 369.201 209.68 368.161L210.34 367.811C211.28 369.601 209.13 373.211 207.77 375.201C203.45 381.511 194.72 389.841 189.03 389.841L189.02 389.851Z" fill="#073A82"/>
<path d="M267.479 379.644L267.447 380.394L270.274 380.514L270.306 379.765L267.479 379.644Z" fill="#073A82"/>
<path d="M243 378.559L242.968 379.309L245.815 379.429L245.847 378.68L243 378.559Z" fill="#073A82"/>
<path d="M278.24 392.651L277.97 388.571L278.72 388.521L278.98 392.601L278.24 392.651Z" fill="#073A82"/>
<path d="M280.84 433.29L280.6 429.55L281.35 429.5L281.59 433.24L280.84 433.29Z" fill="#073A82"/>
<path d="M233.491 392.92L233.458 393.669L278.776 395.632L278.808 394.882L233.491 392.92Z" fill="#073A82"/>
<path d="M233.045 396.588L233.024 397.338L278.936 398.628L278.957 397.879L233.045 396.588Z" fill="#073A82"/>
<path d="M281.95 445.15L227.68 444.37L227.69 443.62L281.96 444.4L281.95 445.15Z" fill="#073A82"/>
<path d="M228.122 439.829L228.098 440.578L281.761 442.293L281.785 441.543L228.122 439.829Z" fill="#073A82"/>
<path d="M385.83 216.03L385.19 215.63C387.32 212.21 390.41 210.21 394.13 209.84L394.2 210.59C390.72 210.94 387.82 212.82 385.82 216.03H385.83Z" fill="#5B1A31"/>
<path d="M381.74 215.87C381.74 215.87 381.44 212.67 378.93 211.88L379.15 211.16C382.14 212.1 382.47 215.65 382.48 215.8L381.73 215.86L381.74 215.87Z" fill="#5B1A31"/>
<path d="M352.53 210.7C352.53 210.7 362.02 203.7 357.74 199.96C347.67 191.57 321.64 220.26 322.32 223.26C322.99 226.26 354.59 232.01 360 217.54C363.5 208.67 352.54 210.7 352.54 210.7H352.53Z" fill="#A29C3C"/>
<path d="M352.53 210.7C352.53 210.7 344.59 211.32 322.31 223.26C322.98 226.26 354.58 232.01 359.99 217.54C363.49 208.67 352.53 210.7 352.53 210.7Z" fill="#968E29"/>
<path d="M332.69 218.36L332.36 217.69C356.2 206.1 371.32 205.94 377.3 217.22L376.64 217.57C370.89 206.72 356.11 206.98 332.69 218.36Z" fill="#5B1A31"/>
<path d="M323.61 223.089L323.25 222.429C325.12 221.389 326.98 220.399 328.76 219.479L329.1 220.149C327.32 221.069 325.48 222.049 323.61 223.089Z" fill="#5B1A31"/>
<path d="M375.22 189.199C375.22 189.199 375.67 198.649 368.13 197.739C360.59 196.829 366.59 169.739 366.59 169.739C366.59 169.739 390.94 183.939 384.39 190.109C379.75 195.089 375.22 189.199 375.22 189.199Z" fill="#968E29"/>
<path d="M375.22 189.199L366.59 169.729C366.59 169.729 390.94 183.93 384.39 190.1C379.75 195.08 375.22 189.189 375.22 189.189V189.199Z" fill="#A29C3C"/>
<path d="M391.69 197.469C398.35 188.799 409.99 183.589 423.49 179.109C423.49 179.109 417.18 200.279 408.91 203.229C400.83 205.549 391.69 197.469 391.69 197.469Z" fill="#A29C3C"/>
<path d="M363.02 189.399C363.02 189.399 351.17 176.109 342.49 169.739C342.49 169.739 344.15 185.389 349.42 189.439C354.71 192.989 363.02 189.399 363.02 189.399Z" fill="#A29C3C"/>
<path d="M387.91 202.73L387.27 202.34C394.55 190.42 408.92 183.97 423.36 178.76L423.61 179.47C409.3 184.63 395.06 191.01 387.91 202.73Z" fill="#5B1A31"/>
<path d="M383.37 215.88L382.63 215.78C383.13 211.92 384.2 208.28 385.83 204.97L386.5 205.3C384.91 208.53 383.86 212.09 383.38 215.87L383.37 215.88Z" fill="#5B1A31"/>
<path d="M380.59 215.86C379.17 198.05 372.5 182.14 367.15 171.93L367.81 171.58C373.19 181.85 379.91 197.87 381.33 215.8L380.58 215.86H380.59Z" fill="#5B1A31"/>
<path d="M378.4 215.98C373.52 204.08 366.46 193.18 357.42 183.59L357.96 183.08C367.07 192.73 374.18 203.71 379.09 215.7L378.4 215.98Z" fill="#5B1A31"/>
<path d="M354.48 180.58C350.75 176.91 346.64 173.36 342.26 170.03L342.71 169.43C347.12 172.78 351.26 176.35 355.01 180.04L354.48 180.57V180.58Z" fill="#5B1A31"/>
<path d="M391.23 215H371.78C364.87 222.66 352.79 251.7 357.47 256.92C361.5 261.41 370.74 270.23 370.74 270.23H392.27C392.27 270.23 402.68 262.14 405.54 256.92C403.89 234 391.23 215 391.23 215Z" fill="#5B1A31"/>
<path d="M413.57 288.139H350.61C349.51 281.939 350.76 277.229 350.11 270.649C347.81 257.459 346.53 248.239 346.41 237.359L416.38 240.959C416.55 257.479 415.7 273.269 413.57 288.139Z" fill="#0067F9"/>
<path d="M346.41 237.359L337.82 254.949L369.27 254.619L421.54 259.749L416.38 240.959L346.41 237.359Z" fill="#0067F9"/>
<path d="M416.34 259.609L369.23 254.989L346.96 255.229V254.479L369.27 254.239L416.42 258.869L416.34 259.609Z" fill="#033680"/>
<path d="M375.866 252.992L369.203 254.246L369.342 254.983L376.005 253.729L375.866 252.992Z" fill="#033680"/>
<path d="M350.495 271.229L349.866 271.638L354.094 278.144L354.723 277.736L350.495 271.229Z" fill="#033680"/>
<path d="M418.82 288.14H345.77V295.66H418.82V288.14Z" fill="#152842"/>
<path d="M418.91 343.949H345.68V347.709H418.91V343.949Z" fill="#152842"/>
<path d="M426.52 399.199H338.06V402.959H426.52V399.199Z" fill="#152842"/>
<path d="M356.121 294.179L337.766 449.498L338.51 449.586L356.866 294.267L356.121 294.179Z" fill="#043D8E"/>
<path d="M408.398 294.199L407.653 294.287L426.117 449.593L426.862 449.505L408.398 294.199Z" fill="#043D8E"/>
<path d="M370.58 225.44C370.58 225.44 371.96 218.33 367.44 219.66C357.1 222.96 363.84 248.84 366.23 249.71C368.62 250.58 388.41 236.12 380.71 225.91C376.07 219.52 370.57 225.44 370.57 225.44H370.58Z" fill="#A29C3C"/>
<path d="M370.58 225.44C370.58 225.44 366.8 240.48 366.24 249.71C368.63 250.57 388.42 236.12 380.72 225.91C376.08 219.52 370.58 225.44 370.58 225.44Z" fill="#968E29"/>
<path d="M366.91 246.12L366.17 246.02C366.18 245.94 367.28 237.74 369.1 229.4C371.57 218.09 374.15 211.9 376.77 211.01C377.7 210.78 378.92 211.04 379.38 211.23L379.09 211.92C378.71 211.76 377.66 211.56 376.98 211.72C372.27 213.32 368.12 237.09 366.92 246.11L366.91 246.12Z" fill="#5B1A31"/>
<path d="M411.73 220.13C411.73 220.13 402.32 213.02 399.95 218.19C394.77 230.23 422.64 251.89 425.33 250.4C428.02 248.91 431.58 212.1 416.17 211.03C406.67 210.2 411.73 220.13 411.73 220.13Z" fill="#A29C3C"/>
<path d="M411.73 220.13C411.73 220.13 402.32 213.02 399.95 218.19C394.77 230.23 422.64 251.89 425.33 250.4C424.56 243.33 416.53 223.04 411.73 220.13Z" fill="#968E29"/>
<path d="M424.26 248.57C423.85 246.56 423.37 244.57 422.84 242.67L423.56 242.47C424.09 244.39 424.57 246.39 424.99 248.42L424.26 248.57Z" fill="#5B1A31"/>
<path d="M421.32 237.749C414.42 217.929 402.45 209.779 394.21 210.589L394.14 209.839C402.65 208.989 415 217.289 422.03 237.499L421.32 237.749Z" fill="#5B1A31"/>
<path d="M360.49 393.31C363.27 396.24 366.91 398.35 371.02 399.2H379.19C383.3 398.35 386.94 396.25 389.72 393.31H360.5H360.49Z" fill="#0067F9"/>
<path d="M371.01 399.57C361.47 397.61 354.6 389.17 354.6 379.49C354.6 372.46 358.15 366 364.09 362.2L364.18 362.14H386L386.09 362.2C392.03 365.99 395.58 372.45 395.58 379.49C395.58 389.17 388.71 397.61 379.25 399.56H371L371.01 399.57ZM364.4 362.9C358.73 366.56 355.35 372.76 355.35 379.49C355.35 388.81 361.97 396.94 371.08 398.82H379.18C388.22 396.94 394.84 388.81 394.84 379.49C394.84 372.75 391.46 366.56 385.79 362.9H364.41H364.4Z" fill="#043D8E"/>
<path d="M357.9 379.67H357.15C357.15 375.63 358.46 371.81 360.95 368.63L361.54 369.09C359.16 372.14 357.9 375.79 357.9 379.67Z" fill="#E5BB91"/>
<path d="M363.33 367.129L362.82 366.579C363.63 365.819 364.52 365.129 365.46 364.529L365.86 365.159C364.96 365.729 364.11 366.389 363.33 367.119V367.129Z" fill="#E5BB91"/>
<path d="M370.22 393.309C364.77 391.369 361.51 387.799 358.16 382.729C363 383.549 367.36 385.219 370.67 388.779C367.54 384.549 365.84 378.599 364.74 371.929C369.37 376.499 373.05 381.429 374.61 387.149C374.35 380.269 376.26 373.329 379.16 366.369C380.44 374.059 380.68 381.259 378.95 387.509C380.71 383.129 384.17 379.559 388.76 376.529C387 381.539 385 385.699 382.54 388.229C384.6 385.799 387.63 384.249 391.05 383.059C388.01 387.969 383.94 391.579 379.69 393.309H370.22Z" fill="#968E29"/>
<path d="M372.17 393.37C371.77 390.96 370.38 389.01 370.37 388.99L370.98 388.55C371.04 388.63 372.48 390.66 372.91 393.24L372.17 393.36V393.37Z" fill="#5B1A31"/>
<path d="M375.37 393.43C374.77 391.58 374.26 387.37 374.24 387.19L374.98 387.1C374.98 387.1 375.5 391.41 376.08 393.2L375.37 393.43Z" fill="#5B1A31"/>
<path d="M377.25 393.489L376.59 393.129C377.68 391.109 378.34 389.259 378.58 387.449L379.32 387.549C379.06 389.439 378.39 391.379 377.25 393.479V393.489Z" fill="#5B1A31"/>
<path d="M378.65 393.5L378.01 393.11C379.29 391.01 382.15 388.08 382.27 387.96L382.81 388.49C382.81 388.49 379.88 391.48 378.65 393.5Z" fill="#5B1A31"/>
<path d="M402.57 342.28V334.04H404.26V332.32L372.67 331.99C369.47 331.99 366.53 334.93 366.53 338.13C366.53 341.32 369.51 343.94 372.71 343.94H404.26V342.27H402.57V342.28Z" fill="#7CB2FF"/>
<path d="M415.54 342.28V334.04H417.23V332.32L385.641 331.99C382.451 331.99 379.5 334.93 379.5 338.13C379.5 341.32 382.48 343.94 385.68 343.94H417.23V342.27H415.54V342.28Z" fill="#BBD7FF"/>
<path d="M415.54 334.05H386.05C383.78 334.05 381.93 335.89 381.93 338.17C381.93 340.44 383.77 342.29 386.05 342.29H415.54V334.05Z" fill="white"/>
<path d="M415.529 335.098L384.475 335.699L384.485 336.199L415.539 335.597L415.529 335.098Z" fill="#043D8E"/>
<path d="M415.543 337.8L388.043 337.91L388.045 338.41L415.545 338.3L415.543 337.8Z" fill="#043D8E"/>
<path d="M415.54 340.94H386.08V341.44H415.54V340.94Z" fill="#043D8E"/>
<path d="M415.135 328.077L366.636 327.832C366.266 327.83 365.964 328.128 365.962 328.498L365.948 331.378C365.946 331.748 366.244 332.05 366.614 332.051L415.114 332.297C415.484 332.299 415.785 332 415.787 331.63L415.802 328.75C415.804 328.38 415.505 328.079 415.135 328.077Z" fill="#0646A1"/>
<path d="M372.396 327.871L369.726 327.857L369.705 332.087L372.375 332.101L372.396 327.871Z" fill="white"/>
<path d="M412.054 328.061L409.384 328.048L409.363 332.278L412.033 332.291L412.054 328.061Z" fill="white"/>
<path d="M330.37 449.32C330.37 449.32 332.25 441.25 336.84 439.01C341.43 436.77 349.66 434.54 354.96 436.07C360.25 437.6 364.25 440.42 365.67 443.25C367.08 446.07 369.55 446.92 368.38 449.32H330.38H330.37Z" fill="#936757"/>
<path d="M355.78 449.32C355.78 449.32 356.14 444.97 360.06 443.64C363.98 442.31 370.37 440.33 374.45 443.13C377.12 445.95 376.33 449.32 376.33 449.32H355.78Z" fill="#936757"/>
<path d="M356.15 449.35L355.4 449.29C355.42 449.1 355.82 444.68 359.93 443.28C361.47 442.76 363.14 442.22 364.94 441.83L365.1 442.56C363.34 442.94 361.69 443.47 360.18 443.99C356.55 445.23 356.17 449.18 356.16 449.35H356.15Z" fill="#5B1A31"/>
<path d="M418.38 449.48C425.2 445.31 435.89 437.64 432.52 432.28C427.67 424.58 413.77 445.88 413.77 445.88C413.77 445.88 427.41 417.18 414.75 416.16C404.23 415.31 406.22 436.75 407.2 444.03C406.15 437.52 402.77 420 397.02 422.14C389.98 424.76 403.56 447.57 403.56 447.57C403.56 447.57 391.34 427.84 384.14 432.9C379.48 436.17 389.06 445.52 398.44 449.47H418.4L418.38 449.48Z" fill="#968E29"/>
<path d="M398.4 446.93C394.22 443.86 391.06 440.62 388.73 437.02L389.36 436.61C391.63 440.13 394.73 443.31 398.84 446.32L398.4 446.93Z" fill="#5B1A31"/>
<path d="M409.28 449.63L408.57 449.39C411.66 440.1 413.43 430.26 413.83 420.13L414.58 420.16C414.17 430.36 412.39 440.27 409.28 449.63Z" fill="#5B1A31"/>
<path d="M405.9 449.571C402.73 442.111 400.36 434.741 398.85 427.671L399.58 427.511C401.08 434.531 403.44 441.851 406.58 449.271L405.89 449.561L405.9 449.571Z" fill="#5B1A31"/>
<path d="M417.45 446.44L416.99 445.85C417.06 445.8 424.05 440.33 427.98 435.29L428.57 435.75C424.58 440.86 417.52 446.38 417.45 446.44Z" fill="#5B1A31"/>
<path d="M215.59 191.85C214.22 193.49 218.82 203.92 229.62 206.65H244.35C251.62 204.34 260.91 193.09 258.38 191.85C255.85 190.61 216.95 190.21 215.58 191.85H215.59Z" fill="#0067F9"/>
<path d="M267.81 227.4C266.88 228 266.15 228.77 265.78 229.83C265.59 230.37 265.5 230.94 265.51 231.5C265.51 231.79 265.54 232.08 265.6 232.37C265.64 232.58 265.68 232.98 265.85 233.12C266.14 233.36 266.72 233.04 266.97 232.88C267.3 232.68 267.59 232.41 267.85 232.13C268.33 231.62 268.7 231.01 269.01 230.38C269.38 229.62 269.75 228.65 269.66 227.8C269.63 227.51 269.56 227.15 269.36 226.92C269.15 226.68 268.83 226.8 268.6 226.92C268.34 227.06 268.07 227.22 267.8 227.39L267.81 227.4Z" fill="#968E29"/>
<path d="M270.9 226.34C272.01 226.29 273.05 226.49 273.97 227.14C274.43 227.47 274.84 227.88 275.16 228.35C275.33 228.59 275.47 228.84 275.59 229.11C275.68 229.31 275.88 229.65 275.82 229.87C275.73 230.23 275.07 230.31 274.77 230.33C274.39 230.35 274 230.31 273.62 230.23C272.93 230.09 272.27 229.81 271.66 229.47C270.92 229.07 270.05 228.49 269.63 227.74C269.49 227.49 269.34 227.15 269.36 226.85C269.39 226.53 269.72 226.44 269.98 226.41C270.28 226.37 270.59 226.34 270.9 226.33V226.34Z" fill="#968E29"/>
<path d="M263.31 220.73C262.47 221.46 261.86 222.32 261.65 223.43C261.54 223.99 261.54 224.56 261.63 225.12C261.68 225.41 261.75 225.69 261.85 225.96C261.92 226.16 262.02 226.55 262.21 226.67C262.53 226.87 263.06 226.47 263.29 226.27C263.58 226.02 263.83 225.72 264.05 225.4C264.45 224.82 264.73 224.17 264.94 223.5C265.19 222.7 265.42 221.68 265.21 220.85C265.14 220.57 265.01 220.22 264.79 220.02C264.55 219.81 264.25 219.97 264.04 220.13C263.8 220.31 263.56 220.5 263.32 220.71L263.31 220.73Z" fill="#968E29"/>
<path d="M266.21 219.23C267.3 219.02 268.36 219.06 269.36 219.58C269.87 219.84 270.33 220.19 270.71 220.6C270.91 220.81 271.09 221.04 271.24 221.29C271.36 221.47 271.6 221.78 271.58 222.01C271.54 222.38 270.9 222.56 270.61 222.62C270.23 222.7 269.84 222.71 269.46 222.69C268.76 222.65 268.07 222.47 267.41 222.23C266.62 221.94 265.68 221.5 265.15 220.82C264.97 220.59 264.77 220.28 264.76 219.98C264.74 219.66 265.05 219.53 265.31 219.46C265.6 219.38 265.9 219.31 266.21 219.25V219.23Z" fill="#968E29"/>
<path d="M259.44 212.58C258.51 213.19 257.78 213.95 257.41 215.02C257.23 215.56 257.14 216.13 257.15 216.69C257.15 216.98 257.19 217.27 257.24 217.55C257.28 217.76 257.32 218.16 257.5 218.3C257.79 218.54 258.37 218.22 258.62 218.06C258.95 217.86 259.24 217.59 259.5 217.31C259.98 216.79 260.35 216.18 260.65 215.55C261.02 214.79 261.39 213.82 261.3 212.96C261.27 212.67 261.19 212.31 261 212.08C260.79 211.84 260.47 211.96 260.24 212.08C259.98 212.22 259.71 212.38 259.44 212.55V212.58Z" fill="#968E29"/>
<path d="M262.519 211.5C263.629 211.45 264.669 211.64 265.589 212.29C266.049 212.62 266.459 213.03 266.779 213.49C266.949 213.73 267.089 213.98 267.209 214.25C267.299 214.44 267.499 214.79 267.439 215.01C267.349 215.37 266.689 215.45 266.389 215.47C266.009 215.5 265.619 215.45 265.239 215.37C264.549 215.23 263.889 214.95 263.279 214.62C262.539 214.22 261.669 213.65 261.239 212.9C261.099 212.65 260.939 212.31 260.969 212.01C260.999 211.69 261.329 211.6 261.589 211.57C261.889 211.53 262.199 211.5 262.509 211.49L262.519 211.5Z" fill="#968E29"/>
<path d="M258.83 203C257.81 203.45 256.97 204.09 256.44 205.08C256.17 205.58 255.99 206.13 255.91 206.69C255.87 206.98 255.85 207.27 255.86 207.56C255.86 207.77 255.84 208.17 255.99 208.34C256.24 208.62 256.86 208.4 257.14 208.28C257.49 208.13 257.82 207.92 258.12 207.68C258.67 207.25 259.14 206.71 259.54 206.13C260.02 205.44 260.54 204.54 260.59 203.68C260.61 203.39 260.59 203.02 260.43 202.77C260.26 202.5 259.93 202.56 259.68 202.65C259.4 202.75 259.11 202.86 258.82 202.99L258.83 203Z" fill="#968E29"/>
<path d="M262.05 202.44C263.16 202.57 264.15 202.92 264.95 203.71C265.35 204.11 265.69 204.58 265.94 205.09C266.07 205.35 266.17 205.62 266.24 205.91C266.3 206.12 266.44 206.49 266.35 206.7C266.2 207.04 265.54 207.02 265.24 206.99C264.86 206.95 264.48 206.85 264.12 206.71C263.46 206.46 262.86 206.08 262.3 205.66C261.63 205.14 260.87 204.44 260.57 203.64C260.47 203.37 260.37 203.01 260.45 202.72C260.53 202.41 260.87 202.37 261.13 202.38C261.43 202.39 261.74 202.41 262.05 202.45V202.44Z" fill="#968E29"/>
<path d="M257.24 194.42C256.36 195.1 255.69 195.92 255.41 197.01C255.27 197.56 255.22 198.13 255.28 198.7C255.31 198.99 255.36 199.28 255.44 199.56C255.5 199.77 255.57 200.16 255.75 200.29C256.06 200.51 256.61 200.14 256.85 199.96C257.16 199.73 257.43 199.45 257.66 199.14C258.09 198.59 258.42 197.95 258.67 197.3C258.98 196.51 259.27 195.52 259.11 194.67C259.06 194.38 258.95 194.03 258.74 193.82C258.51 193.6 258.21 193.74 257.98 193.88C257.73 194.04 257.47 194.22 257.22 194.41L257.24 194.42Z" fill="#968E29"/>
<path d="M260.24 193.11C261.34 192.97 262.39 193.09 263.36 193.66C263.85 193.95 264.28 194.33 264.64 194.77C264.82 194.99 264.99 195.24 265.13 195.49C265.23 195.68 265.46 196.01 265.42 196.23C265.36 196.6 264.71 196.73 264.41 196.77C264.03 196.82 263.64 196.81 263.26 196.77C262.56 196.68 261.88 196.46 261.25 196.17C260.48 195.83 259.57 195.32 259.09 194.61C258.93 194.37 258.75 194.04 258.75 193.75C258.75 193.43 259.07 193.32 259.33 193.26C259.62 193.2 259.93 193.15 260.24 193.11Z" fill="#968E29"/>
<path d="M270.66 233.4L269.94 233.2C270.83 229.94 269.11 226.54 267.52 224.25C266.92 223.38 266.25 222.53 265.6 221.7C264.23 219.94 262.81 218.13 261.87 216.05C260.33 212.61 260.24 208.75 260.15 205.01C260.06 201.09 259.96 197.03 258.15 193.6C257.32 192.04 256.3 190.96 255.1 190.38C253.87 189.79 251.73 189.98 250.4 191.32L249.87 190.79C251.45 189.19 253.94 188.98 255.43 189.7C256.77 190.35 257.91 191.54 258.81 193.24C260.71 196.82 260.81 200.97 260.9 204.98C260.99 208.64 261.07 212.43 262.55 215.73C263.44 217.73 264.84 219.51 266.18 221.23C266.83 222.07 267.51 222.93 268.13 223.81C269.82 226.23 271.63 229.85 270.66 233.39V233.4Z" fill="#5B1A31"/>
<path d="M263.53 281.24C262.49 281.64 261.62 282.23 261.04 283.19C260.75 283.68 260.54 284.21 260.43 284.77C260.37 285.05 260.34 285.34 260.34 285.64C260.34 285.85 260.29 286.25 260.43 286.43C260.66 286.72 261.3 286.54 261.58 286.43C261.94 286.3 262.28 286.1 262.59 285.88C263.16 285.48 263.66 284.96 264.09 284.41C264.61 283.74 265.17 282.87 265.27 282.02C265.3 281.73 265.3 281.36 265.16 281.1C265.01 280.82 264.67 280.87 264.41 280.95C264.12 281.04 263.83 281.13 263.53 281.24Z" fill="#828219"/>
<path d="M265.87 275.22C264.76 275.19 263.72 275.4 262.82 276.06C262.36 276.4 261.96 276.81 261.65 277.28C261.49 277.52 261.35 277.78 261.23 278.04C261.15 278.24 260.95 278.58 261.01 278.8C261.11 279.16 261.77 279.23 262.07 279.25C262.45 279.27 262.84 279.22 263.22 279.13C263.9 278.98 264.56 278.69 265.17 278.35C265.9 277.94 266.76 277.35 267.18 276.6C267.32 276.35 267.46 276 267.43 275.71C267.4 275.39 267.07 275.31 266.8 275.28C266.5 275.25 266.19 275.22 265.88 275.21L265.87 275.22Z" fill="#828219"/>
<path d="M269.009 276.1C269.949 276.69 270.689 277.44 271.079 278.5C271.269 279.03 271.369 279.6 271.369 280.17C271.369 280.46 271.339 280.75 271.289 281.04C271.249 281.25 271.219 281.65 271.049 281.8C270.769 282.04 270.179 281.74 269.919 281.58C269.589 281.38 269.299 281.12 269.029 280.85C268.549 280.34 268.159 279.74 267.849 279.11C267.469 278.36 267.079 277.39 267.159 276.54C267.189 276.25 267.259 275.89 267.449 275.66C267.649 275.42 267.969 275.53 268.209 275.66C268.469 275.8 268.749 275.95 269.009 276.12V276.1Z" fill="#828219"/>
<path d="M232.43 262.24C231.32 262.2 230.28 262.41 229.37 263.07C228.91 263.4 228.51 263.82 228.19 264.29C228.03 264.53 227.89 264.79 227.77 265.05C227.68 265.25 227.49 265.59 227.55 265.81C227.65 266.17 228.31 266.24 228.61 266.26C228.99 266.28 229.38 266.23 229.76 266.15C230.45 266 231.1 265.72 231.71 265.38C232.45 264.97 233.31 264.39 233.73 263.64C233.87 263.39 234.02 263.05 233.99 262.75C233.96 262.43 233.63 262.35 233.36 262.32C233.06 262.29 232.75 262.26 232.44 262.25L232.43 262.24Z" fill="#828219"/>
<path d="M235.57 263.14C236.51 263.73 237.25 264.49 237.63 265.55C237.82 266.08 237.92 266.65 237.92 267.22C237.92 267.51 237.89 267.8 237.84 268.09C237.8 268.3 237.77 268.7 237.59 268.85C237.31 269.09 236.72 268.78 236.46 268.62C236.13 268.42 235.84 268.16 235.58 267.88C235.1 267.37 234.72 266.77 234.4 266.14C234.02 265.39 233.64 264.42 233.72 263.56C233.75 263.27 233.82 262.91 234.01 262.68C234.21 262.44 234.54 262.55 234.77 262.68C235.03 262.82 235.31 262.97 235.57 263.14Z" fill="#828219"/>
<path d="M235.02 251.44C233.95 251.75 233.03 252.27 232.37 253.18C232.04 253.64 231.78 254.16 231.63 254.7C231.55 254.98 231.49 255.27 231.47 255.55C231.45 255.76 231.37 256.15 231.49 256.35C231.69 256.66 232.34 256.53 232.63 256.45C233 256.35 233.36 256.18 233.69 255.99C234.3 255.64 234.83 255.16 235.31 254.65C235.88 254.03 236.52 253.21 236.69 252.37C236.75 252.09 236.78 251.72 236.66 251.44C236.53 251.15 236.19 251.17 235.93 251.22C235.64 251.28 235.33 251.35 235.03 251.44H235.02Z" fill="#828219"/>
<path d="M238.28 251.321C239.36 251.591 240.29 252.081 240.98 252.971C241.33 253.421 241.6 253.931 241.77 254.471C241.86 254.751 241.92 255.031 241.96 255.321C241.99 255.531 242.08 255.92 241.96 256.12C241.76 256.44 241.11 256.321 240.82 256.261C240.45 256.171 240.09 256.021 239.75 255.831C239.13 255.491 238.58 255.04 238.09 254.54C237.5 253.94 236.84 253.141 236.65 252.301C236.59 252.021 236.54 251.65 236.65 251.37C236.77 251.08 237.11 251.081 237.37 251.131C237.66 251.181 237.97 251.241 238.28 251.321Z" fill="#828219"/>
<path d="M233.66 238.48C232.63 238.9 231.77 239.51 231.2 240.48C230.92 240.97 230.72 241.51 230.62 242.07C230.57 242.36 230.54 242.65 230.55 242.94C230.55 243.15 230.51 243.55 230.66 243.73C230.9 244.02 231.53 243.82 231.81 243.71C232.17 243.57 232.5 243.37 232.81 243.14C233.38 242.72 233.86 242.2 234.28 241.64C234.79 240.97 235.34 240.08 235.41 239.23C235.44 238.94 235.43 238.57 235.28 238.31C235.12 238.03 234.79 238.09 234.53 238.17C234.24 238.26 233.95 238.36 233.66 238.48Z" fill="#828219"/>
<path d="M236.89 238.02C237.99 238.18 238.97 238.57 239.75 239.39C240.14 239.8 240.46 240.28 240.69 240.8C240.81 241.07 240.9 241.34 240.97 241.62C241.02 241.83 241.15 242.21 241.05 242.41C240.89 242.75 240.23 242.7 239.93 242.66C239.55 242.61 239.18 242.49 238.82 242.34C238.17 242.07 237.58 241.67 237.04 241.23C236.39 240.69 235.65 239.96 235.37 239.15C235.28 238.88 235.19 238.51 235.28 238.23C235.37 237.93 235.71 237.9 235.97 237.92C236.27 237.94 236.58 237.97 236.89 238.02Z" fill="#828219"/>
<path d="M201.65 242.63C200.54 242.65 199.52 242.92 198.64 243.63C198.2 243.99 197.82 244.42 197.53 244.91C197.38 245.16 197.25 245.42 197.15 245.69C197.08 245.89 196.9 246.25 196.97 246.46C197.09 246.82 197.75 246.85 198.05 246.85C198.43 246.85 198.82 246.78 199.19 246.68C199.87 246.49 200.51 246.17 201.1 245.8C201.81 245.35 202.64 244.72 203.02 243.95C203.15 243.69 203.27 243.34 203.23 243.05C203.18 242.74 202.85 242.67 202.58 242.65C202.28 242.63 201.97 242.62 201.65 242.63Z" fill="#828219"/>
<path d="M204.84 243.36C205.81 243.9 206.59 244.62 207.03 245.65C207.25 246.17 207.38 246.74 207.41 247.3C207.42 247.59 207.41 247.88 207.37 248.17C207.34 248.38 207.33 248.78 207.17 248.94C206.9 249.2 206.3 248.92 206.03 248.78C205.69 248.6 205.38 248.36 205.11 248.09C204.6 247.61 204.19 247.02 203.84 246.42C203.42 245.69 202.99 244.74 203.02 243.88C203.03 243.59 203.08 243.22 203.26 242.98C203.45 242.73 203.78 242.82 204.02 242.93C204.29 243.06 204.57 243.19 204.85 243.35L204.84 243.36Z" fill="#828219"/>
<path d="M203.52 232.361C202.42 232.511 201.43 232.891 200.65 233.701C200.25 234.111 199.93 234.581 199.7 235.101C199.58 235.361 199.49 235.641 199.42 235.921C199.37 236.131 199.23 236.501 199.33 236.711C199.49 237.051 200.15 237.011 200.45 236.971C200.83 236.921 201.21 236.811 201.56 236.661C202.21 236.401 202.81 236.001 203.35 235.561C204 235.031 204.75 234.311 205.04 233.501C205.14 233.231 205.22 232.861 205.14 232.581C205.05 232.271 204.72 232.241 204.45 232.261C204.15 232.281 203.84 232.301 203.53 232.351L203.52 232.361Z" fill="#828219"/>
<path d="M206.769 232.711C207.799 233.131 208.649 233.751 209.209 234.731C209.489 235.221 209.679 235.771 209.779 236.331C209.829 236.621 209.849 236.911 209.849 237.201C209.849 237.411 209.879 237.811 209.739 237.991C209.499 238.281 208.869 238.071 208.589 237.961C208.229 237.821 207.899 237.611 207.589 237.381C207.029 236.961 206.549 236.431 206.129 235.871C205.629 235.191 205.089 234.301 205.019 233.451C204.999 233.161 205.009 232.791 205.159 232.531C205.319 232.261 205.659 232.311 205.909 232.401C206.189 232.491 206.489 232.601 206.779 232.721L206.769 232.711Z" fill="#828219"/>
<path d="M203.49 217.861C202.46 218.271 201.59 218.881 201.02 219.851C200.73 220.341 200.53 220.881 200.43 221.441C200.38 221.731 200.35 222.021 200.35 222.311C200.35 222.521 200.31 222.921 200.45 223.101C200.68 223.391 201.32 223.191 201.6 223.091C201.96 222.951 202.3 222.751 202.61 222.531C203.18 222.121 203.66 221.591 204.09 221.041C204.6 220.371 205.15 219.491 205.23 218.631C205.26 218.341 205.25 217.971 205.11 217.711C204.95 217.431 204.62 217.491 204.36 217.571C204.07 217.661 203.78 217.761 203.49 217.881V217.861Z" fill="#828219"/>
<path d="M206.73 217.411C207.83 217.581 208.81 217.971 209.58 218.791C209.97 219.201 210.29 219.681 210.51 220.201C210.63 220.471 210.72 220.741 210.78 221.031C210.83 221.241 210.96 221.621 210.86 221.821C210.7 222.161 210.04 222.111 209.74 222.071C209.36 222.021 208.99 221.901 208.63 221.751C207.98 221.481 207.39 221.081 206.85 220.631C206.2 220.091 205.46 219.361 205.19 218.541C205.1 218.261 205.02 217.901 205.1 217.621C205.19 217.321 205.53 217.291 205.8 217.311C206.1 217.331 206.41 217.361 206.72 217.411H206.73Z" fill="#828219"/>
<path d="M204.76 203.2C203.65 203.28 202.64 203.59 201.8 204.34C201.38 204.72 201.02 205.17 200.75 205.67C200.61 205.93 200.5 206.19 200.41 206.47C200.35 206.67 200.18 207.04 200.27 207.25C200.4 207.6 201.07 207.6 201.37 207.59C201.75 207.57 202.14 207.48 202.5 207.36C203.17 207.14 203.79 206.79 204.36 206.39C205.05 205.9 205.85 205.24 206.18 204.45C206.29 204.18 206.4 203.83 206.34 203.54C206.28 203.23 205.94 203.18 205.67 203.17C205.37 203.17 205.06 203.17 204.74 203.19L204.76 203.2Z" fill="#828219"/>
<path d="M207.98 203.77C208.98 204.26 209.79 204.94 210.28 205.96C210.53 206.47 210.68 207.03 210.74 207.59C210.77 207.88 210.77 208.17 210.74 208.46C210.72 208.67 210.74 209.07 210.57 209.24C210.31 209.51 209.7 209.26 209.43 209.13C209.08 208.97 208.76 208.74 208.47 208.49C207.94 208.03 207.5 207.47 207.12 206.88C206.67 206.17 206.19 205.25 206.18 204.39C206.18 204.1 206.21 203.73 206.38 203.48C206.56 203.22 206.89 203.3 207.14 203.4C207.42 203.51 207.7 203.64 207.99 203.78L207.98 203.77Z" fill="#828219"/>
<path d="M212.54 190.741C211.47 190.451 210.41 190.431 209.37 190.871C208.85 191.091 208.36 191.411 207.95 191.791C207.74 191.991 207.54 192.211 207.37 192.441C207.24 192.611 206.97 192.911 206.98 193.131C206.99 193.501 207.62 193.721 207.91 193.801C208.28 193.911 208.67 193.941 209.05 193.951C209.75 193.951 210.45 193.831 211.13 193.631C211.94 193.391 212.91 193.021 213.48 192.381C213.67 192.161 213.89 191.861 213.93 191.571C213.97 191.261 213.67 191.101 213.42 191.011C213.14 190.911 212.84 190.821 212.54 190.731V190.741Z" fill="#828219"/>
<path d="M215.4 192.311C216.18 193.101 216.73 194.001 216.87 195.121C216.94 195.681 216.9 196.261 216.78 196.811C216.71 197.091 216.62 197.371 216.51 197.641C216.42 197.841 216.3 198.221 216.1 198.321C215.77 198.491 215.27 198.061 215.05 197.851C214.77 197.581 214.55 197.261 214.35 196.931C213.99 196.321 213.76 195.651 213.59 194.971C213.39 194.151 213.24 193.121 213.5 192.311C213.59 192.031 213.74 191.701 213.98 191.521C214.23 191.331 214.52 191.521 214.72 191.691C214.95 191.891 215.18 192.101 215.4 192.321V192.311Z" fill="#828219"/>
<path d="M228.94 227.28C228.04 227.94 227.36 228.74 227.05 229.83C226.9 230.38 226.84 230.95 226.88 231.52C226.9 231.81 226.95 232.1 227.02 232.38C227.07 232.59 227.13 232.98 227.32 233.12C227.62 233.34 228.18 232.99 228.43 232.82C228.74 232.6 229.02 232.32 229.26 232.02C229.71 231.48 230.04 230.85 230.31 230.2C230.63 229.42 230.95 228.43 230.81 227.58C230.76 227.29 230.67 226.94 230.46 226.72C230.24 226.49 229.93 226.63 229.7 226.77C229.45 226.93 229.19 227.1 228.93 227.29L228.94 227.28Z" fill="#828219"/>
<path d="M231.96 226.04C233.07 225.92 234.11 226.06 235.07 226.66C235.55 226.96 235.98 227.35 236.33 227.79C236.51 228.02 236.67 228.26 236.8 228.52C236.9 228.71 237.12 229.04 237.08 229.27C237.01 229.64 236.35 229.76 236.06 229.79C235.68 229.84 235.29 229.81 234.91 229.76C234.22 229.66 233.54 229.42 232.91 229.12C232.15 228.76 231.25 228.24 230.78 227.52C230.62 227.28 230.45 226.95 230.46 226.65C230.46 226.33 230.79 226.22 231.05 226.18C231.34 226.13 231.65 226.08 231.97 226.04H231.96Z" fill="#828219"/>
<path d="M224.57 216.08C223.64 216.74 222.94 217.54 222.62 218.63C222.46 219.18 222.4 219.75 222.44 220.32C222.46 220.61 222.51 220.9 222.59 221.18C222.65 221.39 222.71 221.78 222.9 221.92C223.21 222.14 223.79 221.79 224.05 221.62C224.37 221.4 224.66 221.12 224.91 220.82C225.37 220.28 225.72 219.65 226 219C226.33 218.22 226.66 217.23 226.52 216.38C226.47 216.09 226.37 215.73 226.16 215.52C225.93 215.29 225.61 215.43 225.38 215.57C225.12 215.73 224.85 215.9 224.59 216.09L224.57 216.08Z" fill="#828219"/>
<path d="M227.69 214.84C228.83 214.72 229.92 214.86 230.9 215.46C231.4 215.76 231.84 216.15 232.2 216.59C232.38 216.82 232.55 217.06 232.69 217.32C232.79 217.51 233.02 217.84 232.97 218.07C232.89 218.44 232.22 218.56 231.91 218.59C231.52 218.64 231.11 218.61 230.72 218.56C230 218.46 229.31 218.22 228.65 217.92C227.86 217.56 226.93 217.04 226.45 216.32C226.29 216.08 226.11 215.75 226.12 215.45C226.13 215.13 226.46 215.02 226.73 214.98C227.03 214.93 227.35 214.88 227.68 214.84H227.69Z" fill="#828219"/>
<path d="M224.11 203.931C222.99 204.121 222.01 204.551 221.25 205.391C220.87 205.811 220.57 206.311 220.37 206.841C220.27 207.111 220.19 207.391 220.13 207.681C220.09 207.891 219.98 208.271 220.09 208.481C220.27 208.811 220.95 208.751 221.25 208.701C221.64 208.641 222.01 208.511 222.37 208.351C223.02 208.061 223.61 207.641 224.13 207.181C224.77 206.621 225.49 205.871 225.72 205.041C225.8 204.761 225.86 204.391 225.76 204.111C225.65 203.811 225.3 203.791 225.03 203.821C224.73 203.851 224.41 203.891 224.09 203.941L224.11 203.931Z" fill="#828219"/>
<path d="M227.459 204.15C228.539 204.54 229.459 205.13 230.089 206.09C230.409 206.58 230.639 207.11 230.779 207.67C230.849 207.96 230.889 208.25 230.909 208.54C230.919 208.76 230.979 209.15 230.849 209.34C230.619 209.64 229.959 209.45 229.669 209.36C229.289 209.23 228.939 209.04 228.609 208.82C228.009 208.42 227.479 207.9 227.019 207.35C226.459 206.69 225.849 205.82 225.719 204.96C225.679 204.67 225.659 204.3 225.799 204.03C225.949 203.75 226.289 203.79 226.559 203.87C226.859 203.95 227.169 204.05 227.469 204.16L227.459 204.15Z" fill="#828219"/>
<path d="M228.47 192.43C227.33 192.38 226.28 192.58 225.37 193.24C224.91 193.57 224.51 193.99 224.19 194.46C224.03 194.7 223.89 194.96 223.78 195.23C223.7 195.43 223.5 195.78 223.57 196C223.68 196.37 224.35 196.45 224.66 196.47C225.05 196.49 225.45 196.45 225.83 196.37C226.53 196.23 227.19 195.95 227.81 195.61C228.55 195.2 229.42 194.62 229.83 193.87C229.97 193.61 230.11 193.27 230.07 192.97C230.03 192.65 229.69 192.56 229.42 192.53C229.12 192.49 228.8 192.46 228.48 192.45L228.47 192.43Z" fill="#828219"/>
<path d="M231.69 193.37C232.66 193.98 233.43 194.76 233.84 195.83C234.05 196.37 234.16 196.95 234.17 197.52C234.17 197.81 234.15 198.11 234.1 198.4C234.06 198.61 234.04 199.02 233.86 199.16C233.58 199.4 232.97 199.08 232.71 198.92C232.37 198.71 232.07 198.45 231.79 198.16C231.29 197.64 230.88 197.02 230.55 196.38C230.15 195.61 229.74 194.63 229.8 193.76C229.82 193.47 229.89 193.1 230.08 192.87C230.28 192.63 230.61 192.74 230.86 192.87C231.13 193.02 231.41 193.17 231.69 193.35V193.37Z" fill="#828219"/>
<path d="M267.1 265.21C266.01 265.41 265.04 265.84 264.3 266.69C263.92 267.12 263.62 267.61 263.42 268.14C263.31 268.41 263.23 268.69 263.18 268.97C263.14 269.18 263.02 269.56 263.13 269.76C263.3 270.09 263.96 270.02 264.26 269.97C264.64 269.91 265.01 269.77 265.36 269.61C266 269.31 266.58 268.9 267.1 268.43C267.73 267.87 268.44 267.11 268.69 266.29C268.77 266.01 268.84 265.65 268.75 265.36C268.65 265.06 268.31 265.05 268.04 265.07C267.74 265.1 267.43 265.14 267.12 265.2L267.1 265.21Z" fill="#828219"/>
<path d="M270.36 265.399C271.41 265.779 272.29 266.349 272.89 267.299C273.19 267.779 273.41 268.309 273.53 268.869C273.59 269.149 273.63 269.439 273.64 269.729C273.64 269.939 273.7 270.339 273.56 270.519C273.34 270.819 272.7 270.639 272.41 270.549C272.05 270.429 271.7 270.239 271.39 270.019C270.81 269.629 270.3 269.119 269.86 268.579C269.33 267.929 268.75 267.069 268.64 266.209C268.6 265.919 268.59 265.549 268.73 265.289C268.88 265.009 269.21 265.049 269.47 265.119C269.76 265.199 270.06 265.289 270.35 265.399H270.36Z" fill="#828219"/>
<path d="M263.5 255.36C262.65 256.07 262.02 256.92 261.78 258.02C261.66 258.58 261.64 259.15 261.72 259.71C261.76 260 261.83 260.28 261.92 260.56C261.99 260.76 262.07 261.15 262.26 261.28C262.57 261.48 263.11 261.1 263.35 260.91C263.65 260.67 263.9 260.37 264.13 260.06C264.54 259.49 264.84 258.84 265.06 258.18C265.33 257.38 265.58 256.37 265.39 255.54C265.33 255.26 265.21 254.91 264.99 254.71C264.76 254.5 264.45 254.65 264.24 254.81C264 254.98 263.75 255.17 263.51 255.37L263.5 255.36Z" fill="#828219"/>
<path d="M266.44 253.92C267.54 253.73 268.59 253.8 269.58 254.34C270.08 254.61 270.53 254.97 270.91 255.39C271.1 255.61 271.28 255.84 271.43 256.09C271.54 256.27 271.78 256.59 271.75 256.82C271.7 257.19 271.06 257.35 270.76 257.41C270.38 257.48 269.99 257.48 269.61 257.45C268.91 257.39 268.22 257.2 267.57 256.94C266.79 256.63 265.85 256.17 265.34 255.48C265.17 255.25 264.98 254.93 264.97 254.63C264.96 254.31 265.27 254.18 265.53 254.12C265.82 254.05 266.12 253.98 266.44 253.93V253.92Z" fill="#828219"/>
<path d="M257.04 246.61C256.19 247.32 255.56 248.17 255.32 249.27C255.2 249.83 255.18 250.4 255.26 250.96C255.3 251.25 255.37 251.53 255.46 251.81C255.53 252.01 255.61 252.4 255.81 252.53C256.12 252.73 256.66 252.35 256.9 252.16C257.2 251.92 257.46 251.62 257.68 251.31C258.09 250.74 258.39 250.09 258.61 249.43C258.88 248.63 259.13 247.62 258.94 246.79C258.88 246.51 258.76 246.16 258.54 245.96C258.31 245.75 258 245.9 257.79 246.06C257.55 246.23 257.3 246.42 257.06 246.62L257.04 246.61Z" fill="#828219"/>
<path d="M259.97 245.17C261.07 244.98 262.12 245.05 263.11 245.59C263.61 245.86 264.06 246.22 264.44 246.64C264.63 246.86 264.81 247.09 264.96 247.34C265.07 247.52 265.31 247.84 265.28 248.07C265.23 248.44 264.59 248.6 264.29 248.66C263.91 248.73 263.52 248.73 263.14 248.7C262.44 248.64 261.75 248.45 261.1 248.19C260.32 247.88 259.38 247.42 258.87 246.73C258.7 246.5 258.51 246.18 258.5 245.88C258.49 245.56 258.8 245.43 259.06 245.37C259.35 245.3 259.65 245.23 259.97 245.18V245.17Z" fill="#828219"/>
<path d="M251.9 236.021C250.93 236.571 250.16 237.291 249.73 238.331C249.51 238.861 249.39 239.421 249.37 239.991C249.36 240.281 249.37 240.571 249.41 240.861C249.44 241.071 249.45 241.471 249.62 241.631C249.89 241.891 250.49 241.601 250.76 241.461C251.1 241.281 251.4 241.031 251.68 240.761C252.18 240.271 252.59 239.691 252.93 239.081C253.34 238.341 253.77 237.401 253.73 236.541C253.72 236.251 253.66 235.881 253.48 235.651C253.29 235.401 252.96 235.501 252.72 235.611C252.45 235.741 252.17 235.881 251.9 236.031V236.021Z" fill="#828219"/>
<path d="M255.04 235.141C256.15 235.151 257.18 235.411 258.06 236.111C258.5 236.461 258.88 236.901 259.18 237.381C259.33 237.631 259.46 237.891 259.56 238.161C259.64 238.361 259.82 238.721 259.75 238.931C259.64 239.291 258.97 239.331 258.67 239.331C258.29 239.331 257.9 239.271 257.53 239.171C256.85 238.991 256.21 238.681 255.62 238.311C254.9 237.871 254.07 237.241 253.69 236.471C253.56 236.211 253.43 235.861 253.47 235.571C253.52 235.261 253.85 235.181 254.12 235.171C254.42 235.151 254.73 235.141 255.05 235.141H255.04Z" fill="#828219"/>
<path d="M251.95 222.841C250.86 223.041 249.89 223.471 249.15 224.321C248.77 224.751 248.47 225.241 248.26 225.771C248.15 226.041 248.07 226.321 248.02 226.601C247.98 226.811 247.86 227.191 247.97 227.391C248.14 227.721 248.8 227.651 249.1 227.601C249.48 227.541 249.85 227.401 250.2 227.241C250.84 226.941 251.42 226.531 251.94 226.061C252.57 225.501 253.28 224.741 253.53 223.921C253.61 223.641 253.68 223.281 253.59 222.991C253.49 222.691 253.15 222.681 252.88 222.701C252.58 222.731 252.27 222.771 251.96 222.831L251.95 222.841Z" fill="#828219"/>
<path d="M255.209 223.031C256.259 223.411 257.139 223.981 257.739 224.941C258.039 225.421 258.259 225.951 258.379 226.511C258.439 226.791 258.479 227.081 258.489 227.371C258.489 227.581 258.549 227.981 258.409 228.161C258.189 228.461 257.549 228.281 257.259 228.191C256.899 228.071 256.549 227.881 256.239 227.661C255.659 227.271 255.149 226.761 254.709 226.221C254.179 225.571 253.599 224.701 253.489 223.851C253.449 223.561 253.439 223.191 253.579 222.931C253.729 222.651 254.059 222.691 254.319 222.761C254.609 222.841 254.909 222.931 255.199 223.041L255.209 223.031Z" fill="#828219"/>
<path d="M253.66 210.24C252.57 210.44 251.6 210.87 250.86 211.72C250.48 212.15 250.18 212.64 249.97 213.17C249.86 213.44 249.78 213.72 249.73 214C249.69 214.21 249.57 214.59 249.68 214.79C249.85 215.12 250.51 215.05 250.81 215C251.19 214.94 251.56 214.8 251.91 214.64C252.55 214.34 253.13 213.93 253.65 213.46C254.28 212.9 254.99 212.14 255.24 211.32C255.32 211.04 255.39 210.68 255.3 210.39C255.2 210.09 254.86 210.08 254.59 210.1C254.29 210.13 253.98 210.17 253.67 210.23L253.66 210.24Z" fill="#828219"/>
<path d="M256.919 210.44C257.969 210.82 258.849 211.39 259.449 212.35C259.749 212.83 259.969 213.36 260.089 213.92C260.149 214.2 260.189 214.49 260.199 214.78C260.199 214.99 260.259 215.39 260.119 215.57C259.899 215.87 259.259 215.69 258.969 215.6C258.609 215.48 258.259 215.29 257.949 215.07C257.369 214.68 256.859 214.17 256.419 213.63C255.889 212.98 255.309 212.11 255.199 211.26C255.159 210.97 255.149 210.6 255.289 210.34C255.439 210.06 255.769 210.1 256.029 210.17C256.319 210.25 256.619 210.34 256.909 210.45L256.919 210.44Z" fill="#828219"/>
<path d="M252.2 199.39C251.23 199.93 250.45 200.65 250.01 201.68C249.79 202.2 249.66 202.76 249.63 203.33C249.62 203.62 249.63 203.91 249.66 204.2C249.69 204.41 249.7 204.81 249.86 204.97C250.13 205.23 250.73 204.95 251 204.81C251.34 204.63 251.65 204.39 251.92 204.12C252.43 203.64 252.84 203.06 253.19 202.45C253.61 201.72 254.04 200.77 254.01 199.92C254 199.63 253.95 199.26 253.77 199.02C253.58 198.77 253.25 198.86 253.01 198.97C252.74 199.1 252.46 199.23 252.18 199.39H252.2Z" fill="#828219"/>
<path d="M255.36 198.53C256.47 198.55 257.49 198.82 258.37 199.53C258.81 199.89 259.19 200.32 259.48 200.81C259.63 201.06 259.76 201.32 259.86 201.59C259.93 201.79 260.11 202.15 260.04 202.37C259.92 202.72 259.26 202.76 258.96 202.76C258.58 202.76 258.19 202.69 257.82 202.59C257.14 202.4 256.5 202.08 255.91 201.71C255.2 201.26 254.37 200.63 254 199.86C253.87 199.6 253.75 199.25 253.79 198.96C253.84 198.65 254.17 198.58 254.44 198.56C254.74 198.54 255.05 198.53 255.37 198.54L255.36 198.53Z" fill="#828219"/>
<path d="M246.25 193.12C245.69 194.08 245.38 195.09 245.53 196.21C245.61 196.77 245.78 197.32 246.04 197.83C246.17 198.09 246.33 198.33 246.51 198.56C246.64 198.73 246.85 199.07 247.08 199.12C247.44 199.21 247.82 198.66 247.98 198.4C248.18 198.07 248.32 197.71 248.43 197.34C248.62 196.67 248.69 195.95 248.68 195.25C248.67 194.41 248.56 193.37 248.1 192.65C247.94 192.41 247.71 192.11 247.44 192C247.15 191.88 246.91 192.13 246.76 192.35C246.59 192.6 246.42 192.86 246.26 193.13L246.25 193.12Z" fill="#828219"/>
<path d="M248.53 190.78C249.5 190.23 250.52 189.94 251.63 190.11C252.19 190.2 252.74 190.38 253.24 190.65C253.49 190.79 253.74 190.95 253.96 191.13C254.13 191.26 254.46 191.48 254.51 191.71C254.59 192.08 254.04 192.44 253.78 192.6C253.45 192.79 253.08 192.93 252.71 193.03C252.03 193.21 251.32 193.26 250.62 193.24C249.78 193.21 248.75 193.09 248.03 192.62C247.79 192.46 247.5 192.22 247.39 191.95C247.27 191.66 247.53 191.43 247.75 191.28C248 191.11 248.26 190.95 248.54 190.79L248.53 190.78Z" fill="#828219"/>
<path d="M264.82 281.721L264.21 281.281C269.19 274.381 269.93 264.651 266.05 257.071C264.6 254.241 262.55 251.691 260.57 249.221C258.08 246.111 255.5 242.891 254.07 239.091C251.87 233.211 252.63 226.861 253.68 220.331L253.77 219.771C254.73 213.801 255.73 207.631 254.12 201.861C252.44 195.851 246.95 190.031 241 191.101L240.87 190.361C247.23 189.221 253.08 195.341 254.85 201.661C256.51 207.591 255.5 213.851 254.52 219.901L254.43 220.461C253.39 226.891 252.64 233.141 254.78 238.841C256.16 242.531 258.7 245.701 261.16 248.761C263.16 251.261 265.24 253.851 266.72 256.741C270.73 264.561 269.96 274.611 264.82 281.741V281.721Z" fill="#5B1A31"/>
<path d="M269.32 233.69C268.69 234.61 268.31 235.59 268.38 236.72C268.41 237.29 268.55 237.85 268.77 238.37C268.89 238.64 269.02 238.89 269.19 239.13C269.31 239.31 269.5 239.66 269.71 239.73C270.07 239.84 270.48 239.32 270.66 239.08C270.88 238.77 271.05 238.41 271.18 238.05C271.42 237.39 271.54 236.69 271.58 235.99C271.63 235.15 271.6 234.11 271.19 233.35C271.05 233.09 270.84 232.79 270.58 232.65C270.3 232.51 270.05 232.74 269.88 232.95C269.69 233.18 269.5 233.43 269.32 233.69Z" fill="#968E29"/>
<path d="M244.59 318.24C243.51 317.98 242.45 317.98 241.43 318.45C240.91 318.69 240.44 319.01 240.03 319.41C239.82 319.61 239.63 319.84 239.47 320.07C239.35 320.25 239.08 320.55 239.1 320.77C239.12 321.14 239.76 321.35 240.05 321.42C240.42 321.52 240.81 321.54 241.2 321.54C241.9 321.53 242.6 321.38 243.27 321.17C244.07 320.91 245.03 320.51 245.59 319.86C245.78 319.64 245.99 319.33 246.02 319.04C246.05 318.72 245.75 318.57 245.49 318.49C245.21 318.4 244.91 318.31 244.6 318.24H244.59Z" fill="#968E29"/>
<path d="M247.49 319.74C248.29 320.51 248.87 321.4 249.03 322.51C249.11 323.07 249.09 323.65 248.98 324.2C248.92 324.48 248.84 324.76 248.73 325.03C248.65 325.23 248.54 325.61 248.34 325.72C248.01 325.9 247.5 325.48 247.28 325.28C247 325.02 246.76 324.71 246.56 324.38C246.19 323.78 245.93 323.12 245.75 322.44C245.53 321.63 245.35 320.6 245.59 319.78C245.67 319.5 245.82 319.16 246.05 318.97C246.3 318.77 246.59 318.95 246.8 319.12C247.03 319.31 247.27 319.51 247.5 319.73L247.49 319.74Z" fill="#968E29"/>
<path d="M249 310.52C247.91 310.29 246.86 310.32 245.84 310.81C245.33 311.06 244.86 311.4 244.47 311.81C244.27 312.02 244.09 312.25 243.92 312.49C243.8 312.67 243.55 312.98 243.57 313.2C243.6 313.57 244.24 313.76 244.53 313.83C244.9 313.92 245.3 313.94 245.68 313.92C246.38 313.89 247.08 313.73 247.74 313.49C248.54 313.21 249.48 312.79 250.03 312.12C250.21 311.89 250.42 311.58 250.44 311.29C250.46 310.97 250.15 310.83 249.9 310.76C249.61 310.68 249.31 310.6 249 310.53V310.52Z" fill="#968E29"/>
<path d="M251.94 311.95C252.76 312.7 253.36 313.57 253.55 314.68C253.65 315.24 253.64 315.82 253.55 316.37C253.5 316.66 253.42 316.94 253.32 317.21C253.24 317.41 253.14 317.8 252.95 317.91C252.63 318.1 252.11 317.69 251.88 317.49C251.59 317.24 251.35 316.93 251.14 316.61C250.75 316.02 250.48 315.36 250.28 314.69C250.04 313.88 249.83 312.86 250.06 312.03C250.14 311.75 250.27 311.4 250.5 311.21C250.74 311.01 251.04 311.17 251.25 311.34C251.49 311.52 251.73 311.72 251.96 311.93L251.94 311.95Z" fill="#968E29"/>
<path d="M248.99 300.14C247.95 300.54 247.08 301.14 246.5 302.1C246.21 302.59 246 303.13 245.89 303.68C245.83 303.97 245.8 304.26 245.8 304.55C245.8 304.76 245.75 305.16 245.89 305.34C246.12 305.63 246.76 305.44 247.04 305.34C247.4 305.21 247.74 305.01 248.05 304.79C248.62 304.38 249.11 303.87 249.54 303.31C250.06 302.64 250.62 301.77 250.71 300.92C250.74 300.63 250.74 300.26 250.6 300C250.45 299.72 250.11 299.77 249.85 299.85C249.56 299.94 249.27 300.03 248.97 300.15L248.99 300.14Z" fill="#968E29"/>
<path d="M252.23 299.73C253.33 299.91 254.3 300.32 255.07 301.14C255.46 301.56 255.77 302.04 255.99 302.56C256.1 302.83 256.19 303.11 256.25 303.39C256.3 303.6 256.42 303.98 256.32 304.18C256.15 304.51 255.49 304.46 255.2 304.41C254.82 304.35 254.45 304.23 254.1 304.08C253.46 303.8 252.87 303.39 252.34 302.94C251.7 302.39 250.97 301.65 250.7 300.84C250.61 300.56 250.53 300.2 250.62 299.92C250.71 299.62 251.05 299.6 251.32 299.62C251.62 299.65 251.93 299.68 252.24 299.73H252.23Z" fill="#968E29"/>
<path d="M245.04 290.21C244.11 290.82 243.39 291.59 243.03 292.66C242.85 293.2 242.76 293.77 242.77 294.34C242.77 294.63 242.81 294.92 242.87 295.2C242.91 295.41 242.95 295.81 243.13 295.95C243.42 296.19 244 295.87 244.25 295.71C244.58 295.5 244.86 295.24 245.12 294.96C245.59 294.44 245.96 293.83 246.26 293.2C246.62 292.44 246.99 291.47 246.89 290.61C246.86 290.32 246.78 289.96 246.58 289.73C246.37 289.49 246.05 289.61 245.82 289.73C245.56 289.88 245.29 290.03 245.03 290.21H245.04Z" fill="#968E29"/>
<path d="M248.12 289.131C249.23 289.071 250.27 289.261 251.19 289.911C251.66 290.241 252.06 290.641 252.39 291.111C252.56 291.351 252.7 291.601 252.82 291.861C252.91 292.051 253.11 292.401 253.06 292.621C252.97 292.981 252.31 293.071 252.01 293.091C251.63 293.121 251.24 293.071 250.86 293.001C250.17 292.861 249.51 292.591 248.89 292.261C248.15 291.861 247.28 291.291 246.85 290.551C246.7 290.301 246.55 289.961 246.58 289.661C246.61 289.341 246.93 289.251 247.2 289.221C247.5 289.181 247.81 289.151 248.12 289.131Z" fill="#968E29"/>
<path d="M240.2 270.25C239.13 270.56 238.21 271.08 237.55 271.99C237.22 272.45 236.97 272.97 236.81 273.51C236.73 273.79 236.68 274.08 236.65 274.36C236.63 274.57 236.55 274.96 236.68 275.16C236.89 275.47 237.53 275.34 237.82 275.26C238.19 275.16 238.55 274.99 238.88 274.8C239.48 274.44 240.02 273.97 240.49 273.46C241.06 272.84 241.7 272.02 241.86 271.17C241.91 270.89 241.95 270.52 241.83 270.24C241.7 269.95 241.36 269.97 241.1 270.02C240.81 270.08 240.5 270.15 240.2 270.24V270.25Z" fill="#968E29"/>
<path d="M243.469 270.12C244.549 270.39 245.489 270.88 246.179 271.77C246.529 272.22 246.799 272.73 246.969 273.27C247.059 273.55 247.119 273.83 247.159 274.12C247.189 274.33 247.279 274.72 247.159 274.92C246.969 275.24 246.309 275.13 246.019 275.06C245.649 274.97 245.289 274.82 244.949 274.63C244.329 274.3 243.779 273.84 243.289 273.34C242.699 272.74 242.029 271.94 241.839 271.1C241.779 270.82 241.729 270.45 241.839 270.17C241.959 269.88 242.299 269.88 242.559 269.93C242.849 269.98 243.159 270.04 243.469 270.12Z" fill="#968E29"/>
<path d="M240.89 280.52C239.93 281.08 239.16 281.8 238.74 282.85C238.53 283.38 238.41 283.94 238.39 284.51C238.38 284.8 238.39 285.09 238.44 285.38C238.47 285.59 238.49 285.99 238.66 286.15C238.93 286.4 239.53 286.12 239.79 285.97C240.13 285.78 240.43 285.54 240.7 285.27C241.2 284.78 241.61 284.19 241.95 283.58C242.36 282.84 242.78 281.89 242.73 281.03C242.72 280.74 242.66 280.37 242.48 280.14C242.29 279.89 241.96 279.99 241.72 280.11C241.45 280.24 241.17 280.38 240.9 280.54L240.89 280.52Z" fill="#968E29"/>
<path d="M244.03 279.61C245.14 279.61 246.17 279.87 247.05 280.56C247.5 280.91 247.88 281.34 248.18 281.83C248.33 282.08 248.46 282.34 248.57 282.61C248.65 282.81 248.83 283.16 248.76 283.38C248.65 283.74 247.99 283.78 247.69 283.79C247.31 283.79 246.92 283.73 246.55 283.63C245.87 283.45 245.23 283.14 244.63 282.78C243.91 282.34 243.08 281.72 242.69 280.95C242.56 280.69 242.43 280.34 242.47 280.05C242.51 279.74 242.85 279.66 243.11 279.64C243.41 279.62 243.72 279.6 244.04 279.61H244.03Z" fill="#968E29"/>
<path d="M243.32 256.78C242.21 256.85 241.2 257.16 240.36 257.91C239.94 258.29 239.58 258.74 239.31 259.24C239.17 259.5 239.06 259.76 238.97 260.04C238.9 260.24 238.74 260.61 238.82 260.82C238.95 261.17 239.62 261.18 239.92 261.16C240.3 261.14 240.69 261.05 241.05 260.94C241.72 260.72 242.34 260.38 242.92 259.97C243.61 259.49 244.41 258.82 244.75 258.03C244.87 257.76 244.98 257.41 244.92 257.12C244.86 256.81 244.52 256.76 244.25 256.75C243.95 256.75 243.64 256.75 243.32 256.77V256.78Z" fill="#968E29"/>
<path d="M246.53 257.36C247.52 257.86 248.33 258.54 248.82 259.55C249.06 260.06 249.22 260.62 249.27 261.18C249.3 261.47 249.3 261.76 249.27 262.05C249.25 262.26 249.26 262.66 249.1 262.83C248.84 263.1 248.23 262.85 247.96 262.72C247.61 262.55 247.3 262.32 247.01 262.07C246.48 261.61 246.04 261.05 245.67 260.46C245.22 259.75 244.74 258.82 244.74 257.96C244.74 257.67 244.77 257.3 244.94 257.05C245.12 256.79 245.45 256.87 245.7 256.97C245.98 257.08 246.26 257.21 246.54 257.35L246.53 257.36Z" fill="#968E29"/>
<path d="M246.44 244.53C245.33 244.6 244.32 244.91 243.48 245.66C243.06 246.04 242.7 246.49 242.43 246.99C242.29 247.25 242.18 247.51 242.09 247.79C242.02 247.99 241.86 248.36 241.94 248.57C242.07 248.92 242.74 248.93 243.04 248.91C243.42 248.89 243.81 248.8 244.17 248.69C244.84 248.47 245.46 248.13 246.04 247.72C246.73 247.24 247.53 246.57 247.87 245.78C247.99 245.51 248.1 245.16 248.04 244.87C247.98 244.56 247.64 244.51 247.37 244.5C247.07 244.5 246.76 244.5 246.44 244.52V244.53Z" fill="#968E29"/>
<path d="M249.65 245.11C250.64 245.61 251.45 246.29 251.94 247.3C252.18 247.81 252.34 248.37 252.39 248.93C252.42 249.22 252.42 249.51 252.39 249.8C252.37 250.01 252.38 250.41 252.22 250.58C251.96 250.85 251.35 250.6 251.08 250.47C250.73 250.3 250.42 250.07 250.13 249.82C249.6 249.36 249.16 248.8 248.79 248.21C248.34 247.5 247.86 246.57 247.86 245.71C247.86 245.42 247.89 245.05 248.06 244.8C248.24 244.54 248.57 244.62 248.82 244.72C249.1 244.83 249.38 244.96 249.66 245.1L249.65 245.11Z" fill="#968E29"/>
<path d="M246.46 231.55C245.45 232.01 244.61 232.66 244.09 233.66C243.83 234.16 243.65 234.71 243.58 235.28C243.54 235.57 243.53 235.86 243.54 236.15C243.55 236.36 243.53 236.76 243.68 236.93C243.93 237.21 244.55 236.98 244.83 236.86C245.18 236.71 245.51 236.49 245.81 236.25C246.36 235.81 246.82 235.26 247.21 234.69C247.69 233.99 248.2 233.09 248.24 232.23C248.25 231.94 248.24 231.57 248.07 231.32C247.9 231.05 247.57 231.12 247.32 231.21C247.04 231.31 246.75 231.43 246.46 231.56V231.55Z" fill="#968E29"/>
<path d="M249.68 230.951C250.79 231.061 251.78 231.411 252.6 232.191C253.01 232.581 253.35 233.051 253.6 233.561C253.73 233.821 253.83 234.091 253.91 234.371C253.97 234.581 254.12 234.951 254.03 235.161C253.88 235.501 253.22 235.491 252.92 235.461C252.54 235.431 252.16 235.331 251.8 235.191C251.14 234.951 250.53 234.581 249.97 234.161C249.3 233.651 248.52 232.961 248.21 232.161C248.1 231.891 248.01 231.531 248.08 231.241C248.15 230.931 248.49 230.891 248.76 230.901C249.06 230.901 249.37 230.921 249.68 230.961V230.951Z" fill="#968E29"/>
<path d="M241.92 217.95C241 218.58 240.29 219.36 239.95 220.44C239.78 220.98 239.7 221.55 239.73 222.12C239.74 222.41 239.78 222.7 239.84 222.98C239.89 223.19 239.94 223.59 240.11 223.73C240.4 223.96 240.98 223.63 241.23 223.46C241.55 223.25 241.83 222.98 242.09 222.69C242.55 222.16 242.91 221.54 243.2 220.91C243.55 220.14 243.89 219.16 243.78 218.31C243.74 218.02 243.66 217.66 243.46 217.44C243.25 217.21 242.93 217.33 242.7 217.46C242.44 217.61 242.18 217.77 241.92 217.95Z" fill="#968E29"/>
<path d="M244.98 216.81C246.09 216.73 247.13 216.9 248.07 217.53C248.54 217.85 248.96 218.25 249.29 218.7C249.46 218.93 249.61 219.18 249.74 219.45C249.83 219.64 250.04 219.98 249.99 220.21C249.91 220.57 249.25 220.67 248.95 220.7C248.57 220.73 248.18 220.7 247.8 220.63C247.11 220.51 246.44 220.25 245.82 219.93C245.07 219.55 244.19 219 243.74 218.26C243.59 218.01 243.43 217.68 243.45 217.38C243.47 217.06 243.8 216.96 244.06 216.92C244.36 216.88 244.67 216.84 244.98 216.81Z" fill="#968E29"/>
<path d="M237.82 207.76C236.9 208.39 236.19 209.17 235.85 210.25C235.68 210.79 235.6 211.36 235.63 211.93C235.64 212.22 235.68 212.51 235.74 212.79C235.79 213 235.84 213.4 236.01 213.54C236.3 213.77 236.88 213.44 237.13 213.27C237.45 213.06 237.73 212.79 237.99 212.5C238.45 211.97 238.81 211.35 239.1 210.72C239.45 209.95 239.79 208.97 239.68 208.12C239.64 207.83 239.56 207.47 239.36 207.25C239.15 207.02 238.83 207.14 238.6 207.27C238.34 207.42 238.08 207.58 237.82 207.76Z" fill="#968E29"/>
<path d="M240.88 206.61C241.99 206.53 243.03 206.7 243.97 207.33C244.44 207.65 244.86 208.05 245.19 208.5C245.36 208.73 245.51 208.98 245.64 209.25C245.73 209.44 245.94 209.78 245.89 210.01C245.81 210.37 245.15 210.47 244.85 210.5C244.47 210.53 244.08 210.5 243.7 210.43C243.01 210.31 242.34 210.05 241.72 209.73C240.97 209.35 240.09 208.8 239.64 208.06C239.49 207.81 239.33 207.48 239.35 207.18C239.37 206.86 239.7 206.76 239.96 206.72C240.26 206.68 240.57 206.64 240.88 206.61Z" fill="#968E29"/>
<path d="M235.12 196.23C234.06 196.57 233.15 197.11 232.52 198.04C232.2 198.51 231.96 199.03 231.82 199.58C231.75 199.86 231.7 200.15 231.68 200.44C231.67 200.65 231.6 201.05 231.73 201.23C231.94 201.54 232.59 201.38 232.88 201.3C233.25 201.19 233.6 201.01 233.92 200.81C234.52 200.44 235.04 199.95 235.5 199.42C236.05 198.79 236.67 197.95 236.81 197.1C236.86 196.81 236.88 196.44 236.75 196.17C236.61 195.88 236.28 195.91 236.01 195.97C235.72 196.04 235.42 196.12 235.12 196.21V196.23Z" fill="#968E29"/>
<path d="M238.38 196.021C239.47 196.261 240.41 196.731 241.13 197.601C241.49 198.041 241.77 198.541 241.96 199.081C242.06 199.351 242.13 199.641 242.17 199.921C242.2 200.131 242.31 200.521 242.19 200.721C242 201.041 241.35 200.951 241.05 200.891C240.67 200.811 240.31 200.671 239.97 200.491C239.34 200.171 238.78 199.731 238.28 199.241C237.67 198.661 236.99 197.871 236.77 197.041C236.7 196.761 236.64 196.391 236.75 196.111C236.86 195.811 237.2 195.811 237.47 195.851C237.77 195.891 238.07 195.951 238.38 196.021Z" fill="#968E29"/>
<path d="M242.27 324.441L241.7 323.951C245.26 319.841 249.7 314.721 250.74 308.651C251.86 302.111 249.09 296.091 246.15 289.711C243.88 284.771 241.52 279.651 241.14 274.261C240.73 268.381 242.69 262.711 244.58 257.221C245.53 254.461 246.52 251.611 247.19 248.771C248.83 241.831 248.69 234.531 246.78 227.661C245.75 223.941 244.18 220.311 242.67 216.811C241.41 213.891 240.11 210.861 239.11 207.781C238.82 206.881 238.53 206.031 238.24 205.211C236.37 199.781 235.02 195.861 238.36 190.471L239 190.871C235.84 195.961 237.15 199.741 238.95 204.971C239.23 205.791 239.53 206.651 239.82 207.551C240.81 210.601 242.11 213.611 243.36 216.511C244.88 220.041 246.45 223.691 247.5 227.461C249.44 234.451 249.58 241.881 247.92 248.941C247.24 251.821 246.25 254.691 245.29 257.471C243.42 262.891 241.48 268.491 241.89 274.221C242.26 279.471 244.58 284.521 246.83 289.401C249.68 295.601 252.63 302.021 251.47 308.781C250.39 315.061 245.88 320.261 242.26 324.441H242.27Z" fill="#5B1A31"/>
<path d="M241.08 323.671C239.98 323.851 239.01 324.251 238.24 325.081C237.85 325.501 237.54 325.981 237.32 326.501C237.21 326.771 237.12 327.051 237.06 327.331C237.01 327.541 236.89 327.921 236.99 328.121C237.16 328.461 237.82 328.401 238.11 328.361C238.49 328.311 238.86 328.181 239.21 328.031C239.85 327.751 240.44 327.341 240.97 326.891C241.61 326.341 242.34 325.601 242.61 324.791C242.7 324.511 242.78 324.151 242.69 323.871C242.6 323.571 242.26 323.541 241.99 323.571C241.69 323.601 241.38 323.631 241.07 323.681L241.08 323.671Z" fill="#968E29"/>
<path d="M206.29 286.53C205.42 287.23 204.77 288.06 204.52 289.16C204.39 289.71 204.36 290.29 204.42 290.85C204.45 291.14 204.51 291.42 204.6 291.7C204.66 291.9 204.74 292.3 204.93 292.42C205.24 292.63 205.79 292.25 206.02 292.07C206.32 291.83 206.59 291.54 206.82 291.24C207.24 290.68 207.55 290.04 207.79 289.38C208.08 288.59 208.35 287.58 208.18 286.74C208.12 286.46 208.01 286.1 207.79 285.9C207.56 285.68 207.25 285.83 207.03 285.98C206.78 286.15 206.53 286.33 206.28 286.53H206.29Z" fill="#968E29"/>
<path d="M209.26 285.15C210.36 284.99 211.41 285.08 212.39 285.63C212.88 285.91 213.33 286.28 213.7 286.71C213.89 286.93 214.06 287.17 214.2 287.42C214.31 287.61 214.54 287.93 214.51 288.15C214.45 288.52 213.81 288.67 213.51 288.72C213.13 288.78 212.74 288.78 212.36 288.74C211.66 288.67 210.98 288.46 210.33 288.19C209.55 287.86 208.63 287.38 208.13 286.68C207.96 286.44 207.78 286.12 207.77 285.82C207.77 285.5 208.08 285.38 208.34 285.32C208.63 285.25 208.94 285.19 209.25 285.15H209.26Z" fill="#968E29"/>
<path d="M208.58 273.54C207.47 273.53 206.44 273.76 205.54 274.45C205.09 274.8 204.7 275.22 204.39 275.7C204.23 275.94 204.1 276.2 203.99 276.47C203.91 276.67 203.72 277.02 203.79 277.24C203.9 277.6 204.56 277.65 204.86 277.66C205.24 277.67 205.63 277.61 206 277.52C206.68 277.35 207.33 277.05 207.93 276.7C208.65 276.27 209.5 275.67 209.9 274.9C210.03 274.64 210.17 274.3 210.13 274C210.09 273.69 209.76 273.61 209.49 273.58C209.19 273.55 208.88 273.54 208.57 273.53L208.58 273.54Z" fill="#968E29"/>
<path d="M211.74 274.36C212.7 274.93 213.45 275.67 213.86 276.72C214.06 277.25 214.18 277.82 214.19 278.38C214.19 278.67 214.18 278.96 214.13 279.25C214.1 279.46 214.07 279.86 213.9 280.01C213.62 280.26 213.03 279.96 212.77 279.81C212.44 279.62 212.14 279.37 211.87 279.09C211.38 278.59 210.98 278 210.65 277.38C210.26 276.64 209.85 275.68 209.9 274.82C209.92 274.53 209.98 274.16 210.17 273.93C210.37 273.68 210.69 273.79 210.93 273.91C211.2 274.04 211.47 274.19 211.74 274.35V274.36Z" fill="#968E29"/>
<path d="M213.43 262.96C212.32 262.95 211.29 263.18 210.39 263.87C209.94 264.22 209.55 264.64 209.24 265.12C209.08 265.36 208.95 265.62 208.84 265.89C208.76 266.09 208.57 266.44 208.64 266.66C208.75 267.02 209.41 267.07 209.71 267.08C210.09 267.09 210.48 267.03 210.85 266.94C211.53 266.77 212.18 266.47 212.78 266.12C213.5 265.69 214.35 265.09 214.75 264.32C214.88 264.06 215.02 263.72 214.98 263.42C214.94 263.11 214.61 263.03 214.34 263C214.04 262.97 213.73 262.96 213.42 262.95L213.43 262.96Z" fill="#968E29"/>
<path d="M216.59 263.77C217.55 264.34 218.3 265.08 218.71 266.13C218.91 266.66 219.03 267.22 219.04 267.79C219.04 268.08 219.03 268.37 218.98 268.66C218.95 268.87 218.92 269.27 218.75 269.42C218.47 269.67 217.88 269.37 217.62 269.22C217.29 269.03 216.99 268.78 216.72 268.5C216.23 268 215.83 267.41 215.5 266.79C215.11 266.05 214.7 265.09 214.75 264.23C214.77 263.94 214.83 263.57 215.02 263.34C215.22 263.09 215.54 263.2 215.78 263.32C216.05 263.45 216.32 263.6 216.59 263.76V263.77Z" fill="#968E29"/>
<path d="M215.96 250.19C214.88 250.44 213.93 250.91 213.22 251.78C212.86 252.22 212.58 252.72 212.4 253.26C212.3 253.53 212.23 253.82 212.19 254.1C212.16 254.31 212.06 254.7 212.17 254.9C212.36 255.22 213.01 255.12 213.31 255.06C213.69 254.98 214.05 254.83 214.39 254.66C215.01 254.34 215.57 253.9 216.08 253.41C216.68 252.82 217.37 252.04 217.58 251.21C217.65 250.93 217.7 250.56 217.6 250.28C217.49 249.98 217.15 249.98 216.88 250.02C216.58 250.06 216.28 250.12 215.97 250.19H215.96Z" fill="#968E29"/>
<path d="M219.23 250.24C220.29 250.57 221.2 251.11 221.84 252.04C222.16 252.51 222.4 253.03 222.55 253.58C222.62 253.86 222.67 254.15 222.69 254.44C222.71 254.65 222.779 255.05 222.649 255.23C222.439 255.54 221.79 255.39 221.5 255.3C221.13 255.19 220.78 255.02 220.45 254.81C219.85 254.44 219.33 253.96 218.87 253.43C218.31 252.8 217.69 251.96 217.55 251.12C217.5 250.83 217.48 250.46 217.6 250.19C217.73 249.9 218.07 249.93 218.33 249.99C218.62 250.06 218.92 250.14 219.22 250.23L219.23 250.24Z" fill="#968E29"/>
<path d="M214.08 237.061C213.04 237.461 212.17 238.061 211.6 239.031C211.31 239.521 211.11 240.061 211 240.611C210.95 240.901 210.92 241.191 210.91 241.481C210.91 241.691 210.86 242.091 211.01 242.271C211.24 242.561 211.88 242.371 212.16 242.271C212.52 242.141 212.86 241.941 213.17 241.721C213.74 241.311 214.23 240.791 214.66 240.241C215.17 239.571 215.73 238.701 215.82 237.841C215.85 237.551 215.85 237.181 215.7 236.921C215.55 236.641 215.21 236.691 214.95 236.771C214.66 236.861 214.37 236.951 214.07 237.071L214.08 237.061Z" fill="#968E29"/>
<path d="M217.33 236.65C218.43 236.82 219.4 237.23 220.17 238.05C220.56 238.47 220.87 238.95 221.09 239.47C221.2 239.74 221.29 240.01 221.36 240.3C221.41 240.51 221.53 240.89 221.43 241.09C221.26 241.43 220.6 241.37 220.31 241.33C219.93 241.28 219.56 241.15 219.21 241C218.57 240.72 217.98 240.32 217.44 239.86C216.8 239.32 216.06 238.58 215.8 237.76C215.71 237.48 215.63 237.12 215.72 236.84C215.81 236.54 216.15 236.51 216.42 236.54C216.72 236.56 217.03 236.6 217.34 236.65H217.33Z" fill="#968E29"/>
<path d="M210.35 223.101C209.31 223.501 208.44 224.101 207.87 225.071C207.58 225.561 207.38 226.101 207.27 226.651C207.22 226.941 207.19 227.231 207.18 227.521C207.18 227.731 207.13 228.131 207.28 228.311C207.51 228.601 208.15 228.411 208.43 228.311C208.79 228.181 209.13 227.981 209.44 227.761C210.01 227.351 210.5 226.831 210.93 226.281C211.44 225.611 212 224.741 212.09 223.881C212.12 223.591 212.12 223.221 211.97 222.961C211.82 222.681 211.48 222.731 211.22 222.811C210.93 222.901 210.64 222.991 210.34 223.111L210.35 223.101Z" fill="#968E29"/>
<path d="M213.6 222.68C214.7 222.85 215.67 223.26 216.44 224.08C216.83 224.5 217.14 224.98 217.36 225.5C217.47 225.77 217.56 226.04 217.63 226.33C217.68 226.54 217.8 226.92 217.7 227.12C217.53 227.46 216.87 227.4 216.58 227.36C216.2 227.31 215.83 227.18 215.48 227.03C214.84 226.75 214.25 226.35 213.71 225.9C213.07 225.35 212.33 224.62 212.07 223.8C211.98 223.52 211.9 223.16 211.99 222.88C212.08 222.58 212.42 222.55 212.69 222.58C212.99 222.6 213.3 222.64 213.61 222.69L213.6 222.68Z" fill="#968E29"/>
<path d="M209.81 209.611C208.71 209.771 207.73 210.171 206.95 210.981C206.56 211.391 206.24 211.871 206.01 212.391C205.89 212.661 205.8 212.931 205.74 213.221C205.69 213.431 205.56 213.811 205.66 214.011C205.82 214.351 206.48 214.301 206.78 214.261C207.16 214.211 207.53 214.091 207.89 213.941C208.54 213.671 209.13 213.271 209.67 212.821C210.32 212.281 211.06 211.551 211.33 210.741C211.42 210.471 211.5 210.101 211.42 209.821C211.33 209.521 210.99 209.491 210.73 209.511C210.43 209.531 210.12 209.561 209.81 209.611Z" fill="#968E29"/>
<path d="M213.06 209.92C214.09 210.33 214.96 210.94 215.52 211.92C215.81 212.41 216 212.95 216.11 213.51C216.16 213.8 216.19 214.09 216.19 214.38C216.19 214.59 216.23 214.99 216.09 215.17C215.85 215.46 215.22 215.26 214.94 215.15C214.58 215.01 214.24 214.81 213.94 214.59C213.37 214.18 212.89 213.65 212.47 213.09C211.96 212.42 211.41 211.54 211.33 210.68C211.3 210.39 211.31 210.02 211.45 209.76C211.61 209.48 211.94 209.54 212.2 209.62C212.49 209.71 212.78 209.81 213.07 209.93L213.06 209.92Z" fill="#968E29"/>
<path d="M213.36 197.651C212.25 197.631 211.22 197.861 210.32 198.541C209.87 198.881 209.48 199.311 209.17 199.781C209.01 200.021 208.88 200.281 208.77 200.551C208.69 200.751 208.5 201.101 208.56 201.321C208.67 201.681 209.33 201.741 209.63 201.751C210.01 201.761 210.4 201.711 210.77 201.621C211.45 201.461 212.1 201.161 212.71 200.811C213.44 200.381 214.29 199.781 214.69 199.021C214.83 198.761 214.97 198.421 214.93 198.121C214.89 197.811 214.56 197.721 214.29 197.701C213.99 197.671 213.68 197.651 213.37 197.651H213.36Z" fill="#968E29"/>
<path d="M216.52 198.48C217.47 199.05 218.23 199.8 218.63 200.85C218.83 201.38 218.94 201.95 218.95 202.51C218.95 202.8 218.93 203.09 218.89 203.38C218.85 203.59 218.83 203.99 218.66 204.14C218.38 204.39 217.79 204.09 217.53 203.94C217.2 203.75 216.9 203.49 216.63 203.22C216.14 202.72 215.74 202.12 215.42 201.5C215.03 200.75 214.63 199.79 214.69 198.94C214.71 198.65 214.77 198.28 214.96 198.05C215.16 197.8 215.48 197.91 215.72 198.03C215.99 198.16 216.26 198.31 216.53 198.47L216.52 198.48Z" fill="#968E29"/>
<path d="M230.92 281.361C228.76 278.131 229.41 274.151 229.99 272.061C230.56 270.021 231.46 268.091 232.33 266.211C232.76 265.281 233.19 264.361 233.59 263.411C237.23 254.691 237.47 244.601 234.24 235.721C233.27 233.061 231.99 230.471 230.74 227.961C229.48 225.421 228.18 222.791 227.19 220.081C222.09 206.021 226.63 195.451 232.57 190.261L233.06 190.821C227.31 195.851 222.93 206.121 227.89 219.821C228.86 222.501 230.15 225.111 231.4 227.631C232.65 230.151 233.95 232.771 234.93 235.471C238.23 244.521 237.99 254.811 234.27 263.711C233.87 264.661 233.44 265.601 233 266.531C232.14 268.381 231.25 270.281 230.7 272.261C230.15 274.221 229.54 277.971 231.53 280.941L230.91 281.361H230.92Z" fill="#5B1A31"/>
<path d="M230.34 281.97C230.22 283.08 230.34 284.12 230.94 285.08C231.24 285.56 231.62 285.99 232.07 286.35C232.3 286.53 232.54 286.69 232.8 286.83C232.99 286.93 233.32 287.15 233.54 287.11C233.91 287.04 234.03 286.39 234.07 286.09C234.12 285.71 234.1 285.32 234.05 284.94C233.95 284.24 233.72 283.57 233.43 282.93C233.08 282.17 232.56 281.26 231.84 280.79C231.6 280.63 231.27 280.46 230.97 280.47C230.65 280.47 230.54 280.8 230.49 281.06C230.43 281.35 230.38 281.66 230.35 281.97H230.34Z" fill="#828219"/>
<path d="M211.81 294.88C206.78 290 207.19 281.8 209.26 275.76C210.16 273.12 211.36 270.54 212.52 268.05C214.13 264.6 215.79 261.03 216.64 257.29C218.49 249.25 216.66 240.91 214.45 232.35L214.26 231.6C212.19 223.6 210.05 215.33 211.28 207.12C212.21 200.9 216.32 194.15 220.82 191.41C223.07 190.05 225.35 189.7 227.43 190.41L227.19 191.12C225.3 190.47 223.29 190.79 221.22 192.05C216.89 194.68 212.93 201.21 212.03 207.23C210.82 215.29 212.94 223.49 214.99 231.41L215.18 232.16C217.41 240.81 219.26 249.25 217.38 257.45C216.5 261.27 214.83 264.87 213.2 268.36C212.05 270.83 210.86 273.39 209.97 275.99C207.98 281.82 207.56 289.69 212.34 294.33L211.82 294.87L211.81 294.88Z" fill="#5B1A31"/>
<path d="M211.17 295.26C211.17 296.37 211.4 297.4 212.09 298.29C212.44 298.74 212.86 299.13 213.34 299.43C213.59 299.59 213.84 299.72 214.11 299.83C214.31 299.91 214.66 300.1 214.88 300.03C215.24 299.92 215.29 299.26 215.3 298.96C215.3 298.58 215.25 298.19 215.16 297.82C214.99 297.14 214.69 296.49 214.33 295.89C213.9 295.17 213.29 294.32 212.53 293.93C212.27 293.8 211.93 293.66 211.63 293.7C211.32 293.74 211.24 294.07 211.22 294.34C211.2 294.64 211.18 294.95 211.18 295.26H211.17Z" fill="#968E29"/>
<path d="M198.52 253.79L197.9 253.37C202.37 246.73 204.94 238.99 205.31 230.98C205.45 227.85 205.26 224.63 205.08 221.51C204.74 215.79 204.39 209.87 206.1 204.31C207.68 199.18 211.05 192.53 215.34 190.67C216.97 189.96 218.61 190 220.21 190.78L219.88 191.45C218.49 190.77 217.06 190.74 215.64 191.35C211.85 192.99 208.48 199.15 206.82 204.52C205.15 209.95 205.49 215.8 205.83 221.46C206.02 224.6 206.21 227.84 206.06 231.01C205.68 239.15 203.08 247.02 198.52 253.78V253.79Z" fill="#5B1A31"/>
<path d="M197.11 253.561C196.19 254.191 195.48 254.971 195.14 256.051C194.97 256.591 194.89 257.161 194.92 257.731C194.93 258.021 194.97 258.311 195.03 258.591C195.08 258.801 195.13 259.201 195.3 259.341C195.59 259.571 196.17 259.241 196.42 259.071C196.74 258.861 197.02 258.591 197.28 258.301C197.74 257.771 198.1 257.151 198.39 256.521C198.74 255.751 199.08 254.771 198.97 253.921C198.93 253.631 198.85 253.271 198.65 253.051C198.44 252.821 198.12 252.941 197.89 253.071C197.63 253.221 197.37 253.381 197.11 253.561Z" fill="#828219"/>
<path d="M474.51 449.14H39.79V449.89H474.51V449.14Z" fill="#5B1A31"/>
</svg>
