<svg width="158" height="132" viewBox="0 0 158 132" fill="none" xmlns="http://www.w3.org/2000/svg">
<path style="mix-blend-mode:screen" d="M74.8471 21.1084C74.8471 21.1084 81.8149 28.339 98.1474 30.4413C113.779 32.456 118.501 27.9169 118.501 27.9169C118.501 27.9169 127.938 83.938 74.855 114.724C21.7644 83.938 31.2008 27.9169 31.2008 27.9169C31.2008 27.9169 35.9229 32.4639 51.5547 30.4413C67.8872 28.339 74.855 21.1084 74.855 21.1084H74.8471Z" fill="url(#paint0_radial_493_11459)"/>
<path style="mix-blend-mode:multiply" opacity="0.8" d="M74.8471 21.1084C74.8471 21.1084 81.8149 28.339 98.1474 30.4413C113.779 32.456 118.501 27.9169 118.501 27.9169C118.501 27.9169 127.938 83.938 74.855 114.724C21.7644 83.938 31.2008 27.9169 31.2008 27.9169C31.2008 27.9169 35.9229 32.4639 51.5547 30.4413C67.8872 28.339 74.855 21.1084 74.855 21.1084H74.8471Z" fill="#0067F9"/>
<path style="mix-blend-mode:multiply" opacity="0.8" d="M118.493 27.9169C118.493 27.9169 113.771 32.4639 98.1392 30.4413C81.8067 28.339 74.8389 21.1084 74.8389 21.1084V114.724C127.922 83.938 118.485 27.9169 118.485 27.9169H118.493Z" fill="white"/>
<g style="mix-blend-mode:overlay">
<path d="M74.8471 27.8054C78.8685 30.5129 86.1707 34.2079 97.4705 35.6651C100.353 36.0394 103.093 36.2225 105.625 36.2225C108.922 36.2225 111.637 35.912 113.835 35.4422C114.002 40.9607 113.7 49.4096 111.366 58.9495C109.001 68.6169 105.036 77.5197 99.5808 85.4033C93.2978 94.4813 84.9922 102.269 74.8471 108.584C64.702 102.269 56.3963 94.4813 50.1134 85.4033C44.6586 77.5197 40.6929 68.6169 38.3278 58.9495C35.9946 49.4096 35.6841 40.9527 35.8592 35.4422C38.065 35.904 40.7725 36.2225 44.0693 36.2225C46.6016 36.2225 49.3409 36.0314 52.2236 35.6651C63.5234 34.2079 70.8336 30.5129 74.855 27.8054M74.855 21.1084C74.855 21.1084 67.8872 28.339 51.5547 30.4413C48.7118 30.8076 46.2353 30.9589 44.0773 30.9589C34.3622 30.9589 31.2008 27.9169 31.2008 27.9169C31.2008 27.9169 21.7644 83.938 74.855 114.724C127.938 83.938 118.501 27.9169 118.501 27.9169C118.501 27.9169 115.34 30.9589 105.625 30.9589C103.467 30.9589 100.99 30.8076 98.1474 30.4413C81.8149 28.339 74.8471 21.1084 74.8471 21.1084H74.855Z" fill="#0067F9"/>
</g>
<path d="M74.8474 116.627L74.0272 116.149C46.1002 99.9517 35.4933 76.7629 31.5196 60.1596C27.2115 42.1867 29.481 28.2272 29.5766 27.6459L30.0942 24.58L32.3319 26.7381C32.3319 26.7381 36.9426 30.6719 51.3321 28.8165C66.8046 26.8257 73.5972 20.033 73.6688 19.9614L74.8474 18.751L76.018 19.9614C76.0817 20.033 82.8743 26.8177 98.3468 28.8165C112.736 30.6719 117.331 26.754 117.371 26.7142L119.609 24.5561L120.102 27.6459C120.198 28.2351 122.467 42.1867 118.159 60.1596C114.186 76.7629 103.579 99.9517 75.6517 116.149L74.8315 116.627H74.8474ZM32.523 30.6321C32.077 35.3542 31.5833 46.447 34.7368 59.5305C38.5432 75.3056 48.5848 97.2761 74.8474 112.828C101.15 97.2442 111.191 75.2101 114.982 59.4031C118.111 46.3514 117.61 35.3304 117.172 30.6321C114.241 31.954 108.396 33.4272 97.9407 32.0814C84.8173 30.3932 77.531 25.4878 74.8554 23.3139C72.1797 25.4958 64.8854 30.3932 51.7621 32.0814C41.3064 33.4351 35.4614 31.9619 32.531 30.64L32.523 30.6321Z" fill="url(#paint1_linear_493_11459)"/>
<g opacity="0.3">
<path style="mix-blend-mode:screen" opacity="0.5" d="M130.158 49.0668C145.591 51.5434 149.063 62.6998 146.586 78.1325C144.11 93.5652 136.632 107.437 121.2 104.961C105.767 102.484 122.171 97.937 125.524 76.9858C128.98 55.4533 114.725 46.5903 130.158 49.0589V49.0668Z" fill="url(#paint2_linear_493_11459)"/>
<path style="mix-blend-mode:screen" opacity="0.5" d="M35.7073 44.018C29.4562 73.6491 51.2594 112.51 29.5677 107.939C7.8759 103.368 -4.64225 75.6399 1.60886 46.0088C7.85997 16.3778 30.5073 -3.92838 52.1991 0.642496C73.8908 5.21337 41.9584 14.387 35.7073 44.018Z" fill="url(#paint3_linear_493_11459)"/>
</g>
<path d="M25.1246 86.4544C25.1246 91.511 21.0236 95.6041 15.9749 95.6041C10.9262 95.6041 6.8252 91.5031 6.8252 86.4544C6.8252 81.4057 10.9183 77.3047 15.9749 77.3047C21.0315 77.3047 25.1246 81.4057 25.1246 86.4544Z" fill="#E64742"/>
<path d="M17.2654 79.8609L14.7092 80.0281C15.7444 76.9305 14.9402 72.049 14.4385 70.3528L16.2621 70.2334C15.9674 72.1446 15.8719 76.9543 17.2654 79.8609Z" fill="#E64742"/>
<path d="M19.7577 80.681L18.165 80.0599C20.0921 77.3763 21.6848 72.3993 22.1068 70.5996L23.2456 71.0376C22.2581 72.7975 20.1638 77.4241 19.7577 80.6731V80.681Z" fill="#E64742"/>
<path d="M13.5861 79.7254L11.1812 80.5934C11.6511 78.2522 10.0584 75.2819 9.29395 74.3184L11.014 73.6973C11.0538 75.043 11.7705 78.2283 13.5861 79.7254Z" fill="#E64742"/>
<path d="M12.2568 82.5764L10.6084 84.5354C8.65746 81.2705 3.86361 77.8622 2.04004 76.835L3.21859 75.4414C4.66789 77.2172 8.76098 81.2068 12.2568 82.5844V82.5764Z" fill="#E64742"/>
<path d="M9.7076 88.3574L10.1854 89.9978C7.66902 89.8625 4.0378 91.256 2.79554 91.8851L2.45312 90.7145C3.95817 90.5712 7.66106 89.7828 9.69964 88.3574H9.7076Z" fill="#E64742"/>
<path d="M12.7333 92.4189L14.3658 92.9286C13.2429 93.7408 13.012 95.5644 13.0757 96.2492L11.9131 95.8829C12.3909 95.3016 13.1792 93.709 12.7413 92.4189H12.7333Z" fill="#E64742"/>
<path d="M17.839 92.3152L19.4476 91.7578C19.2644 93.7486 20.5385 96.4481 21.1278 97.3559L19.9732 97.7541C19.8696 96.5835 19.1768 93.7645 17.8311 92.3152H17.839Z" fill="#E64742"/>
<path d="M20.7773 89.1303L21.4463 87.5615C23.66 89.409 27.9283 90.8822 29.4891 91.2644L29.0113 92.3872C27.5301 91.4476 23.6122 89.4727 20.7773 89.1303Z" fill="#E64742"/>
<path d="M23.6273 84.4557L22.9902 82.871C25.1164 82.9108 27.9672 81.4217 28.9149 80.7607L29.3688 81.8915C28.1265 82.0826 25.1323 82.9825 23.6273 84.4477V84.4557Z" fill="#E64742"/>
<path d="M26.3194 75.0986L27.5139 76.317C24.9497 77.6787 21.9317 81.0949 20.9761 82.4009L20.124 81.5329C21.5654 80.5136 24.9099 77.607 26.3194 75.0986Z" fill="#E64742"/>
<path d="M33.4067 85.3477L33.3589 87.9038C30.0064 86.5979 24.4879 86.9721 22.5449 87.3225L22.5768 85.499C24.6791 85.9608 30.0303 86.4784 33.3988 85.3477H33.4067Z" fill="#E64742"/>
<path d="M28.095 98.4789L26.8049 99.5938C25.1486 96.4085 21.175 92.2995 19.6699 90.9457L20.5937 90.1494C21.812 91.9889 25.2282 96.3687 28.095 98.4789Z" fill="#E64742"/>
<path d="M16.9463 101.369H15.2422C16.0704 98.7575 15.7439 94.4893 15.489 92.9922H16.7074C16.4287 94.6246 16.15 98.7814 16.9543 101.369H16.9463Z" fill="#E64742"/>
<path d="M11.0141 90.3008L12.2722 91.4475C9.93902 92.7773 7.37487 96.0741 6.57855 97.3323L5.67871 96.5121C6.96079 95.5246 9.89921 92.7136 11.0141 90.3008Z" fill="#E64742"/>
<path d="M8.90421 84.9258L8.8644 87.482C6.89749 86.2079 3.6485 86.6379 2.50977 87.0121L2.54162 85.1886C3.77592 85.6345 6.92138 86.0964 8.91218 84.9258H8.90421Z" fill="#E64742"/>
<path d="M17.3607 70.4324C17.4005 70.95 16.5405 71.4358 15.4416 71.5074C14.3427 71.5871 13.4269 71.2287 13.3871 70.7111C13.3473 70.1935 14.2073 69.7077 15.3062 69.6361C16.4051 69.5564 17.3209 69.9148 17.3607 70.4324Z" fill="#E64742"/>
<path d="M24.0179 71.3717C23.8586 71.7301 23.1101 71.754 22.3456 71.4195C21.5811 71.0851 21.0874 70.5197 21.2467 70.1613C21.4059 69.803 22.1545 69.7791 22.9189 70.1136C23.6834 70.448 24.1771 71.0134 24.0179 71.3717Z" fill="#E64742"/>
<path d="M23.3575 71.2291C23.1106 71.2291 22.808 71.1574 22.5133 71.03C21.9718 70.7911 21.7091 70.4805 21.6533 70.3531C21.6931 70.3372 21.7728 70.3213 21.8922 70.3213C22.1391 70.3213 22.4417 70.393 22.7363 70.5204C23.2778 70.7593 23.5486 71.0698 23.5963 71.1972C23.5565 71.2132 23.4769 71.2291 23.3575 71.2291Z" fill="#C70600"/>
<path d="M27.8558 76.8667C27.5771 77.1454 26.8764 76.8986 26.2791 76.3172C25.6819 75.7359 25.4271 75.0272 25.6978 74.7485C25.9765 74.4698 26.6773 74.7166 27.2745 75.298C27.8718 75.8793 28.1266 76.588 27.8558 76.8667Z" fill="#E64742"/>
<path d="M28.8199 92.8324C28.5572 92.7209 28.5412 92.1795 28.7801 91.622C29.019 91.0646 29.4252 90.7063 29.6879 90.8257C29.9507 90.9372 29.9667 91.4787 29.7278 92.0361C29.4889 92.5935 29.0827 92.9519 28.8199 92.8324Z" fill="#E64742"/>
<path d="M29.043 92.3071C29.043 92.1877 29.0828 92.0045 29.1704 91.7975C29.258 91.5825 29.3695 91.4392 29.4491 91.3516C29.4491 91.471 29.4093 91.6542 29.3217 91.8612C29.2341 92.0762 29.1226 92.2195 29.043 92.3071Z" fill="#C70600"/>
<path d="M19.5111 97.8896C19.4235 97.6189 19.8217 97.2526 20.395 97.0614C20.9684 96.8783 21.5019 96.95 21.5895 97.2207C21.6771 97.4915 21.2789 97.8578 20.7056 98.0489C20.1322 98.232 19.5987 98.1604 19.5111 97.8896Z" fill="#E64742"/>
<path d="M20.0605 97.714C20.1561 97.6344 20.3154 97.5468 20.5304 97.4751C20.6976 97.4194 20.8648 97.3955 21.0082 97.3955C21.0241 97.3955 21.0321 97.3955 21.048 97.3955C20.9524 97.4751 20.7932 97.5627 20.5782 97.6344C20.4109 97.6901 20.2437 97.714 20.1004 97.714C20.0844 97.714 20.0765 97.714 20.0605 97.714Z" fill="#C70600"/>
<path d="M26.1674 99.88C25.9524 99.5456 26.3426 98.9006 27.0513 98.4387C27.76 97.9768 28.5086 97.8733 28.7236 98.1998C28.9386 98.5343 28.5484 99.1793 27.8397 99.6411C27.1309 100.103 26.3824 100.207 26.1674 99.88Z" fill="#E64742"/>
<path d="M14.5655 101.417C14.5575 101.019 15.2264 100.677 16.0705 100.645C16.9146 100.621 17.6074 100.924 17.6234 101.322C17.6313 101.72 16.9624 102.062 16.1183 102.094C15.2742 102.118 14.5814 101.815 14.5655 101.417Z" fill="#E64742"/>
<path d="M4.88239 96.0338C5.11333 95.7073 5.86187 95.8427 6.5467 96.3285C7.2395 96.8142 7.60581 97.4752 7.38284 97.8017C7.1519 98.1282 6.40336 97.9928 5.71853 97.507C5.02573 97.0213 4.65942 96.3603 4.89036 96.0338H4.88239Z" fill="#E64742"/>
<path d="M2.29385 90.1891C2.58053 90.1015 2.97073 90.5315 3.15388 91.1446C3.33703 91.7578 3.24944 92.3232 2.96276 92.4108C2.67609 92.4984 2.28589 92.0684 2.10274 91.4552C1.91958 90.842 2.00718 90.2767 2.29385 90.1891Z" fill="#E64742"/>
<path d="M2.80356 91.8937C2.71596 91.7902 2.59652 91.5991 2.51689 91.3283C2.43725 91.0655 2.42929 90.8346 2.44522 90.6992C2.53281 90.8027 2.65226 90.9939 2.73189 91.2646C2.81152 91.5274 2.81948 91.7583 2.80356 91.8937Z" fill="#C70600"/>
<path d="M2.57269 84.6387C2.95492 84.6467 3.24956 85.3077 3.22567 86.1119C3.20974 86.9162 2.88325 87.5612 2.50102 87.5533C2.11878 87.5453 1.82415 86.8844 1.84804 86.0801C1.86396 85.2758 2.19045 84.6308 2.57269 84.6387Z" fill="#E64742"/>
<path d="M11.4288 95.8114C11.4925 95.5327 12.0261 95.4212 12.6074 95.5645C13.1967 95.7079 13.6187 96.0423 13.547 96.321C13.4833 96.5997 12.9498 96.7112 12.3685 96.5679C11.7792 96.4246 11.3572 96.0901 11.4288 95.8114Z" fill="#E64742"/>
<path d="M12.8623 96.201C12.7428 96.201 12.6075 96.185 12.4721 96.1532C12.2491 96.0974 12.0898 96.0178 11.9863 95.9541C12.0261 95.9541 12.066 95.9541 12.1217 95.9541C12.2412 95.9541 12.3765 95.97 12.5119 96.0019C12.7349 96.0576 12.8941 96.1373 12.9977 96.201C12.9578 96.201 12.918 96.201 12.8623 96.201Z" fill="#C70600"/>
<path d="M29.5684 82.7751C29.1862 82.8866 28.6924 82.3292 28.4615 81.5249C28.2306 80.7206 28.3421 79.988 28.7243 79.8765C29.1065 79.765 29.6002 80.3224 29.8312 81.1267C30.0621 81.931 29.9506 82.6636 29.5684 82.7751Z" fill="#E64742"/>
<path d="M29.441 82.3452C29.3136 82.2815 29.0428 81.9789 28.8756 81.4056C28.7084 80.8322 28.7801 80.4261 28.8438 80.3066C28.9632 80.3703 29.2419 80.665 29.4091 81.2463C29.5764 81.8197 29.5047 82.2178 29.441 82.3452Z" fill="#C70600"/>
<path d="M33.2952 88.3572C32.8015 88.3413 32.4192 87.4813 32.4511 86.4302C32.4829 85.379 32.905 84.5429 33.3987 84.5508C33.8924 84.5668 34.2746 85.4268 34.2428 86.4779C34.2109 87.5291 33.7889 88.3652 33.2952 88.3572Z" fill="#E64742"/>
<path d="M12.0886 73.5535C12.2717 74.0392 11.5948 74.7479 10.5676 75.1461C9.54033 75.5443 8.56086 75.4726 8.36974 74.9868C8.18659 74.5011 8.86346 73.7924 9.89071 73.3942C10.918 72.996 11.8974 73.0677 12.0886 73.5535Z" fill="#E64742"/>
<path d="M9.31792 74.9717C8.94365 74.9717 8.79235 74.8682 8.77642 74.8363C8.72864 74.7169 9.11088 74.1674 10.0505 73.8011C10.4328 73.6578 10.815 73.5781 11.1415 73.5781C11.5158 73.5781 11.6671 73.6816 11.683 73.7135C11.691 73.7454 11.6671 73.8807 11.468 74.0878C11.2291 74.3426 10.8389 74.5815 10.4089 74.7487C10.0266 74.8921 9.64441 74.9717 9.31792 74.9717Z" fill="#C70600"/>
<path d="M4.094 74.7088C4.46031 75.0911 4.10993 76.0387 3.29768 76.8191C2.48544 77.5995 1.52985 77.926 1.16354 77.5437C0.797238 77.1615 1.14762 76.2139 1.95986 75.4335C2.77211 74.6531 3.7277 74.3266 4.094 74.7088Z" fill="#E64742"/>
<path d="M1.60127 77.2729C1.5296 77.2729 1.48182 77.257 1.47386 77.2411C1.3783 77.1455 1.50571 76.4766 2.26222 75.744C2.81168 75.2184 3.35317 74.9795 3.65578 74.9795C3.72744 74.9795 3.77523 74.9954 3.78319 75.0114C3.80708 75.0432 3.83893 75.1945 3.73541 75.4652C3.608 75.7997 3.33725 76.1819 2.99483 76.5164C2.44537 77.042 1.90387 77.2809 1.60127 77.2809V77.2729Z" fill="#C70600"/>
<g style="mix-blend-mode:screen">
<path d="M24.1208 86.454C24.1208 90.9532 20.4737 94.6003 15.9745 94.6003C11.4753 94.6003 7.82812 90.9532 7.82812 86.454C7.82812 81.9548 11.4753 78.3076 15.9745 78.3076C20.4737 78.3076 24.1208 81.9548 24.1208 86.454Z" fill="#732421"/>
</g>
<path d="M22.1937 84.1452C22.1937 84.846 21.6204 85.4193 20.9196 85.4193C20.2189 85.4193 19.6455 84.846 19.6455 84.1452C19.6455 83.4444 20.2189 82.8711 20.9196 82.8711C21.6204 82.8711 22.1937 83.4444 22.1937 84.1452Z" fill="#C70600"/>
<path d="M18.0051 80.8326C18.0051 81.3343 17.5989 81.7404 17.0973 81.7404C16.5956 81.7404 16.1895 81.3343 16.1895 80.8326C16.1895 80.3309 16.5956 79.9248 17.0973 79.9248C17.5989 79.9248 18.0051 80.3309 18.0051 80.8326Z" fill="#C70600"/>
<path d="M18.1091 84.1448C18.1091 84.3518 17.9737 84.5191 17.8065 84.5191C17.6393 84.5191 17.5039 84.3518 17.5039 84.1448C17.5039 83.9377 17.6393 83.7705 17.8065 83.7705C17.9737 83.7705 18.1091 83.9377 18.1091 84.1448Z" fill="#C70600"/>
<path d="M11.5077 87.3222C11.5077 88.0628 10.9104 88.66 10.1698 88.66C9.42927 88.66 8.83203 88.0628 8.83203 87.3222C8.83203 86.5816 9.42927 85.9844 10.1698 85.9844C10.9104 85.9844 11.5077 86.5816 11.5077 87.3222Z" fill="#C70600"/>
<g style="mix-blend-mode:screen">
<path d="M11.213 87.3223C11.213 87.8957 10.7511 88.3575 10.1778 88.3575C9.60444 88.3575 9.14258 87.8957 9.14258 87.3223C9.14258 86.749 9.60444 86.2871 10.1778 86.2871C10.7511 86.2871 11.213 86.749 11.213 87.3223Z" fill="#732421"/>
</g>
<path d="M15.5919 85.4195C15.5919 86.176 14.9787 86.7891 14.2222 86.7891C13.4657 86.7891 12.8525 86.176 12.8525 85.4195C12.8525 84.663 13.4657 84.0498 14.2222 84.0498C14.9787 84.0498 15.5919 84.663 15.5919 85.4195Z" fill="#C70600"/>
<g style="mix-blend-mode:screen">
<path d="M14.2223 86.4867C14.8117 86.4867 15.2894 86.0089 15.2894 85.4196C15.2894 84.8303 14.8117 84.3525 14.2223 84.3525C13.633 84.3525 13.1553 84.8303 13.1553 85.4196C13.1553 86.0089 13.633 86.4867 14.2223 86.4867Z" fill="#732421"/>
</g>
<path d="M11.2445 83.0061C11.2445 83.5237 10.8225 83.9457 10.3049 83.9457C9.78728 83.9457 9.36523 83.5237 9.36523 83.0061C9.36523 82.4885 9.78728 82.0664 10.3049 82.0664C10.8225 82.0664 11.2445 82.4885 11.2445 83.0061Z" fill="#C70600"/>
<g style="mix-blend-mode:screen">
<path d="M11.0294 83.0059C11.0294 83.4041 10.7029 83.7306 10.3047 83.7306C9.90657 83.7306 9.58008 83.4041 9.58008 83.0059C9.58008 82.6077 9.90657 82.2812 10.3047 82.2812C10.7029 82.2812 11.0294 82.6077 11.0294 83.0059Z" fill="#732421"/>
</g>
<path d="M18.0688 92.0129C18.0688 92.5305 17.6467 92.9526 17.1291 92.9526C16.6115 92.9526 16.1895 92.5305 16.1895 92.0129C16.1895 91.4953 16.6115 91.0732 17.1291 91.0732C17.6467 91.0732 18.0688 91.4953 18.0688 92.0129Z" fill="#C70600"/>
<path d="M17.504 88.4611C17.7063 88.4611 17.8703 88.2971 17.8703 88.0948C17.8703 87.8925 17.7063 87.7285 17.504 87.7285C17.3017 87.7285 17.1377 87.8925 17.1377 88.0948C17.1377 88.2971 17.3017 88.4611 17.504 88.4611Z" fill="#C70600"/>
<path d="M13.6659 91.0409C13.6659 91.7815 13.0686 92.3788 12.328 92.3788C11.5875 92.3788 10.9902 91.7815 10.9902 91.0409C10.9902 90.3004 11.5875 89.7031 12.328 89.7031C13.0686 89.7031 13.6659 90.3004 13.6659 91.0409Z" fill="#C70600"/>
<path d="M16.7391 89.1298C16.7391 89.8704 16.1419 90.4676 15.4013 90.4676C14.6607 90.4676 14.0635 89.8704 14.0635 89.1298C14.0635 88.3892 14.6607 87.792 15.4013 87.792C16.1419 87.792 16.7391 88.3892 16.7391 89.1298Z" fill="#C70600"/>
<g style="mix-blend-mode:screen">
<path d="M16.6041 89.1302C16.6041 89.7991 16.0626 90.3326 15.4017 90.3326C14.7407 90.3326 14.1992 89.7911 14.1992 89.1302C14.1992 88.4692 14.7407 87.9277 15.4017 87.9277C16.0626 87.9277 16.6041 88.4692 16.6041 89.1302Z" fill="#732421"/>
</g>
<path d="M13.9208 81.0947C13.9208 81.461 13.6262 81.7636 13.2519 81.7636C12.8776 81.7636 12.583 81.469 12.583 81.0947C12.583 80.7204 12.8776 80.4258 13.2519 80.4258C13.6262 80.4258 13.9208 80.7204 13.9208 81.0947Z" fill="#C70600"/>
<g style="mix-blend-mode:screen">
<path d="M13.8173 81.0947C13.8173 81.4053 13.5625 81.6601 13.2519 81.6601C12.9413 81.6601 12.6865 81.4053 12.6865 81.0947C12.6865 80.7841 12.9413 80.5293 13.2519 80.5293C13.5625 80.5293 13.8173 80.7841 13.8173 81.0947Z" fill="#732421"/>
</g>
<path d="M20.5849 82.1386C20.9544 82.1386 21.2538 81.8391 21.2538 81.4697C21.2538 81.1003 20.9544 80.8008 20.5849 80.8008C20.2155 80.8008 19.916 81.1003 19.916 81.4697C19.916 81.8391 20.2155 82.1386 20.5849 82.1386Z" fill="#C70600"/>
<g style="mix-blend-mode:screen">
<path d="M21.1503 81.4697C21.1503 81.7803 20.8955 82.0351 20.5849 82.0351C20.2744 82.0351 20.0195 81.7803 20.0195 81.4697C20.0195 81.1591 20.2744 80.9043 20.5849 80.9043C20.8955 80.9043 21.1503 81.1591 21.1503 81.4697Z" fill="#732421"/>
</g>
<path d="M15.8949 80.0597C15.8949 80.2907 15.7038 80.4818 15.4728 80.4818C15.2419 80.4818 15.0508 80.2907 15.0508 80.0597C15.0508 79.8288 15.2419 79.6377 15.4728 79.6377C15.7038 79.6377 15.8949 79.8288 15.8949 80.0597Z" fill="#C70600"/>
<path d="M21.859 88.5013C21.859 89.2259 21.2777 89.8072 20.553 89.8072C19.8284 89.8072 19.2471 89.2259 19.2471 88.5013C19.2471 87.7766 19.8284 87.1953 20.553 87.1953C21.2777 87.1953 21.859 87.7766 21.859 88.5013Z" fill="#C70600"/>
<g style="mix-blend-mode:screen">
<path d="M21.5646 88.5016C21.5646 89.059 21.1107 89.5129 20.5533 89.5129C19.9959 89.5129 19.542 89.059 19.542 88.5016C19.542 87.9441 19.9959 87.4902 20.5533 87.4902C21.1107 87.4902 21.5646 87.9441 21.5646 88.5016Z" fill="#732421"/>
</g>
<path d="M21.2536 88.3978C21.2536 88.7482 20.9669 89.0349 20.6166 89.0349C20.2662 89.0349 19.9795 88.7482 19.9795 88.3978C19.9795 88.0474 20.2662 87.7607 20.6166 87.7607C20.9669 87.7607 21.2536 88.0474 21.2536 88.3978Z" fill="#C70600"/>
<path d="M148.887 39.8929C148.887 44.9495 144.786 49.0426 139.738 49.0426C134.689 49.0426 130.588 44.9415 130.588 39.8929C130.588 34.8442 134.689 30.7432 139.738 30.7432C144.786 30.7432 148.887 34.8442 148.887 39.8929Z" fill="#E64742"/>
<path d="M141.028 33.2994L138.472 33.4666C139.507 30.3689 138.703 25.4875 138.201 23.7913L140.025 23.6719C139.73 25.583 139.635 30.3928 141.028 33.2994Z" fill="#E64742"/>
<path d="M143.513 34.1195L141.92 33.4984C143.847 30.8148 145.44 25.8378 145.862 24.0381L147 24.4761C146.013 26.2359 143.919 30.8625 143.513 34.1115V34.1195Z" fill="#E64742"/>
<path d="M137.349 33.1561L134.944 34.0241C135.414 31.6829 133.821 28.7126 133.057 27.7491L134.777 27.1279C134.817 28.4737 135.533 31.659 137.349 33.1561Z" fill="#E64742"/>
<path d="M136.012 36.0071L134.363 37.966C132.412 34.7011 127.618 31.2929 125.795 30.2656L126.973 28.8721C128.423 30.6479 132.516 34.6374 136.012 36.0151V36.0071Z" fill="#E64742"/>
<path d="M133.47 41.7881L133.948 43.4285C131.432 43.2931 127.8 44.6867 126.558 45.3158L126.216 44.1452C127.721 44.0019 131.424 43.2135 133.462 41.7881H133.47Z" fill="#E64742"/>
<path d="M136.496 45.8574L138.128 46.3671C137.006 47.1793 136.775 49.0029 136.838 49.6877L135.676 49.3214C136.154 48.7401 136.942 47.1475 136.504 45.8574H136.496Z" fill="#E64742"/>
<path d="M141.594 45.7537L143.202 45.1963C143.019 47.1871 144.293 49.8866 144.883 50.7944L143.728 51.1926C143.625 50.022 142.932 47.203 141.586 45.7537H141.594Z" fill="#E64742"/>
<path d="M144.54 42.5688L145.209 41C147.423 42.8475 151.691 44.3207 153.252 44.7029L152.774 45.8257C151.293 44.886 147.375 42.9112 144.54 42.5688Z" fill="#E64742"/>
<path d="M147.382 37.8863L146.745 36.3017C148.871 36.3415 151.722 34.8524 152.67 34.1914L153.124 35.3222C151.881 35.5133 148.887 36.4131 147.382 37.8784V37.8863Z" fill="#E64742"/>
<path d="M150.074 28.5293L151.269 29.7477C148.705 31.1094 145.687 34.5256 144.731 35.8315L143.879 34.9636C145.32 33.9443 148.665 31.0377 150.074 28.5293Z" fill="#E64742"/>
<path d="M157.169 38.7861L157.122 41.3423C153.769 40.0364 148.251 40.4106 146.308 40.761L146.339 38.9374C148.442 39.3993 153.793 39.9169 157.161 38.7861H157.169Z" fill="#E64742"/>
<path d="M151.85 51.9174L150.56 53.0322C148.903 49.847 144.93 45.738 143.425 44.3842L144.349 43.5879C145.567 45.4274 148.983 49.8072 151.85 51.9174Z" fill="#E64742"/>
<path d="M140.709 54.8079H139.005C139.833 52.196 139.507 47.9277 139.252 46.4307H140.47C140.191 48.0631 139.913 52.2199 140.717 54.8079H140.709Z" fill="#E64742"/>
<path d="M134.769 43.7314L136.027 44.8781C133.694 46.208 131.122 49.5048 130.333 50.763L129.434 49.9427C130.716 48.9553 133.654 46.1443 134.769 43.7314Z" fill="#E64742"/>
<path d="M132.667 38.3643L132.627 40.9204C130.66 39.6463 127.411 40.0763 126.272 40.4506L126.304 38.627C127.539 39.073 130.684 39.5348 132.675 38.3643H132.667Z" fill="#E64742"/>
<path d="M141.123 23.8631C141.163 24.3807 140.303 24.8664 139.204 24.9381C138.105 25.0177 137.19 24.6594 137.15 24.1418C137.11 23.6242 137.97 23.1384 139.069 23.0667C140.168 22.9871 141.084 23.3455 141.123 23.8631Z" fill="#E64742"/>
<path d="M147.773 24.8102C147.613 25.1686 146.865 25.1925 146.1 24.858C145.336 24.5235 144.842 23.9582 145.002 23.5998C145.161 23.2415 145.909 23.2176 146.674 23.552C147.438 23.8865 147.932 24.4519 147.773 24.8102Z" fill="#E64742"/>
<path d="M147.12 24.6598C146.873 24.6598 146.571 24.5881 146.276 24.4607C145.735 24.2218 145.472 23.9112 145.416 23.7838C145.456 23.7679 145.535 23.752 145.655 23.752C145.902 23.752 146.204 23.8236 146.499 23.951C147.041 24.1899 147.311 24.5005 147.359 24.6279C147.319 24.6438 147.24 24.6598 147.12 24.6598Z" fill="#C70600"/>
<path d="M151.611 30.2974C151.332 30.5761 150.631 30.3292 150.034 29.7479C149.437 29.1666 149.182 28.4579 149.453 28.1792C149.731 27.9004 150.432 28.1473 151.029 28.7286C151.627 29.3099 151.881 30.0187 151.611 30.2974Z" fill="#E64742"/>
<path d="M152.574 46.2631C152.311 46.1516 152.295 45.6101 152.534 45.0527C152.773 44.4953 153.179 44.1369 153.442 44.2564C153.705 44.3679 153.721 44.9094 153.482 45.4668C153.243 46.0242 152.837 46.3825 152.574 46.2631Z" fill="#E64742"/>
<path d="M152.806 45.7378C152.806 45.6184 152.845 45.4352 152.933 45.2282C153.021 45.0132 153.132 44.8698 153.212 44.7822C153.212 44.9017 153.172 45.0848 153.084 45.2919C152.997 45.5069 152.885 45.6502 152.806 45.7378Z" fill="#C70600"/>
<path d="M143.274 51.3203C143.186 51.0495 143.584 50.6832 144.158 50.4921C144.731 50.309 145.265 50.3806 145.352 50.6514C145.44 50.9221 145.042 51.2884 144.468 51.4795C143.895 51.6627 143.361 51.591 143.274 51.3203Z" fill="#E64742"/>
<path d="M143.815 51.1447C143.911 51.0651 144.07 50.9775 144.285 50.9058C144.452 50.8501 144.62 50.8262 144.763 50.8262C144.779 50.8262 144.787 50.8262 144.803 50.8262C144.707 50.9058 144.548 50.9934 144.333 51.0651C144.166 51.1208 143.999 51.1447 143.855 51.1447C143.839 51.1447 143.831 51.1447 143.815 51.1447Z" fill="#C70600"/>
<path d="M149.93 53.3107C149.715 52.9762 150.105 52.3312 150.814 51.8694C151.523 51.4075 152.271 51.304 152.486 51.6305C152.701 51.9649 152.311 52.6099 151.602 53.0718C150.894 53.5337 150.145 53.6372 149.93 53.3107Z" fill="#E64742"/>
<path d="M138.328 54.8558C138.32 54.4576 138.989 54.1152 139.833 54.0834C140.677 54.0595 141.37 54.3621 141.386 54.7602C141.394 55.1584 140.725 55.5008 139.881 55.5326C139.037 55.5565 138.344 55.2539 138.328 54.8558Z" fill="#E64742"/>
<path d="M128.636 49.4723C128.867 49.1458 129.616 49.2812 130.301 49.7669C130.994 50.2527 131.36 50.9136 131.137 51.2401C130.906 51.5666 130.157 51.4313 129.473 50.9455C128.78 50.4597 128.413 49.7988 128.636 49.4723Z" fill="#E64742"/>
<path d="M126.057 43.6197C126.343 43.5321 126.733 43.9621 126.917 44.5753C127.1 45.1885 127.012 45.7539 126.725 45.8415C126.439 45.9291 126.049 45.499 125.865 44.8859C125.682 44.2727 125.77 43.7073 126.057 43.6197Z" fill="#E64742"/>
<path d="M126.566 45.3322C126.479 45.2287 126.359 45.0375 126.28 44.7668C126.2 44.504 126.192 44.281 126.208 44.1377C126.296 44.2412 126.415 44.4323 126.495 44.7031C126.574 44.9659 126.582 45.1968 126.566 45.3322Z" fill="#C70600"/>
<path d="M126.328 38.0772C126.71 38.0852 127.004 38.7461 126.981 39.5504C126.965 40.3547 126.638 40.9997 126.256 40.9918C125.874 40.9838 125.579 40.3228 125.603 39.5186C125.619 38.7143 125.945 38.0693 126.328 38.0772Z" fill="#E64742"/>
<path d="M135.191 49.2499C135.254 48.9712 135.788 48.8597 136.369 49.003C136.959 49.1463 137.381 49.4808 137.309 49.7595C137.245 50.0382 136.712 50.1497 136.122 50.0064C135.533 49.863 135.111 49.5286 135.183 49.2499H135.191Z" fill="#E64742"/>
<path d="M136.625 49.6316C136.506 49.6316 136.37 49.6157 136.235 49.5838C136.012 49.5281 135.853 49.4485 135.749 49.3848C135.789 49.3848 135.829 49.3848 135.884 49.3848C136.004 49.3848 136.139 49.4007 136.275 49.4325C136.498 49.4883 136.657 49.5679 136.76 49.6316C136.721 49.6316 136.681 49.6316 136.625 49.6316Z" fill="#C70600"/>
<path d="M153.331 36.2136C152.949 36.3251 152.455 35.7676 152.224 34.9634C151.993 34.1591 152.105 33.4265 152.487 33.315C152.869 33.2035 153.363 33.7609 153.594 34.5652C153.825 35.3695 153.713 36.1021 153.331 36.2136Z" fill="#E64742"/>
<path d="M153.204 35.7759C153.076 35.7122 152.806 35.4096 152.638 34.8362C152.471 34.2629 152.543 33.8568 152.606 33.7373C152.726 33.801 153.005 34.0956 153.172 34.677C153.339 35.2503 153.267 35.6485 153.204 35.7759Z" fill="#C70600"/>
<path d="M157.05 41.7957C156.556 41.7798 156.174 40.9198 156.206 39.8686C156.238 38.8175 156.66 37.9814 157.154 37.9893C157.647 38.0052 158.03 38.8653 157.998 39.9164C157.966 40.9676 157.544 41.8037 157.05 41.7957Z" fill="#E64742"/>
<path d="M135.851 26.9929C136.034 27.4787 135.358 28.1874 134.33 28.5856C133.303 28.9837 132.324 28.912 132.132 28.4263C131.949 27.9405 132.626 27.2318 133.653 26.8336C134.681 26.4355 135.66 26.5072 135.851 26.9929Z" fill="#E64742"/>
<path d="M133.081 28.4023C132.706 28.4023 132.555 28.2988 132.539 28.267C132.491 28.1475 132.874 27.5981 133.813 27.2318C134.195 27.0884 134.578 27.0088 134.904 27.0088C135.278 27.0088 135.43 27.1123 135.446 27.1442C135.454 27.176 135.43 27.3114 135.231 27.5184C134.992 27.7733 134.602 28.0122 134.172 28.1794C133.789 28.3227 133.407 28.4023 133.081 28.4023Z" fill="#C70600"/>
<path d="M127.857 28.1473C128.223 28.5295 127.873 29.4772 127.06 30.2576C126.248 31.038 125.293 31.3645 124.926 30.9822C124.56 30.6 124.91 29.6524 125.723 28.872C126.535 28.0916 127.49 27.7651 127.857 28.1473Z" fill="#E64742"/>
<path d="M125.364 30.7114C125.292 30.7114 125.245 30.6954 125.237 30.6795C125.141 30.584 125.268 29.915 126.025 29.1824C126.574 28.6569 127.116 28.418 127.418 28.418C127.49 28.418 127.538 28.4339 127.546 28.4498C127.57 28.4817 127.602 28.633 127.498 28.9037C127.371 29.2382 127.1 29.6204 126.758 29.9549C126.208 30.4804 125.667 30.7193 125.364 30.7193V30.7114Z" fill="#C70600"/>
<g style="mix-blend-mode:screen">
<path d="M147.884 39.8924C147.884 44.3917 144.236 48.0388 139.737 48.0388C135.238 48.0388 131.591 44.3917 131.591 39.8924C131.591 35.3932 135.238 31.7461 139.737 31.7461C144.236 31.7461 147.884 35.3932 147.884 39.8924Z" fill="#732421"/>
</g>
<path d="M145.95 37.5837C145.95 38.2844 145.376 38.8578 144.675 38.8578C143.975 38.8578 143.401 38.2844 143.401 37.5837C143.401 36.8829 143.975 36.3096 144.675 36.3096C145.376 36.3096 145.95 36.8829 145.95 37.5837Z" fill="#C70600"/>
<path d="M141.769 34.2633C141.769 34.765 141.363 35.1711 140.861 35.1711C140.359 35.1711 139.953 34.765 139.953 34.2633C139.953 33.7616 140.359 33.3555 140.861 33.3555C141.363 33.3555 141.769 33.7616 141.769 34.2633Z" fill="#C70600"/>
<path d="M141.562 37.9575C141.729 37.9575 141.865 37.79 141.865 37.5833C141.865 37.3766 141.729 37.209 141.562 37.209C141.395 37.209 141.26 37.3766 141.26 37.5833C141.26 37.79 141.395 37.9575 141.562 37.9575Z" fill="#C70600"/>
<path d="M135.271 40.7607C135.271 41.5012 134.674 42.0985 133.934 42.0985C133.193 42.0985 132.596 41.5012 132.596 40.7607C132.596 40.0201 133.193 39.4229 133.934 39.4229C134.674 39.4229 135.271 40.0201 135.271 40.7607Z" fill="#C70600"/>
<g style="mix-blend-mode:screen">
<path d="M134.969 40.7608C134.969 41.3342 134.507 41.796 133.934 41.796C133.36 41.796 132.898 41.3342 132.898 40.7608C132.898 40.1875 133.36 39.7256 133.934 39.7256C134.507 39.7256 134.969 40.1875 134.969 40.7608Z" fill="#732421"/>
</g>
<path d="M139.356 38.8501C139.356 39.6066 138.742 40.2198 137.986 40.2198C137.229 40.2198 136.616 39.6066 136.616 38.8501C136.616 38.0936 137.229 37.4805 137.986 37.4805C138.742 37.4805 139.356 38.0936 139.356 38.8501Z" fill="#C70600"/>
<g style="mix-blend-mode:screen">
<path d="M137.978 39.9173C138.568 39.9173 139.045 39.4396 139.045 38.8503C139.045 38.2609 138.568 37.7832 137.978 37.7832C137.389 37.7832 136.911 38.2609 136.911 38.8503C136.911 39.4396 137.389 39.9173 137.978 39.9173Z" fill="#732421"/>
</g>
<path d="M134.999 36.4445C134.999 36.9621 134.577 37.3842 134.06 37.3842C133.542 37.3842 133.12 36.9621 133.12 36.4445C133.12 35.9269 133.542 35.5049 134.06 35.5049C134.577 35.5049 134.999 35.9269 134.999 36.4445Z" fill="#C70600"/>
<g style="mix-blend-mode:screen">
<path d="M134.793 36.4444C134.793 36.8425 134.467 37.169 134.068 37.169C133.67 37.169 133.344 36.8425 133.344 36.4444C133.344 36.0462 133.67 35.7197 134.068 35.7197C134.467 35.7197 134.793 36.0462 134.793 36.4444Z" fill="#732421"/>
</g>
<path d="M141.832 45.4514C141.832 45.969 141.41 46.391 140.893 46.391C140.375 46.391 139.953 45.969 139.953 45.4514C139.953 44.9338 140.375 44.5117 140.893 44.5117C141.41 44.5117 141.832 44.9338 141.832 45.4514Z" fill="#C70600"/>
<path d="M141.633 41.5333C141.633 41.7403 141.466 41.8996 141.267 41.8996C141.068 41.8996 140.9 41.7324 140.9 41.5333C140.9 41.3342 141.068 41.167 141.267 41.167C141.466 41.167 141.633 41.3342 141.633 41.5333Z" fill="#C70600"/>
<path d="M137.421 44.4716C137.421 45.2122 136.824 45.8094 136.083 45.8094C135.342 45.8094 134.745 45.2122 134.745 44.4716C134.745 43.731 135.342 43.1338 136.083 43.1338C136.824 43.1338 137.421 43.731 137.421 44.4716Z" fill="#C70600"/>
<path d="M140.503 42.5683C140.503 43.3089 139.906 43.9061 139.165 43.9061C138.424 43.9061 137.827 43.3089 137.827 42.5683C137.827 41.8277 138.424 41.2305 139.165 41.2305C139.906 41.2305 140.503 41.8277 140.503 42.5683Z" fill="#C70600"/>
<g style="mix-blend-mode:screen">
<path d="M139.165 43.7711C139.829 43.7711 140.368 43.2327 140.368 42.5686C140.368 41.9046 139.829 41.3662 139.165 41.3662C138.501 41.3662 137.963 41.9046 137.963 42.5686C137.963 43.2327 138.501 43.7711 139.165 43.7711Z" fill="#732421"/>
</g>
<path d="M137.676 34.5341C137.676 34.9005 137.381 35.2031 137.007 35.2031C136.633 35.2031 136.338 34.9084 136.338 34.5341C136.338 34.1599 136.633 33.8652 137.007 33.8652C137.381 33.8652 137.676 34.1599 137.676 34.5341Z" fill="#C70600"/>
<g style="mix-blend-mode:screen">
<path d="M137.58 34.5341C137.58 34.8447 137.325 35.0995 137.015 35.0995C136.704 35.0995 136.449 34.8447 136.449 34.5341C136.449 34.2236 136.704 33.9688 137.015 33.9688C137.325 33.9688 137.58 34.2236 137.58 34.5341Z" fill="#732421"/>
</g>
<path d="M145.01 34.9004C145.01 35.2667 144.715 35.5693 144.341 35.5693C143.967 35.5693 143.672 35.2746 143.672 34.9004C143.672 34.5261 143.967 34.2314 144.341 34.2314C144.715 34.2314 145.01 34.5261 145.01 34.9004Z" fill="#C70600"/>
<g style="mix-blend-mode:screen">
<path d="M144.914 34.9003C144.914 35.2109 144.659 35.4657 144.349 35.4657C144.038 35.4657 143.783 35.2109 143.783 34.9003C143.783 34.5898 144.038 34.335 144.349 34.335C144.659 34.335 144.914 34.5898 144.914 34.9003Z" fill="#732421"/>
</g>
<path d="M139.659 33.4982C139.659 33.7292 139.467 33.9203 139.237 33.9203C139.006 33.9203 138.814 33.7292 138.814 33.4982C138.814 33.2673 139.006 33.0762 139.237 33.0762C139.467 33.0762 139.659 33.2673 139.659 33.4982Z" fill="#C70600"/>
<path d="M144.309 43.2379C145.03 43.2379 145.615 42.6532 145.615 41.9319C145.615 41.2107 145.03 40.626 144.309 40.626C143.588 40.626 143.003 41.2107 143.003 41.9319C143.003 42.6532 143.588 43.2379 144.309 43.2379Z" fill="#C70600"/>
<g style="mix-blend-mode:screen">
<path d="M145.321 41.9322C145.321 42.4897 144.867 42.9436 144.309 42.9436C143.752 42.9436 143.298 42.4897 143.298 41.9322C143.298 41.3748 143.752 40.9209 144.309 40.9209C144.867 40.9209 145.321 41.3748 145.321 41.9322Z" fill="#732421"/>
</g>
<path d="M144.372 42.4655C144.724 42.4655 145.009 42.1803 145.009 41.8285C145.009 41.4766 144.724 41.1914 144.372 41.1914C144.021 41.1914 143.735 41.4766 143.735 41.8285C143.735 42.1803 144.021 42.4655 144.372 42.4655Z" fill="#C70600"/>
<path d="M130.118 104.379C130.118 113.282 122.903 120.497 114 120.497C105.097 120.497 97.8828 113.282 97.8828 104.379C97.8828 95.4764 105.097 88.2617 114 88.2617C122.903 88.2617 130.118 95.4764 130.118 104.379Z" fill="#E64742"/>
<path d="M116.279 92.7683L111.78 93.0629C113.611 87.6161 112.186 79.0158 111.302 76.0217L114.511 75.8066C113.985 79.1751 113.818 87.64 116.271 92.7603L116.279 92.7683Z" fill="#E64742"/>
<path d="M120.658 94.2098L117.854 93.1188C121.255 88.3966 124.05 79.6371 124.79 76.4678L126.789 77.2482C125.053 80.3538 121.366 88.5002 120.65 94.2098H120.658Z" fill="#E64742"/>
<path d="M109.804 92.53L105.568 94.0669C106.396 89.9419 103.593 84.7181 102.247 83.014L105.273 81.915C105.337 84.2801 106.603 89.8942 109.804 92.53Z" fill="#E64742"/>
<path d="M107.455 97.5467L104.548 100.995C101.116 95.2453 92.675 89.2411 89.4658 87.4255L91.5442 84.9648C94.0924 88.0864 101.299 95.1179 107.463 97.5467H107.455Z" fill="#E64742"/>
<path d="M102.964 107.724L103.8 110.606C99.3728 110.376 92.9704 112.82 90.7965 113.927L90.1992 111.865C92.851 111.61 99.3728 110.224 102.964 107.716V107.724Z" fill="#E64742"/>
<path d="M108.299 114.883L111.166 115.783C109.191 117.216 108.785 120.425 108.888 121.628L106.842 120.991C107.678 119.971 109.064 117.152 108.299 114.883Z" fill="#E64742"/>
<path d="M117.281 114.699L120.116 113.72C119.79 117.224 122.043 121.986 123.071 123.57L121.04 124.271C120.849 122.208 119.646 117.247 117.273 114.699H117.281Z" fill="#E64742"/>
<path d="M122.466 109.093L123.644 106.33C127.546 109.579 135.064 112.175 137.803 112.852L136.959 114.827C134.355 113.17 127.451 109.699 122.466 109.101V109.093Z" fill="#E64742"/>
<path d="M127.474 100.851L126.359 98.0644C130.11 98.136 135.127 95.5161 136.791 94.3535L137.587 96.3443C135.398 96.6867 130.134 98.2714 127.474 100.851Z" fill="#E64742"/>
<path d="M132.212 84.375L134.322 86.5171C129.807 88.922 124.496 94.9342 122.816 97.2276L121.311 95.6987C123.851 93.899 129.736 88.7866 132.212 84.375Z" fill="#E64742"/>
<path d="M144.707 102.436L144.619 106.943C138.718 104.641 129.003 105.31 125.579 105.923L125.643 102.706C129.346 103.527 138.766 104.434 144.707 102.436Z" fill="#E64742"/>
<path d="M135.342 125.553L133.065 127.512C130.142 121.898 123.151 114.659 120.507 112.294L122.131 110.893C124.273 114.134 130.286 121.85 135.342 125.553Z" fill="#E64742"/>
<path d="M115.721 130.649H112.719C114.176 126.047 113.603 118.529 113.149 115.894H115.291C114.797 118.776 114.311 126.078 115.721 130.649Z" fill="#E64742"/>
<path d="M105.266 111.147L107.487 113.17C103.378 115.511 98.8552 121.316 97.4616 123.53L95.877 122.081C98.1385 120.337 103.307 115.392 105.274 111.147H105.266Z" fill="#E64742"/>
<path d="M101.554 101.688L101.482 106.195C98.0184 103.957 92.3008 104.714 90.2861 105.366L90.3419 102.149C92.5158 102.93 98.0582 103.75 101.562 101.695L101.554 101.688Z" fill="#E64742"/>
<path d="M116.445 76.1573C116.509 77.0731 114.996 77.9172 113.061 78.0525C111.126 78.1879 109.509 77.5588 109.445 76.6431C109.382 75.7273 110.895 74.8832 112.83 74.7478C114.765 74.6124 116.381 75.2415 116.445 76.1573Z" fill="#E64742"/>
<path d="M128.159 77.8215C127.88 78.4586 126.566 78.4984 125.221 77.9091C123.875 77.3198 123.007 76.3324 123.285 75.6953C123.564 75.0583 124.878 75.0185 126.224 75.6077C127.57 76.197 128.438 77.1845 128.159 77.8215Z" fill="#E64742"/>
<path d="M127.005 77.5588C126.567 77.5588 126.041 77.4314 125.524 77.2084C124.568 76.7863 124.098 76.2448 124.011 76.0139C124.082 75.99 124.218 75.9502 124.433 75.9502C124.871 75.9502 125.396 76.0776 125.914 76.3006C126.87 76.7226 127.339 77.2641 127.427 77.4951C127.355 77.5189 127.22 77.5588 127.005 77.5588Z" fill="#C70600"/>
<path d="M134.92 87.489C134.434 87.9828 133.192 87.5527 132.141 86.5255C131.09 85.4982 130.636 84.2639 131.121 83.7622C131.607 83.2685 132.849 83.6985 133.901 84.7258C134.952 85.7531 135.406 86.9874 134.92 87.489Z" fill="#E64742"/>
<path d="M136.616 115.607C136.155 115.408 136.123 114.461 136.545 113.481C136.967 112.51 137.676 111.873 138.137 112.072C138.599 112.271 138.631 113.218 138.217 114.198C137.795 115.177 137.086 115.806 136.624 115.607H136.616Z" fill="#E64742"/>
<path d="M137.014 114.683C137.022 114.468 137.085 114.158 137.245 113.783C137.404 113.409 137.587 113.154 137.738 112.995C137.73 113.21 137.667 113.521 137.507 113.895C137.348 114.269 137.165 114.524 137.014 114.683Z" fill="#C70600"/>
<path d="M120.228 124.51C120.076 124.032 120.769 123.379 121.781 123.053C122.792 122.726 123.74 122.854 123.891 123.324C124.042 123.801 123.349 124.454 122.338 124.781C121.327 125.107 120.387 124.98 120.228 124.502V124.51Z" fill="#E64742"/>
<path d="M121.191 124.207C121.359 124.071 121.637 123.912 122.02 123.793C122.314 123.697 122.609 123.649 122.864 123.649C122.888 123.649 122.911 123.649 122.935 123.649C122.768 123.785 122.489 123.944 122.107 124.063C121.813 124.159 121.518 124.207 121.263 124.207C121.239 124.207 121.215 124.207 121.191 124.207Z" fill="#C70600"/>
<path d="M131.95 128.014C131.568 127.425 132.26 126.286 133.503 125.474C134.745 124.661 136.067 124.47 136.449 125.06C136.831 125.649 136.138 126.788 134.896 127.6C133.654 128.412 132.332 128.603 131.95 128.014Z" fill="#E64742"/>
<path d="M111.524 130.729C111.5 130.028 112.686 129.423 114.176 129.375C115.665 129.327 116.883 129.861 116.907 130.562C116.931 131.262 115.744 131.868 114.255 131.915C112.774 131.963 111.548 131.43 111.524 130.729Z" fill="#E64742"/>
<path d="M94.4664 121.252C94.8726 120.679 96.1865 120.91 97.3969 121.77C98.6073 122.63 99.2682 123.785 98.8621 124.358C98.456 124.931 97.1421 124.701 95.9317 123.841C94.7213 122.98 94.0603 121.826 94.4664 121.252Z" fill="#E64742"/>
<path d="M89.9122 110.948C90.4218 110.797 91.0987 111.545 91.4172 112.628C91.7437 113.711 91.5924 114.707 91.0827 114.858C90.5731 115.009 89.8962 114.261 89.5777 113.178C89.2512 112.095 89.4025 111.099 89.9122 110.948Z" fill="#E64742"/>
<path d="M90.8122 113.959C90.653 113.768 90.446 113.433 90.3106 112.963C90.1672 112.494 90.1593 112.103 90.1911 111.856C90.3504 112.048 90.5574 112.382 90.6928 112.852C90.8361 113.322 90.8441 113.712 90.8122 113.959Z" fill="#C70600"/>
<path d="M90.4064 101.186C91.0753 101.202 91.5929 102.364 91.561 103.782C91.5292 105.199 90.9558 106.338 90.2869 106.322C89.618 106.306 89.1004 105.143 89.1323 103.726C89.1641 102.309 89.7295 101.17 90.4064 101.186Z" fill="#E64742"/>
<path d="M105.997 120.855C106.116 120.369 107.048 120.17 108.075 120.425C109.111 120.672 109.851 121.269 109.732 121.755C109.612 122.24 108.681 122.439 107.653 122.185C106.618 121.938 105.878 121.341 105.997 120.855Z" fill="#E64742"/>
<path d="M108.522 121.532C108.307 121.532 108.068 121.5 107.829 121.444C107.439 121.349 107.152 121.214 106.969 121.094C107.032 121.094 107.112 121.078 107.2 121.078C107.415 121.078 107.654 121.11 107.892 121.166C108.283 121.261 108.569 121.397 108.752 121.516C108.689 121.516 108.609 121.532 108.522 121.532Z" fill="#C70600"/>
<path d="M137.938 97.9046C137.269 98.1037 136.393 97.1162 135.987 95.7068C135.573 94.2973 135.78 92.9913 136.441 92.8002C137.11 92.6091 137.986 93.5885 138.392 94.998C138.806 96.4075 138.599 97.7135 137.938 97.9046Z" fill="#E64742"/>
<path d="M137.715 97.1402C137.492 97.0208 137.014 96.4952 136.719 95.4839C136.425 94.4726 136.544 93.7638 136.672 93.5488C136.879 93.6603 137.372 94.1859 137.667 95.2052C137.962 96.2165 137.842 96.9173 137.723 97.1323L137.715 97.1402Z" fill="#C70600"/>
<path d="M144.499 107.731C143.623 107.707 142.962 106.194 143.01 104.347C143.058 102.5 143.807 101.018 144.683 101.042C145.558 101.066 146.219 102.579 146.172 104.427C146.124 106.274 145.375 107.755 144.507 107.731H144.499Z" fill="#E64742"/>
<path d="M107.16 81.6676C107.487 82.5197 106.292 83.7778 104.484 84.4706C102.677 85.1634 100.949 85.036 100.614 84.184C100.288 83.3319 101.482 82.0737 103.29 81.3809C105.098 80.6881 106.826 80.8155 107.16 81.6676Z" fill="#E64742"/>
<path d="M102.287 84.152C101.634 84.152 101.355 83.9689 101.332 83.9052C101.252 83.6981 101.921 82.7266 103.569 82.0896C104.238 81.8347 104.923 81.6914 105.496 81.6914C106.149 81.6914 106.428 81.8746 106.452 81.9383C106.468 81.986 106.42 82.2409 106.078 82.5992C105.656 83.0451 104.979 83.4672 104.214 83.7539C103.545 84.0087 102.86 84.152 102.287 84.152Z" fill="#C70600"/>
<path d="M93.0813 83.6983C93.7343 84.3752 93.1052 86.0395 91.6798 87.4171C90.2544 88.7948 88.5662 89.3681 87.9212 88.6992C87.2682 88.0223 87.8973 86.358 89.3227 84.9804C90.7481 83.6028 92.4363 83.0294 93.0813 83.7063V83.6983Z" fill="#E64742"/>
<path d="M88.6932 88.2139C88.5658 88.2139 88.4862 88.1901 88.4623 88.1662C88.295 87.991 88.518 86.8204 89.8479 85.5303C90.8114 84.5986 91.775 84.1846 92.3005 84.1846C92.428 84.1846 92.5076 84.2085 92.5315 84.2323C92.5793 84.2801 92.6191 84.5509 92.4439 85.0287C92.2209 85.6179 91.7511 86.2948 91.1459 86.8761C90.1823 87.8078 89.2188 88.2219 88.6932 88.2219V88.2139Z" fill="#C70600"/>
<g style="mix-blend-mode:screen">
<path d="M128.351 104.379C128.351 112.302 121.924 118.729 114.001 118.729C106.078 118.729 99.6592 112.302 99.6592 104.379C99.6592 96.4556 106.085 90.0293 114.001 90.0293C121.916 90.0293 128.351 96.4556 128.351 104.379Z" fill="#732421"/>
</g>
<path d="M124.951 100.31C124.951 101.544 123.948 102.548 122.713 102.548C121.479 102.548 120.476 101.544 120.476 100.31C120.476 99.0756 121.479 98.0723 122.713 98.0723C123.948 98.0723 124.951 99.0756 124.951 100.31Z" fill="#C70600"/>
<path d="M117.577 94.4725C117.577 95.3485 116.86 96.0652 115.984 96.0652C115.108 96.0652 114.392 95.3485 114.392 94.4725C114.392 93.5966 115.1 92.8799 115.984 92.8799C116.868 92.8799 117.577 93.5966 117.577 94.4725Z" fill="#C70600"/>
<path d="M117.759 100.309C117.759 100.676 117.521 100.97 117.226 100.97C116.931 100.97 116.692 100.676 116.692 100.309C116.692 99.9431 116.931 99.6484 117.226 99.6484C117.521 99.6484 117.759 99.9431 117.759 100.309Z" fill="#C70600"/>
<path d="M106.141 105.908C106.141 107.214 105.082 108.265 103.784 108.265C102.486 108.265 101.427 107.206 101.427 105.908C101.427 104.61 102.486 103.551 103.784 103.551C105.082 103.551 106.141 104.61 106.141 105.908Z" fill="#C70600"/>
<g style="mix-blend-mode:screen">
<path d="M105.615 105.908C105.615 106.919 104.795 107.739 103.784 107.739C102.772 107.739 101.96 106.919 101.96 105.908C101.96 104.896 102.78 104.076 103.784 104.076C104.787 104.076 105.615 104.896 105.615 105.908Z" fill="#732421"/>
</g>
<path d="M113.332 102.548C113.332 103.886 112.249 104.969 110.911 104.969C109.573 104.969 108.49 103.886 108.49 102.548C108.49 101.21 109.573 100.127 110.911 100.127C112.249 100.127 113.332 101.21 113.332 102.548Z" fill="#C70600"/>
<g style="mix-blend-mode:screen">
<path d="M112.791 102.548C112.791 103.583 111.954 104.419 110.919 104.419C109.884 104.419 109.048 103.583 109.048 102.548C109.048 101.513 109.884 100.677 110.919 100.677C111.954 100.677 112.791 101.513 112.791 102.548Z" fill="#732421"/>
</g>
<path d="M104.022 99.9511C104.933 99.9511 105.671 99.2131 105.671 98.3027C105.671 97.3923 104.933 96.6543 104.022 96.6543C103.112 96.6543 102.374 97.3923 102.374 98.3027C102.374 99.2131 103.112 99.9511 104.022 99.9511Z" fill="#C70600"/>
<g style="mix-blend-mode:screen">
<path d="M105.297 98.3026C105.297 99.0113 104.723 99.5847 104.014 99.5847C103.306 99.5847 102.732 99.0113 102.732 98.3026C102.732 97.5939 103.306 97.0205 104.014 97.0205C104.723 97.0205 105.297 97.5939 105.297 98.3026Z" fill="#732421"/>
</g>
<path d="M117.696 114.166C117.696 115.074 116.956 115.814 116.048 115.814C115.14 115.814 114.399 115.074 114.399 114.166C114.399 113.258 115.14 112.518 116.048 112.518C116.956 112.518 117.696 113.258 117.696 114.166Z" fill="#C70600"/>
<path d="M117.346 107.27C117.346 107.628 117.059 107.915 116.701 107.915C116.342 107.915 116.056 107.628 116.056 107.27C116.056 106.912 116.342 106.625 116.701 106.625C117.059 106.625 117.346 106.912 117.346 107.27Z" fill="#C70600"/>
<path d="M109.932 112.446C109.932 113.752 108.873 114.803 107.575 114.803C106.277 114.803 105.218 113.744 105.218 112.446C105.218 111.148 106.277 110.089 107.575 110.089C108.873 110.089 109.932 111.148 109.932 112.446Z" fill="#C70600"/>
<path d="M112.999 111.443C114.3 111.443 115.356 110.387 115.356 109.086C115.356 107.784 114.3 106.729 112.999 106.729C111.697 106.729 110.642 107.784 110.642 109.086C110.642 110.387 111.697 111.443 112.999 111.443Z" fill="#C70600"/>
<g style="mix-blend-mode:screen">
<path d="M115.118 109.085C115.118 110.256 114.17 111.211 112.991 111.211C111.813 111.211 110.865 110.264 110.865 109.085C110.865 107.907 111.813 106.959 112.991 106.959C114.17 106.959 115.118 107.907 115.118 109.085Z" fill="#732421"/>
</g>
<path d="M110.377 94.9421C110.377 95.5871 109.852 96.1127 109.207 96.1127C108.562 96.1127 108.036 95.5871 108.036 94.9421C108.036 94.2971 108.562 93.7715 109.207 93.7715C109.852 93.7715 110.377 94.2971 110.377 94.9421Z" fill="#C70600"/>
<g style="mix-blend-mode:screen">
<path d="M109.206 95.9371C109.756 95.9371 110.202 95.4914 110.202 94.9417C110.202 94.3919 109.756 93.9463 109.206 93.9463C108.657 93.9463 108.211 94.3919 108.211 94.9417C108.211 95.4914 108.657 95.9371 109.206 95.9371Z" fill="#732421"/>
</g>
<path d="M123.293 95.5954C123.293 96.2404 122.768 96.766 122.123 96.766C121.478 96.766 120.952 96.2404 120.952 95.5954C120.952 94.9504 121.478 94.4248 122.123 94.4248C122.768 94.4248 123.293 94.9504 123.293 95.5954Z" fill="#C70600"/>
<g style="mix-blend-mode:screen">
<path d="M123.118 95.595C123.118 96.1445 122.672 96.5904 122.122 96.5904C121.573 96.5904 121.127 96.1445 121.127 95.595C121.127 95.0455 121.573 94.5996 122.122 94.5996C122.672 94.5996 123.118 95.0455 123.118 95.595Z" fill="#732421"/>
</g>
<path d="M113.866 93.1185C113.866 93.5246 113.531 93.8591 113.125 93.8591C112.719 93.8591 112.385 93.5326 112.385 93.1185C112.385 92.7044 112.711 92.3779 113.125 92.3779C113.539 92.3779 113.866 92.7044 113.866 93.1185Z" fill="#C70600"/>
<path d="M124.362 107.978C124.362 109.244 123.334 110.279 122.06 110.279C120.786 110.279 119.759 109.252 119.759 107.978C119.759 106.704 120.786 105.677 122.06 105.677C123.334 105.677 124.362 106.704 124.362 107.978Z" fill="#C70600"/>
<g style="mix-blend-mode:screen">
<path d="M123.844 107.978C123.844 108.966 123.048 109.762 122.06 109.762C121.073 109.762 120.276 108.966 120.276 107.978C120.276 106.991 121.073 106.194 122.06 106.194C123.048 106.194 123.844 106.991 123.844 107.978Z" fill="#732421"/>
</g>
<path d="M123.302 107.795C123.302 108.416 122.801 108.918 122.179 108.918C121.558 108.918 121.057 108.416 121.057 107.795C121.057 107.174 121.558 106.672 122.179 106.672C122.801 106.672 123.302 107.174 123.302 107.795Z" fill="#C70600"/>
<path d="M24.4551 23.5049C24.4551 27.2396 21.4291 30.2657 17.6944 30.2657C13.9596 30.2657 10.9336 27.2396 10.9336 23.5049C10.9336 19.7702 13.9596 16.7441 17.6944 16.7441C21.4291 16.7441 24.4551 19.7702 24.4551 23.5049Z" fill="#E64742"/>
<path d="M18.6508 18.6307L16.7635 18.7581C17.528 16.4726 16.9308 12.8653 16.5645 11.6071L17.9102 11.5195C17.6873 12.937 17.6156 16.4886 18.6508 18.6386V18.6307Z" fill="#E64742"/>
<path d="M20.4901 19.2366L19.3115 18.7827C20.7369 16.7999 21.9075 13.1209 22.2261 11.791L23.0622 12.1175C22.3296 13.4235 20.7847 16.8397 20.4901 19.2366Z" fill="#E64742"/>
<path d="M15.9272 18.5278L14.1514 19.1728C14.5018 17.4448 13.3232 15.2469 12.7578 14.5302L14.0319 14.0684C14.0558 15.0638 14.5893 17.4209 15.9351 18.5198L15.9272 18.5278Z" fill="#E64742"/>
<path d="M14.9476 20.638L13.7292 22.0873C12.2878 19.6745 8.74422 17.1501 7.39844 16.3936L8.26643 15.3584C9.3335 16.6723 12.3595 19.6187 14.9476 20.638Z" fill="#E64742"/>
<path d="M13.0604 24.9064L13.4108 26.1168C11.5554 26.0212 8.8638 27.0485 7.94803 27.5104L7.70117 26.6424C8.81602 26.5389 11.5474 25.9575 13.0604 24.8984V24.9064Z" fill="#E64742"/>
<path d="M15.2977 27.9162L16.5002 28.2904C15.672 28.8877 15.5048 30.2414 15.5446 30.7431L14.6846 30.4724C15.035 30.0423 15.6163 28.8638 15.2977 27.9082V27.9162Z" fill="#E64742"/>
<path d="M19.0732 27.836L20.2677 27.4219C20.1323 28.8951 21.072 30.8938 21.51 31.5548L20.6579 31.8494C20.5783 30.9814 20.0686 28.903 19.0732 27.828V27.836Z" fill="#E64742"/>
<path d="M21.2461 25.4868L21.7398 24.3242C23.3802 25.6859 26.5337 26.7769 27.6804 27.0636L27.33 27.8917C26.239 27.1989 23.3404 25.7417 21.2461 25.4868Z" fill="#E64742"/>
<path d="M23.3487 22.0234L22.8789 20.8528C24.4556 20.8846 26.5579 19.7857 27.2587 19.292L27.5931 20.1281C26.6774 20.2715 24.4636 20.9404 23.3487 22.0234Z" fill="#E64742"/>
<path d="M25.3396 15.1113L26.2235 16.0112C24.3283 17.0225 22.0986 19.5468 21.3898 20.5104L20.7607 19.8654C21.8278 19.1089 24.2964 16.9668 25.3396 15.1113Z" fill="#E64742"/>
<path d="M30.5788 22.6925L30.539 24.5798C28.0624 23.6163 23.9853 23.895 22.5439 24.1498L22.5678 22.7961C24.1207 23.1385 28.0784 23.5207 30.5709 22.6846L30.5788 22.6925Z" fill="#E64742"/>
<path d="M26.653 32.3909L25.6974 33.2111C24.4711 30.854 21.5327 27.82 20.4258 26.8246L21.1106 26.2354C22.0105 27.5971 24.5348 30.8381 26.653 32.3909Z" fill="#E64742"/>
<path d="M18.4115 34.5333H17.1533C17.7665 32.5982 17.5276 29.4448 17.3365 28.3379H18.2363C18.0293 29.5483 17.8222 32.6141 18.4195 34.5333H18.4115Z" fill="#E64742"/>
<path d="M14.024 26.3477L14.9557 27.1997C13.2356 28.1792 11.3324 30.6159 10.7431 31.5476L10.0742 30.9424C11.0218 30.2098 13.1958 28.1314 14.016 26.3556L14.024 26.3477Z" fill="#E64742"/>
<path d="M12.4714 22.374L12.4395 24.2693C10.9902 23.3296 8.58531 23.6481 7.74121 23.9189L7.7651 22.5651C8.68087 22.8916 11.0061 23.234 12.4714 22.374Z" fill="#E64742"/>
<path d="M18.7223 11.6631C18.7462 12.0454 18.1171 12.4037 17.3048 12.4595C16.4926 12.5152 15.8157 12.2524 15.7839 11.8702C15.76 11.4879 16.3891 11.1296 17.2013 11.0739C18.0136 11.0181 18.6904 11.2809 18.7223 11.6631Z" fill="#E64742"/>
<path d="M23.6355 12.3565C23.5161 12.6272 22.9666 12.6431 22.4012 12.3963C21.8359 12.1494 21.4696 11.7353 21.589 11.4646C21.7084 11.1938 22.2579 11.1779 22.8233 11.4248C23.3887 11.6716 23.755 12.0857 23.6355 12.3565Z" fill="#E64742"/>
<path d="M23.1488 12.2443C22.9657 12.2443 22.7427 12.1885 22.5277 12.093C22.1216 11.9178 21.9304 11.6868 21.8906 11.5913C21.9225 11.5833 21.9782 11.5674 22.0658 11.5674C22.249 11.5674 22.4719 11.6231 22.6869 11.7187C23.0931 11.8939 23.2842 12.1248 23.324 12.2204C23.2922 12.2283 23.2364 12.2443 23.1488 12.2443Z" fill="#C70600"/>
<path d="M26.4704 16.4167C26.2633 16.6238 25.7457 16.4406 25.2998 16.0106C24.8618 15.5806 24.6707 15.063 24.8698 14.848C25.0768 14.6409 25.5944 14.8241 26.0403 15.2541C26.4783 15.6841 26.6694 16.2017 26.4704 16.4167Z" fill="#E64742"/>
<path d="M27.1871 28.2184C26.996 28.1387 26.98 27.7326 27.1552 27.3265C27.3304 26.9203 27.633 26.6496 27.8241 26.7372C28.0152 26.8168 28.0312 27.223 27.856 27.6291C27.6808 28.0352 27.3782 28.3059 27.1871 28.2184Z" fill="#E64742"/>
<path d="M27.3545 27.8287C27.3545 27.7411 27.3863 27.6057 27.4501 27.4544C27.5138 27.2952 27.5934 27.1916 27.6571 27.1279C27.6571 27.2155 27.6252 27.3509 27.5615 27.5022C27.4978 27.6615 27.4182 27.765 27.3545 27.8287Z" fill="#C70600"/>
<path d="M20.3075 31.9536C20.2438 31.7545 20.5384 31.4837 20.9605 31.3404C21.3825 31.205 21.7807 31.2528 21.8444 31.4519C21.9081 31.651 21.6135 31.9217 21.1914 32.0651C20.7694 32.2004 20.3712 32.1527 20.3075 31.9536Z" fill="#E64742"/>
<path d="M20.7129 31.8258C20.7846 31.7701 20.896 31.7064 21.0633 31.6506C21.1907 31.6108 21.3101 31.5869 21.4216 31.5869C21.4296 31.5869 21.4455 31.5869 21.4535 31.5869C21.3818 31.6427 21.2703 31.7064 21.1031 31.7621C20.9757 31.8019 20.8562 31.8258 20.7527 31.8258C20.7447 31.8258 20.7288 31.8258 20.7209 31.8258H20.7129Z" fill="#C70600"/>
<path d="M25.2285 33.4269C25.0692 33.1801 25.3559 32.7023 25.8815 32.3598C26.3991 32.0174 26.9565 31.9378 27.1158 32.1847C27.275 32.4315 26.9884 32.9093 26.4628 33.2517C25.9452 33.5941 25.3878 33.6738 25.2285 33.4269Z" fill="#E64742"/>
<path d="M16.6515 34.5652C16.6435 34.2706 17.1372 34.0158 17.7663 33.9998C18.3874 33.9839 18.9051 34.2069 18.913 34.5015C18.921 34.7961 18.4273 35.051 17.7982 35.0669C17.177 35.0828 16.6594 34.8599 16.6515 34.5652Z" fill="#E64742"/>
<path d="M9.49287 30.5836C9.6601 30.3447 10.2175 30.4403 10.7272 30.7986C11.2368 31.1569 11.5155 31.6427 11.3403 31.8896C11.1731 32.1285 10.6157 32.0329 10.106 31.6746C9.59639 31.3162 9.31768 30.8305 9.49287 30.5836Z" fill="#E64742"/>
<path d="M7.58157 26.2601C7.79658 26.1964 8.07529 26.5149 8.21066 26.9608C8.34604 27.4147 8.28233 27.8368 8.06733 27.9005C7.85232 27.9642 7.57361 27.6457 7.43823 27.1997C7.30286 26.7458 7.36656 26.3238 7.58157 26.2601Z" fill="#E64742"/>
<path d="M7.96437 27.5254C7.90066 27.4457 7.81307 27.3024 7.74936 27.1113C7.69362 26.9122 7.68566 26.7529 7.70158 26.6494C7.76529 26.729 7.85288 26.8724 7.91659 27.0635C7.97233 27.2626 7.9803 27.4218 7.96437 27.5254Z" fill="#C70600"/>
<path d="M7.78825 22.1661C8.06696 22.1661 8.28993 22.6598 8.274 23.2571C8.25807 23.8543 8.01918 24.3321 7.74047 24.3241C7.46175 24.3241 7.23878 23.8304 7.25471 23.2332C7.27064 22.6359 7.50953 22.1582 7.78825 22.1661Z" fill="#E64742"/>
<path d="M14.3345 30.4247C14.3822 30.2176 14.7724 30.138 15.2104 30.2415C15.6404 30.345 15.959 30.5999 15.9032 30.7989C15.8554 31.006 15.4652 31.0856 15.0273 30.9821C14.5972 30.8786 14.2787 30.6238 14.3345 30.4247Z" fill="#E64742"/>
<path d="M15.3931 30.7028C15.3055 30.7028 15.202 30.6869 15.1064 30.663C14.9392 30.6232 14.8197 30.5675 14.748 30.5117C14.7799 30.5117 14.8118 30.5117 14.8436 30.5117C14.9312 30.5117 15.0347 30.5276 15.1303 30.5515C15.2975 30.5914 15.417 30.6471 15.4886 30.7028C15.4568 30.7028 15.4249 30.7028 15.3931 30.7028Z" fill="#C70600"/>
<path d="M27.7446 20.7886C27.4659 20.8683 27.0996 20.4542 26.9244 19.8649C26.7492 19.2756 26.8368 18.7262 27.1155 18.6465C27.3943 18.5669 27.7606 18.981 27.9358 19.5703C28.111 20.1595 28.0234 20.709 27.7446 20.7886Z" fill="#E64742"/>
<path d="M27.6487 20.4621C27.5531 20.4143 27.354 20.1913 27.2266 19.7693C27.0992 19.3472 27.1549 19.0446 27.2027 18.957C27.2903 19.0048 27.4974 19.2278 27.6248 19.6498C27.7522 20.0719 27.6964 20.3665 27.6487 20.4621Z" fill="#C70600"/>
<path d="M30.492 24.9136C30.1257 24.9057 29.847 24.2686 29.863 23.4882C29.8868 22.7158 30.1974 22.0947 30.5637 22.1026C30.93 22.1106 31.2087 22.7476 31.1928 23.528C31.1689 24.3005 30.8584 24.9216 30.492 24.9136Z" fill="#E64742"/>
<path d="M14.8201 13.9721C14.9555 14.3304 14.4538 14.856 13.6973 15.1506C12.9408 15.4453 12.2082 15.3895 12.0728 15.0312C11.9375 14.6728 12.4391 14.1473 13.1957 13.8526C13.9522 13.558 14.6848 13.6137 14.8201 13.9721Z" fill="#E64742"/>
<path d="M12.7736 15.0157C12.4949 15.0157 12.3834 14.944 12.3755 14.9122C12.3436 14.8246 12.6223 14.4184 13.3151 14.1477C13.5939 14.0362 13.8805 13.9805 14.1274 13.9805C14.4061 13.9805 14.5176 14.0521 14.5255 14.084C14.5335 14.1079 14.5096 14.2114 14.3663 14.3627C14.1911 14.5459 13.9044 14.729 13.5859 14.8485C13.3072 14.9599 13.0205 15.0157 12.7736 15.0157Z" fill="#C70600"/>
<path d="M8.91122 14.8244C9.18197 15.1031 8.91918 15.8039 8.32194 16.3852C7.7247 16.9665 7.01597 17.2054 6.74523 16.9187C6.47448 16.6321 6.73726 15.9393 7.3345 15.3579C7.93174 14.7766 8.64047 14.5377 8.91122 14.8244Z" fill="#E64742"/>
<path d="M7.07138 16.7196C7.01563 16.7196 6.98378 16.7116 6.97582 16.6957C6.90415 16.624 6.99971 16.1303 7.55713 15.5888C7.96326 15.1986 8.36142 15.0234 8.58439 15.0234C8.64013 15.0234 8.67198 15.0314 8.67994 15.0473C8.70383 15.0712 8.71976 15.1827 8.64013 15.3818C8.54457 15.6286 8.34549 15.9153 8.09863 16.1542C7.69251 16.5444 7.29435 16.7196 7.07138 16.7196Z" fill="#C70600"/>
<g style="mix-blend-mode:screen">
<path d="M23.7152 23.5046C23.7152 26.8332 21.0156 29.5247 17.695 29.5247C14.3743 29.5247 11.6748 26.8252 11.6748 23.5046C11.6748 20.1839 14.3743 17.4844 17.695 17.4844C21.0156 17.4844 23.7152 20.1839 23.7152 23.5046Z" fill="#732421"/>
</g>
<path d="M21.3498 22.7397C21.8688 22.7397 22.2895 22.319 22.2895 21.8C22.2895 21.2811 21.8688 20.8604 21.3498 20.8604C20.8309 20.8604 20.4102 21.2811 20.4102 21.8C20.4102 22.319 20.8309 22.7397 21.3498 22.7397Z" fill="#C70600"/>
<path d="M19.1923 19.3476C19.1923 19.7139 18.8897 20.0165 18.5234 20.0165C18.1571 20.0165 17.8545 19.7139 17.8545 19.3476C17.8545 18.9813 18.1571 18.6787 18.5234 18.6787C18.8897 18.6787 19.1923 18.9813 19.1923 19.3476Z" fill="#C70600"/>
<path d="M19.2711 21.8002C19.2711 21.9515 19.1676 22.0789 19.0482 22.0789C18.9287 22.0789 18.8252 21.9515 18.8252 21.8002C18.8252 21.6489 18.9287 21.5215 19.0482 21.5215C19.1676 21.5215 19.2711 21.6489 19.2711 21.8002Z" fill="#C70600"/>
<path d="M14.3977 24.1495C14.3977 24.699 13.9518 25.137 13.4103 25.137C12.8688 25.137 12.4229 24.691 12.4229 24.1495C12.4229 23.608 12.8688 23.1621 13.4103 23.1621C13.9518 23.1621 14.3977 23.608 14.3977 24.1495Z" fill="#C70600"/>
<g style="mix-blend-mode:screen">
<path d="M14.1754 24.1492C14.1754 24.5713 13.833 24.9137 13.411 24.9137C12.9889 24.9137 12.6465 24.5713 12.6465 24.1492C12.6465 23.7272 12.9889 23.3848 13.411 23.3848C13.833 23.3848 14.1754 23.7272 14.1754 24.1492Z" fill="#732421"/>
</g>
<path d="M17.4162 22.7398C17.4162 23.2973 16.9623 23.7512 16.4049 23.7512C15.8475 23.7512 15.3936 23.2973 15.3936 22.7398C15.3936 22.1824 15.8475 21.7285 16.4049 21.7285C16.9623 21.7285 17.4162 22.1824 17.4162 22.7398Z" fill="#C70600"/>
<g style="mix-blend-mode:screen">
<path d="M17.1851 22.7395C17.1851 23.1775 16.8347 23.5279 16.3968 23.5279C15.9588 23.5279 15.6084 23.1775 15.6084 22.7395C15.6084 22.3016 15.9588 21.9512 16.3968 21.9512C16.8347 21.9512 17.1851 22.3016 17.1851 22.7395Z" fill="#732421"/>
</g>
<path d="M14.1991 20.9565C14.1991 21.3387 13.8885 21.6493 13.5063 21.6493C13.124 21.6493 12.8135 21.3387 12.8135 20.9565C12.8135 20.5742 13.124 20.2637 13.5063 20.2637C13.8885 20.2637 14.1991 20.5742 14.1991 20.9565Z" fill="#C70600"/>
<g style="mix-blend-mode:screen">
<path d="M14.0397 20.9564C14.0397 21.251 13.8008 21.4899 13.5062 21.4899C13.2116 21.4899 12.9727 21.251 12.9727 20.9564C12.9727 20.6617 13.2116 20.4229 13.5062 20.4229C13.8008 20.4229 14.0397 20.6617 14.0397 20.9564Z" fill="#732421"/>
</g>
<path d="M19.2479 27.6137C19.2479 27.9959 18.9373 28.3065 18.5551 28.3065C18.1729 28.3065 17.8623 27.9959 17.8623 27.6137C17.8623 27.2315 18.1729 26.9209 18.5551 26.9209C18.9373 26.9209 19.2479 27.2315 19.2479 27.6137Z" fill="#C70600"/>
<path d="M19.0962 24.7151C19.0962 24.8664 18.9767 24.9858 18.8254 24.9858C18.6741 24.9858 18.5547 24.8664 18.5547 24.7151C18.5547 24.5638 18.6741 24.4443 18.8254 24.4443C18.9767 24.4443 19.0962 24.5638 19.0962 24.7151Z" fill="#C70600"/>
<path d="M15.9827 26.8888C15.9827 27.4383 15.5368 27.8762 14.9953 27.8762C14.4538 27.8762 14.0078 27.4303 14.0078 26.8888C14.0078 26.3473 14.4538 25.9014 14.9953 25.9014C15.5368 25.9014 15.9827 26.3473 15.9827 26.8888Z" fill="#C70600"/>
<path d="M17.2726 26.4671C17.8179 26.4671 18.26 26.025 18.26 25.4796C18.26 24.9343 17.8179 24.4922 17.2726 24.4922C16.7272 24.4922 16.2852 24.9343 16.2852 25.4796C16.2852 26.025 16.7272 26.4671 17.2726 26.4671Z" fill="#C70600"/>
<g style="mix-blend-mode:screen">
<path d="M18.1646 25.4798C18.1646 25.9735 17.7665 26.3716 17.2727 26.3716C16.779 26.3716 16.3809 25.9735 16.3809 25.4798C16.3809 24.986 16.779 24.5879 17.2727 24.5879C17.7665 24.5879 18.1646 24.986 18.1646 25.4798Z" fill="#732421"/>
</g>
<path d="M15.6793 20.0402C15.9519 20.0402 16.173 19.8191 16.173 19.5465C16.173 19.2738 15.9519 19.0527 15.6793 19.0527C15.4066 19.0527 15.1855 19.2738 15.1855 19.5465C15.1855 19.8191 15.4066 20.0402 15.6793 20.0402Z" fill="#C70600"/>
<g style="mix-blend-mode:screen">
<path d="M16.1009 19.5461C16.1009 19.777 15.9098 19.9681 15.6789 19.9681C15.448 19.9681 15.2568 19.777 15.2568 19.5461C15.2568 19.3151 15.448 19.124 15.6789 19.124C15.9098 19.124 16.1009 19.3151 16.1009 19.5461Z" fill="#732421"/>
</g>
<path d="M21.1031 20.3117C21.3758 20.3117 21.5968 20.0906 21.5968 19.8179C21.5968 19.5453 21.3758 19.3242 21.1031 19.3242C20.8304 19.3242 20.6094 19.5453 20.6094 19.8179C20.6094 20.0906 20.8304 20.3117 21.1031 20.3117Z" fill="#C70600"/>
<g style="mix-blend-mode:screen">
<path d="M21.5169 19.8176C21.5169 20.0485 21.3258 20.2396 21.0949 20.2396C20.864 20.2396 20.6729 20.0485 20.6729 19.8176C20.6729 19.5866 20.864 19.3955 21.0949 19.3955C21.3258 19.3955 21.5169 19.5866 21.5169 19.8176Z" fill="#732421"/>
</g>
<path d="M17.6397 18.7822C17.6397 18.9495 17.5043 19.0928 17.3291 19.0928C17.1539 19.0928 17.0186 18.9574 17.0186 18.7822C17.0186 18.6071 17.1539 18.4717 17.3291 18.4717C17.5043 18.4717 17.6397 18.6071 17.6397 18.7822Z" fill="#C70600"/>
<path d="M22.0433 25.0173C22.0433 25.5508 21.6133 25.9808 21.0798 25.9808C20.5462 25.9808 20.1162 25.5508 20.1162 25.0173C20.1162 24.4837 20.5462 24.0537 21.0798 24.0537C21.6133 24.0537 22.0433 24.4837 22.0433 25.0173Z" fill="#C70600"/>
<g style="mix-blend-mode:screen">
<path d="M21.8281 25.0171C21.8281 25.4312 21.4937 25.7656 21.0796 25.7656C20.6655 25.7656 20.3311 25.4312 20.3311 25.0171C20.3311 24.603 20.6655 24.2686 21.0796 24.2686C21.4937 24.2686 21.8281 24.603 21.8281 25.0171Z" fill="#732421"/>
</g>
<path d="M21.5969 24.9376C21.5969 25.2004 21.3898 25.4074 21.1271 25.4074C20.8643 25.4074 20.6572 25.2004 20.6572 24.9376C20.6572 24.6748 20.8643 24.4678 21.1271 24.4678C21.3898 24.4678 21.5969 24.6748 21.5969 24.9376Z" fill="#C70600"/>
<defs>
<radialGradient id="paint0_radial_493_11459" cx="0" cy="0" r="1" gradientUnits="userSpaceOnUse" gradientTransform="translate(55.6398 43.9707) scale(83.5021 83.5021)">
<stop stop-color="#86C8FB"/>
<stop offset="0.24" stop-color="#5C9AC9"/>
<stop offset="0.72" stop-color="#03375F"/>
<stop offset="0.77" stop-color="#033C68"/>
<stop offset="0.86" stop-color="#044C83"/>
<stop offset="0.97" stop-color="#0565AE"/>
<stop offset="0.99" stop-color="#066BB8"/>
</radialGradient>
<linearGradient id="paint1_linear_493_11459" x1="28.8918" y1="67.6928" x2="120.795" y2="67.6928" gradientUnits="userSpaceOnUse">
<stop stop-color="white"/>
<stop offset="0.49" stop-color="#D2EBFE"/>
</linearGradient>
<linearGradient id="paint2_linear_493_11459" x1="90.167" y1="69.0704" x2="181.147" y2="89.4402" gradientUnits="userSpaceOnUse">
<stop/>
<stop offset="0.09" stop-color="#202020"/>
<stop offset="0.28" stop-color="#636363"/>
<stop offset="0.46" stop-color="#9A9A9A"/>
<stop offset="0.63" stop-color="#C6C6C6"/>
<stop offset="0.78" stop-color="#E5E5E5"/>
<stop offset="0.91" stop-color="#F8F8F8"/>
<stop offset="1" stop-color="white"/>
</linearGradient>
<linearGradient id="paint3_linear_493_11459" x1="70.5622" y1="59.8409" x2="-10.9969" y2="44.5834" gradientUnits="userSpaceOnUse">
<stop/>
<stop offset="0.09" stop-color="#202020"/>
<stop offset="0.28" stop-color="#636363"/>
<stop offset="0.46" stop-color="#9A9A9A"/>
<stop offset="0.63" stop-color="#C6C6C6"/>
<stop offset="0.78" stop-color="#E5E5E5"/>
<stop offset="0.91" stop-color="#F8F8F8"/>
<stop offset="1" stop-color="white"/>
</linearGradient>
</defs>
</svg>
