<svg width="245" height="133" viewBox="0 0 245 133" fill="none" xmlns="http://www.w3.org/2000/svg">
<path d="M219.343 97.5552H160.497C159.446 97.5552 158.589 96.699 158.589 95.6474V9.93613C158.589 8.88455 159.446 8.02832 160.497 8.02832H219.343C220.394 8.02832 221.251 8.88455 221.251 9.93613V95.6474C221.251 96.699 220.394 97.5552 219.343 97.5552ZM160.5 8.10971C159.494 8.10971 158.674 8.93013 158.674 9.93613V95.6474C158.674 96.6534 159.494 97.4738 160.5 97.4738H219.346C220.352 97.4738 221.173 96.6534 221.173 95.6474V9.93613C221.173 8.93013 220.352 8.10971 219.346 8.10971H160.5Z" fill="#E0E0E0"/>
<path d="M151.489 97.5552H92.6432C91.5916 97.5552 90.7354 96.699 90.7354 95.6474V9.93613C90.7354 8.88455 91.5916 8.02832 92.6432 8.02832H151.489C152.54 8.02832 153.397 8.88455 153.397 9.93613V95.6474C153.397 96.699 152.54 97.5552 151.489 97.5552ZM92.6432 8.10971C91.6372 8.10971 90.8167 8.93013 90.8167 9.93613V95.6474C90.8167 96.6534 91.6372 97.4738 92.6432 97.4738H151.489C152.495 97.4738 153.315 96.6534 153.315 95.6474V9.93613C153.315 8.93013 152.495 8.10971 151.489 8.10971H92.6432Z" fill="#E0E0E0"/>
<path d="M83.6731 97.5552H24.8307C23.7791 97.5552 22.9229 96.699 22.9229 95.6474V9.93613C22.9229 8.88455 23.7791 8.02832 24.8307 8.02832H83.6764C84.728 8.02832 85.5842 8.88455 85.5842 9.93613V95.6474C85.5842 96.699 84.728 97.5552 83.6764 97.5552H83.6731ZM24.8307 8.10971C23.8247 8.10971 23.0042 8.93013 23.0042 9.93613V95.6474C23.0042 96.6534 23.8247 97.4738 24.8307 97.4738H83.6764C84.6824 97.4738 85.5028 96.6534 85.5028 95.6474V9.93613C85.5028 8.93013 84.6824 8.10971 83.6764 8.10971H24.8307Z" fill="#E0E0E0"/>
<path d="M244.173 117.438H0V117.477H244.173V117.438Z" fill="#E0E0E0"/>
<path d="M230.942 127.002H212.798V127.139H230.942V127.002Z" fill="#EBEBEB"/>
<path d="M165.93 128.49H161.167V128.627H165.93V128.49Z" fill="#EBEBEB"/>
<path d="M36.8892 122.835H13.2305V122.972H36.8892V122.835Z" fill="#EBEBEB"/>
<path d="M45.2396 122.835H41.769V122.972H45.2396V122.835Z" fill="#EBEBEB"/>
<path d="M107.827 125.149H56.5146V125.286H107.827V125.149Z" fill="#EBEBEB"/>
<path d="M130.988 11.3128C129.881 11.5961 128.956 12.2179 128.282 13.0383V13.0318C127.071 13.9922 126.381 13.8913 126.085 13.7546L123.503 3.69464C123.308 2.93282 122.529 2.47052 121.768 2.66911L93.8082 9.8478C93.0464 10.0431 92.5841 10.8212 92.7827 11.5831L95.3807 21.7048C94.684 22.5122 93.0985 21.9653 93.0985 21.9653C92.1511 21.6235 91.0995 21.5551 90.0512 21.8221C87.2742 22.535 85.6008 25.3642 86.3137 28.1413C87.0267 30.9183 89.8559 32.5917 92.6329 31.8787C93.7399 31.5955 94.6645 30.9737 95.3384 30.1532V30.1597C96.3411 29.3654 96.9857 29.3003 97.3471 29.3751L99.9549 39.5393C100.15 40.3011 100.928 40.7634 101.69 40.5648L129.65 33.3861C130.411 33.1908 130.874 32.4127 130.675 31.6508L128.113 21.6658C128.718 20.6044 130.522 21.2263 130.522 21.2263C131.469 21.5681 132.521 21.6365 133.569 21.3695C136.346 20.6565 138.02 17.8274 137.307 15.0503C136.594 12.2733 133.765 10.5999 130.988 11.3128Z" fill="#EBEBEB"/>
<path d="M95.3406 9.45086C95.1746 9.49318 95.9169 13.8232 101.66 14.6697C107.403 15.5161 121.148 24.3487 119.358 36.0299C119.358 36.0299 123.333 35.0076 123.157 35.0532C122.981 35.0988 122.997 19.8298 107.872 15.4217C92.7459 11.0136 105.27 6.89844 105.27 6.89844L95.3406 9.44761V9.45086Z" fill="#F0F0F0"/>
<path d="M160.073 79.5118C160.891 80.4982 161.965 81.1396 163.117 81.4326H163.114C164.664 82.2042 164.892 82.953 164.898 83.3176L155.932 90.7502C155.252 91.3135 155.157 92.3227 155.721 93.0031L176.374 117.919C176.938 118.599 177.947 118.693 178.627 118.13L187.649 110.652C188.801 110.974 189.003 112.84 189.003 112.84C189.11 113.96 189.544 115.063 190.315 115.998C192.366 118.472 196.035 118.817 198.51 116.763C200.984 114.712 201.329 111.043 199.275 108.568C198.457 107.582 197.383 106.941 196.231 106.648H196.234C194.951 106.009 194.573 105.388 194.479 104.984L203.536 97.4764C204.217 96.9132 204.311 95.9039 203.748 95.2235L186.109 73.9446L183.094 70.3048C182.531 69.6244 181.522 69.53 180.841 70.0932L171.944 77.4705C170.576 77.363 170.345 75.2404 170.345 75.2404C170.238 74.1204 169.805 73.0168 169.033 72.0824C166.982 69.6081 163.313 69.263 160.839 71.3173C158.364 73.3684 158.019 77.0375 160.073 79.5118Z" fill="#EBEBEB"/>
<path d="M185.025 72.6331C185.025 72.6331 181.121 77.2529 180.421 81.1108C179.721 84.9688 180.421 101.1 176.612 104.206C172.803 107.312 168.118 107.96 168.118 107.96L171.4 111.17C171.4 111.17 178.715 107.514 181.421 102.904C184.126 98.2941 179.819 84.6692 182.723 82.1624C185.63 79.6588 190.328 79.0305 190.328 79.0305L185.021 72.6299L185.025 72.6331Z" fill="#F5F5F5"/>
<path d="M47.7687 114.126C48.5175 113.98 49.1588 113.599 49.6407 113.078C50.5392 112.446 51.0015 112.596 51.1708 112.703L52.5089 119.491C52.6098 120.009 53.1112 120.344 53.6288 120.243L72.5669 116.506C73.0846 116.405 73.4199 115.904 73.319 115.386L71.9809 108.608C71.8246 108.5 71.3623 108.325 70.4377 108.979C69.9559 109.497 69.3145 109.877 68.5657 110.024C66.684 110.395 64.8576 109.171 64.4864 107.289C64.1153 105.407 65.3394 103.581 67.2211 103.21C67.9309 103.07 68.6308 103.158 69.2494 103.422C69.2494 103.422 70.4898 103.926 70.9065 103.158L69.5815 96.4447C69.4806 95.927 68.9792 95.5917 68.4615 95.6926L60.2866 97.3042C59.5118 96.8907 60.0229 95.6438 60.0229 95.6438C60.2866 95.0252 60.3745 94.3252 60.2345 93.6155C59.8634 91.7338 58.037 90.5096 56.1552 90.8808C54.2735 91.2519 53.0493 93.0783 53.4205 94.9601C53.567 95.7089 53.9479 96.3535 54.4655 96.8321C55.1264 97.7697 54.9376 98.232 54.8334 98.3818L49.5235 99.4301C49.0058 99.531 48.6705 100.032 48.7714 100.55L50.0997 107.276C49.6765 108.022 48.4524 107.524 48.4524 107.524C47.8338 107.26 47.1338 107.172 46.4241 107.312C44.5423 107.683 43.3182 109.51 43.6894 111.391C44.0605 113.273 45.8869 114.497 47.7687 114.126Z" fill="#F0F0F0"/>
<path d="M61.9239 96.9848C61.9239 96.9848 62.4546 101.276 60.0422 104.404C57.6297 107.533 52.9904 117.209 54.5271 120.064L56.5358 119.667C56.5358 119.667 54.3708 117.183 57.3693 111.183C60.3677 105.182 64.7108 102.415 64.1052 96.5518L61.9239 96.9815V96.9848Z" fill="#F5F5F5"/>
<path d="M210.457 32.3603C210.008 32.0282 209.48 31.8655 208.96 31.8622C208.168 31.6864 208.022 31.3608 207.996 31.2176L211.02 27.1318C211.251 26.8192 211.186 26.383 210.874 26.1518L199.476 17.7164C199.163 17.4853 198.727 17.5504 198.496 17.8629L195.478 21.9423C195.497 22.079 195.631 22.4176 196.442 22.5966C196.962 22.6032 197.487 22.7627 197.939 23.098C199.072 23.9347 199.31 25.5332 198.473 26.6662C197.636 27.7992 196.038 28.0368 194.905 27.2001C194.478 26.8843 194.179 26.4611 194.016 25.9955C194.016 25.9955 193.678 25.0709 193.056 25.2272L190.067 29.2675C189.836 29.58 189.901 30.0162 190.214 30.2474L195.133 33.8872C195.292 34.5123 194.361 34.8509 194.361 34.8509C193.896 35.0137 193.472 35.3132 193.157 35.7397C192.32 36.8726 192.558 38.4679 193.691 39.3079C194.824 40.1446 196.419 39.9069 197.259 38.7739C197.591 38.3247 197.754 37.8005 197.76 37.2796C197.942 36.4559 198.288 36.3322 198.421 36.3127L201.618 38.6763C201.931 38.9074 202.367 38.8423 202.598 38.5298L205.593 34.4797C206.208 34.3397 206.544 35.2513 206.544 35.2513C206.707 35.7169 207.006 36.1401 207.433 36.4559C208.566 37.2926 210.161 37.0549 211.001 35.922C211.837 34.789 211.6 33.1938 210.467 32.3538L210.457 32.3603Z" fill="#F0F0F0"/>
<path d="M192.817 32.1712C192.817 32.1712 201.272 33.1641 202.343 29.8141C203.415 26.464 199.081 25.3604 203.125 20.415L204.267 21.2615C204.267 21.2615 201.94 20.8318 202.343 24.1851C202.747 27.5351 204.958 29.202 203.014 31.4517C201.07 33.7013 195.129 33.8836 195.129 33.8836L192.817 32.1744V32.1712Z" fill="#F5F5F5"/>
<path d="M51.4707 50.9571C50.787 50.1301 49.8852 49.5897 48.9182 49.3423H48.9215C47.5313 48.6521 47.4076 47.9814 47.4271 47.7014L54.9281 41.4929C55.4979 41.0208 55.5793 40.1744 55.1072 39.6014L37.7839 18.6709C37.3119 18.1011 36.4654 18.0197 35.8924 18.4918L28.4012 24.6905C28.3751 24.9543 28.4663 25.6445 29.8955 26.3509H29.8923C30.8592 26.6016 31.761 27.1388 32.4447 27.969C34.1669 30.0493 33.8739 33.1292 31.7968 34.8482C29.7197 36.5671 26.6366 36.2774 24.9176 34.2003C24.2698 33.4157 23.9051 32.4911 23.8172 31.5469C23.8172 31.5469 23.6121 29.6717 22.3815 29.6717L14.9619 35.8118C14.3921 36.2839 14.3108 37.1304 14.7828 37.7033L22.261 46.7378C22.2708 47.9749 20.3825 48.1768 20.3825 48.1768C19.4416 48.2647 18.5138 48.6293 17.7292 49.2772C15.6488 50.9994 15.3591 54.0792 17.0813 56.1563C18.8035 58.2367 21.8834 58.5264 23.9605 56.8042C24.7874 56.1205 25.3311 55.2187 25.5785 54.255C26.2948 52.8095 26.9915 52.7314 27.2487 52.7639L32.1061 58.6306C32.5782 59.2004 33.4246 59.2817 33.9976 58.8097L41.4303 52.6565C42.6381 52.6793 42.8399 54.5318 42.8399 54.5318C42.9278 55.4726 43.2925 56.4005 43.9404 57.1851C45.6626 59.2655 48.7424 59.5552 50.8195 57.833C52.8999 56.1108 53.1896 53.0309 51.4674 50.9538L51.4707 50.9571Z" fill="#E6E6E6"/>
<path d="M32.1776 21.5688C32.1776 21.5688 41.0004 26.4848 40.9938 31.0655C40.9906 35.6462 27.8345 49.3719 33.9975 58.8166L36.8038 56.5474C36.8038 56.5474 32.6301 55.906 34.3133 49.6617C35.9964 43.4174 43.2956 32.4556 42.7942 28.2884C42.2928 24.1244 35.889 18.4922 35.889 18.4922L32.1743 21.5655L32.1776 21.5688Z" fill="#EBEBEB"/>
<path d="M62.7397 16.9902L63.3029 19.4352L65.7479 19.9984L63.3029 20.5649L62.7397 23.0099L62.1764 20.5649L59.7314 19.9984L62.1764 19.4352L62.7397 16.9902Z" fill="#E6E6E6"/>
<path d="M220.179 13.9824L220.746 16.4274L223.187 16.9906L220.746 17.5539L220.179 19.9988L219.616 17.5539L217.171 16.9906L219.616 16.4274L220.179 13.9824Z" fill="#E6E6E6"/>
<path d="M39.1889 118.527L39.7521 120.972L42.1971 121.536L39.7521 122.099L39.1889 124.544L38.6257 122.099L36.1807 121.536L38.6257 120.972L39.1889 118.527Z" fill="#E6E6E6"/>
<path d="M14.0639 59.6689L14.6271 62.1139L17.0721 62.6804L14.6271 63.2436L14.0639 65.6886L13.5007 63.2436L11.0557 62.6804L13.5007 62.1139L14.0639 59.6689Z" fill="#E6E6E6"/>
<path d="M153.204 119.091L153.767 121.536L156.212 122.099L153.767 122.666L153.204 125.11L152.637 122.666L150.192 122.099L152.637 121.536L153.204 119.091Z" fill="#E6E6E6"/>
<path d="M150.707 10.3887L151.38 13.309L154.301 13.9829L151.38 14.6568L150.707 17.5771L150.033 14.6568L147.112 13.9829L150.033 13.309L150.707 10.3887Z" fill="#E6E6E6"/>
<path d="M227.312 44.709L227.648 46.161L229.1 46.4963L227.648 46.8317L227.312 48.2837L226.977 46.8317L225.528 46.4963L226.977 46.161L227.312 44.709Z" fill="#E6E6E6"/>
<path d="M135.056 98.6455L135.392 100.098L136.844 100.43L135.392 100.765L135.056 102.217L134.721 100.765L133.269 100.43L134.721 100.098L135.056 98.6455Z" fill="#E6E6E6"/>
<path d="M91.559 109.051L91.8943 110.503L93.3463 110.835L91.8943 111.17L91.559 112.622L91.2269 111.17L89.7749 110.835L91.2269 110.503L91.559 109.051Z" fill="#E6E6E6"/>
<path d="M13.7128 100.43L14.0481 101.882L15.5002 102.217L14.0481 102.552L13.7128 104.004L13.3775 102.552L11.9287 102.217L13.3775 101.882L13.7128 100.43Z" fill="#E6E6E6"/>
<path d="M205.001 120.314L205.337 121.766L206.789 122.099L205.337 122.434L205.001 123.886L204.666 122.434L203.214 122.099L204.666 121.766L205.001 120.314Z" fill="#E6E6E6"/>
<path d="M86.5224 36.8662L86.8577 38.3182L88.3097 38.6536L86.8577 38.9889L86.5224 40.4409L86.1903 38.9889L84.7383 38.6536L86.1903 38.3182L86.5224 36.8662Z" fill="#E6E6E6"/>
<path d="M23.3816 16.0625L23.7169 17.5145L25.1689 17.8498L23.7169 18.1852L23.3816 19.6339L23.0463 18.1852L21.5942 17.8498L23.0463 17.5145L23.3816 16.0625Z" fill="#E6E6E6"/>
<path d="M177.38 39.1816L177.716 40.6337L179.168 40.9657L177.716 41.3011L177.38 42.7531L177.045 41.3011L175.596 40.9657L177.045 40.6337L177.38 39.1816Z" fill="#E6E6E6"/>
<path d="M130.02 114.592C129.6 114.279 129.111 114.133 128.623 114.126C127.887 113.96 127.747 113.658 127.724 113.524L130.544 109.712C130.759 109.422 130.697 109.012 130.407 108.797L119.774 100.928C119.484 100.713 119.074 100.775 118.859 101.065L116.043 104.871C116.063 104.998 116.186 105.313 116.942 105.483C117.427 105.489 117.915 105.639 118.338 105.948C119.393 106.73 119.618 108.221 118.837 109.275C118.055 110.33 116.564 110.555 115.509 109.774C115.112 109.477 114.832 109.083 114.679 108.647C114.679 108.647 114.363 107.784 113.781 107.931L110.99 111.701C110.776 111.991 110.837 112.401 111.127 112.616L115.718 116.011C115.867 116.594 114.998 116.913 114.998 116.913C114.562 117.066 114.168 117.346 113.872 117.743C113.09 118.798 113.312 120.289 114.37 121.071C115.425 121.852 116.916 121.631 117.697 120.572C118.006 120.153 118.159 119.664 118.163 119.179C118.332 118.411 118.654 118.294 118.778 118.277L121.76 120.485C122.05 120.699 122.46 120.638 122.675 120.348L125.468 116.571C126.041 116.441 126.354 117.291 126.354 117.291C126.507 117.724 126.787 118.121 127.184 118.414C128.239 119.195 129.73 118.974 130.511 117.916C131.293 116.861 131.071 115.37 130.013 114.589L130.02 114.592Z" fill="#E6E6E6"/>
<path d="M112.11 113.338C112.11 113.338 112.286 111.414 116.717 112.231C121.148 113.048 125.318 112.147 125.621 110.294C125.921 108.445 123.73 103.854 123.73 103.854L127.415 106.583C127.415 106.583 129.02 109.995 126.611 111.671C124.202 113.348 117.837 112.469 115.857 113.338C113.878 114.207 114.519 115.119 114.519 115.119L111.902 113.433" fill="#EBEBEB"/>
<path d="M238.912 130.92C238.912 132.023 186.428 132.915 121.683 132.915C56.9383 132.915 4.4541 132.02 4.4541 130.92C4.4541 129.819 56.9383 128.924 121.683 128.924C186.428 128.924 238.912 129.819 238.912 130.92Z" fill="#F5F5F5"/>
<path d="M215.778 49.307H175.402C174.302 49.307 173.406 50.199 173.406 51.3027V65.7512C173.683 66.0312 174.559 66.5814 176.724 65.6145V65.621C177.922 64.7485 179.393 64.2276 180.992 64.2276C185.003 64.2276 188.252 67.48 188.252 71.4877C188.252 75.4954 185 78.7477 180.992 78.7477C179.478 78.7477 178.075 78.2854 176.913 77.4943C176.913 77.4943 174.572 75.9544 173.406 77.3641V91.6759C173.406 92.7763 174.298 93.6716 175.402 93.6716H215.778C216.879 93.6716 217.774 92.7796 217.774 91.6759V51.2994C217.774 50.199 216.882 49.3037 215.778 49.3037V49.307Z" fill="#407BFF"/>
<path opacity="0.4" d="M215.778 49.307H175.402C174.302 49.307 173.406 50.199 173.406 51.3027V65.7512C173.683 66.0312 174.559 66.5814 176.724 65.6145V65.621C177.922 64.7485 179.393 64.2276 180.992 64.2276C185.003 64.2276 188.252 67.48 188.252 71.4877C188.252 75.4954 185 78.7477 180.992 78.7477C179.478 78.7477 178.075 78.2854 176.913 77.4943C176.913 77.4943 174.572 75.9544 173.406 77.3641V91.6759C173.406 92.7763 174.298 93.6716 175.402 93.6716H215.778C216.879 93.6716 217.774 92.7796 217.774 91.6759V51.2994C217.774 50.199 216.882 49.3037 215.778 49.3037V49.307Z" fill="white"/>
<path opacity="0.4" d="M202.333 93.6745L201.737 86.6391C201.493 84.1908 201.063 82.5988 202.717 82.7193C204.371 82.8397 205.781 84.6792 206.393 87.007L207.135 93.6745" fill="black"/>
<path opacity="0.4" d="M209.544 93.675C209.463 91.6695 209.824 80.9422 209.824 80.9422C209.824 78.3084 208.415 70.7162 208.721 67.0406C209.027 63.365 210.007 61.4669 211.416 61.5906C212.826 61.7144 213.438 64.6509 213.438 64.6509C213.438 64.6509 214.294 64.4068 215.03 65.9369C215.766 67.4671 217.358 71.2632 217.358 71.2632C217.358 71.2632 219.891 82.6709 219.598 93.6717H209.548L209.544 93.675Z" fill="black"/>
<path d="M216.277 130.919C216.277 130.919 215.213 114.745 213.158 113.527C212.8 113.316 206.517 107.823 204.742 101.944C202.968 96.064 203.701 89.0839 203.456 86.6324C203.212 84.1809 202.783 82.5921 204.436 82.7126C206.09 82.8331 207.5 84.6725 208.112 87.0003C208.724 89.3281 208.294 94.472 209.092 95.4519C209.89 96.4319 210.44 95.8198 210.44 95.6342C210.44 95.4487 211.544 83.5688 211.544 80.9383C211.544 78.3077 210.134 70.7123 210.44 67.0367C210.746 63.3611 211.726 61.463 213.136 61.5867C214.545 61.7105 215.157 64.647 215.157 64.647C215.157 64.647 216.014 64.4029 216.749 65.933C217.485 67.4632 219.077 71.2592 219.077 71.2592C219.077 71.2592 219.259 68.3194 220.545 68.1989C221.831 68.0752 222.505 69.5468 222.994 71.3211C223.482 73.0954 224.28 75.853 224.709 77.9952C225.139 80.1374 225.566 83.6307 225.566 83.6307C225.566 83.6307 225.995 77.8129 226.422 76.8329C226.852 75.853 228.382 74.9967 228.811 75.853C229.241 76.7092 228.382 86.4468 228.382 88.283C228.382 90.1192 226.422 104.327 227.158 107.511C227.893 110.695 234.932 130.912 234.932 130.912H216.28L216.277 130.919Z" fill="#B97964"/>
<path d="M217.615 87.0397C217.837 83.9046 218.055 80.7433 217.641 77.6147C217.277 74.8702 216.505 72.194 216.004 69.4756C215.694 67.8054 215.486 66.1222 215.414 64.4261C215.401 64.1135 214.913 64.1103 214.926 64.4261C215.046 67.2552 215.58 70.0192 216.192 72.78C216.495 74.1474 216.808 75.518 217.042 76.8984C217.309 78.4644 217.394 80.0564 217.387 81.6419C217.381 83.4423 217.254 85.2426 217.127 87.0397C217.104 87.3523 217.592 87.3523 217.615 87.0397Z" fill="#A24E3F"/>
<path d="M218.941 71.149C219.862 73.1154 220.777 75.1469 221.366 77.2403C221.646 78.2365 221.659 79.2523 221.682 80.281C221.711 81.681 221.705 83.0841 221.695 84.4841C221.689 85.337 221.679 86.1868 221.663 87.0398C221.656 87.3555 222.144 87.3555 222.151 87.0398C222.193 84.9041 222.213 82.7651 222.18 80.6261C222.164 79.5811 222.187 78.4969 221.939 77.4779C221.614 76.1399 221.073 74.8441 220.546 73.5744C220.172 72.6759 219.781 71.7838 219.367 70.9015C219.234 70.6183 218.814 70.8657 218.944 71.149H218.941Z" fill="#A24E3F"/>
<path d="M225.358 82.8037C225.179 84.832 225.335 86.8831 225.338 88.9146C225.338 89.2304 225.827 89.2304 225.827 88.9146C225.827 86.8831 225.667 84.832 225.846 82.8037C225.875 82.4912 225.384 82.4912 225.358 82.8037Z" fill="#A24E3F"/>
<path opacity="0.2" d="M181.528 49.2871C181.528 49.2871 181.675 58.901 190.247 62.2999C198.816 65.6988 197.487 71.6078 195.27 76.4847C193.053 81.3617 179.165 93.6648 179.757 93.6648H188.333C188.333 93.6648 187.44 89.7092 193.939 81.7686C200.44 73.8281 202.553 67.3266 198.985 63.6315C195.417 59.9363 185.074 58.4583 188.619 49.2969H180.639" fill="white"/>
<path opacity="0.4" d="M173.405 80.5798C173.405 80.5798 179.845 83.588 182.029 78.6785C182.029 78.6785 179.773 79.4241 178.071 77.7214C176.368 76.0187 173.308 76.201 173.409 76.201C173.509 76.201 173.409 80.5831 173.409 80.5831L173.405 80.5798Z" fill="black"/>
<path d="M176.635 64.195C175.04 64.195 173.568 64.7159 172.367 65.5884V65.5819C170.264 66.5195 169.375 66.0279 169.072 65.7415V51.2701C169.072 50.1697 168.18 49.2744 167.076 49.2744H126.7C125.599 49.2744 124.704 50.1665 124.704 51.2701V65.7187C124.981 65.9986 125.857 66.5488 128.022 65.5819V65.5884C129.22 64.7159 130.691 64.195 132.29 64.195C136.301 64.195 139.55 67.4474 139.55 71.4551C139.55 75.4628 136.297 78.7152 132.29 78.7152C130.776 78.7152 129.373 78.2529 128.21 77.4618C128.21 77.4618 125.87 75.9218 124.704 77.3315V91.6433C124.704 92.7437 125.596 93.639 126.7 93.639H144.131C145.556 94.8013 143.997 97.1551 143.997 97.1551C143.206 98.3174 142.744 99.7206 142.744 101.234C142.744 105.245 145.996 108.495 150.004 108.495C154.011 108.495 157.264 105.242 157.264 101.234C157.264 99.6392 156.749 98.1644 155.877 96.9663C154.9 94.7753 155.473 93.906 155.753 93.639H167.073C168.173 93.639 169.069 92.747 169.069 91.6433V77.3022C170.241 75.9414 172.552 77.465 172.552 77.465C173.715 78.2561 175.118 78.7184 176.632 78.7184C180.643 78.7184 183.892 75.4661 183.892 71.4584C183.892 67.4507 180.639 64.1983 176.632 64.1983L176.635 64.195Z" fill="#407BFF"/>
<path opacity="0.2" d="M132.491 93.5541C132.491 93.5541 133.92 85.988 146.139 78.9232C158.354 71.8585 145.055 49.2773 145.055 49.2773H148.74C148.74 49.2773 157.475 58.3215 157.058 71.419C156.603 85.747 143.225 78.5814 139.159 85.747C135.092 92.9127 138.211 93.5606 138.211 93.5606L132.494 93.5508L132.491 93.5541Z" fill="white"/>
<path opacity="0.2" d="M158.833 93.5642C158.833 93.5642 158.833 89.4621 163.587 85.4576C168.34 81.4532 169.072 81.1113 169.072 81.1113V84.3312C169.072 84.3312 163.961 86.252 163.085 88.8565C162.209 91.461 163.951 93.5609 163.951 93.5609H158.83L158.833 93.5642Z" fill="white"/>
<path opacity="0.4" d="M129.647 59.0113C129.647 59.0113 131.418 60.4959 132.876 58.8648C132.876 58.8648 136.718 61.6842 139.043 60.5154C139.043 60.5154 143.662 61.873 145.485 60.1313L146.169 58.8648C146.169 58.8648 149.106 59.262 149.763 56.5468C150.131 55.0297 148.331 52.4252 147.243 51.3508C147.243 51.3508 147.976 49.6611 147.875 49.6611C147.647 49.6611 129.074 49.8825 129.074 49.8825L129.643 59.0146L129.647 59.0113Z" fill="black"/>
<path d="M156.704 34.272C156.226 34.5129 138.339 31.967 134.979 33.6469C131.619 35.3268 125.909 44.5436 125.792 47.4216C125.671 50.2995 128.504 58.3573 128.624 58.8358C128.745 59.3144 131.108 59.3763 131.743 56.1955C131.864 55.5965 131.984 53.9166 131.984 53.9166C131.984 53.9166 136.184 61.9547 140.139 58.354C140.139 58.354 142.054 60.5678 143.555 59.2819C145.055 57.9959 144.697 57.3936 144.697 57.3936C144.697 57.3936 147.575 58.2335 147.696 55.8341C147.816 53.4347 145.775 51.6344 145.775 51.6344L147.933 48.395C147.933 48.395 159.27 50.394 162.327 48.2745C164.576 46.7151 164.606 45.8751 164.606 45.8751L188.355 0.917969H168.45L156.704 34.272Z" fill="#FD8173"/>
<path d="M144.635 57.091C143.75 56.5278 142.854 55.9548 142.112 55.2093C141.37 54.4637 140.234 52.709 140.113 51.6671C139.898 49.8082 142.119 46.9693 142.978 45.6084" stroke="#FD504E" stroke-width="0.325564" stroke-linecap="round" stroke-linejoin="round"/>
<path d="M140.677 58.8652C139.463 57.882 138.815 57.1527 137.701 55.8309C137.011 55.0138 136.236 53.9394 135.614 52.9074C134.856 51.6474 134.407 50.1987 134.986 48.8476C135.566 47.4965 138.567 42.2061 138.567 42.2061" stroke="#FD504E" stroke-width="0.325564" stroke-linecap="round" stroke-linejoin="round"/>
<path d="M133.735 56.5474C132.41 54.9781 131.059 52.162 130.365 50.0035C129.88 48.4864 132.853 42.8802 134.197 40.6338" stroke="#FD504E" stroke-width="0.325564" stroke-linecap="round" stroke-linejoin="round"/>
<path d="M147.878 48.6263C148.672 48.0891 149.327 47.35 149.766 46.4971" stroke="#FD504E" stroke-width="0.325564" stroke-linecap="round" stroke-linejoin="round"/>
<path d="M73.7338 65.5914V51.2796C73.7338 50.1791 72.8417 49.2838 71.7381 49.2838H56.2217C55.2482 48.0662 56.6026 46.0152 56.6026 46.0152C57.3937 44.8529 57.856 43.4497 57.856 41.9359C57.856 37.9249 54.6036 34.6758 50.5959 34.6758C46.5882 34.6758 43.3358 37.9282 43.3358 41.9359C43.3358 43.5311 43.8502 45.0059 44.7227 46.204C45.4976 47.9393 45.2957 48.8476 45.0418 49.2838H31.3648C30.2644 49.2838 29.3691 50.1759 29.3691 51.2796V91.656C29.3691 92.7564 30.2612 93.6517 31.3648 93.6517H71.7413C72.8417 93.6517 73.737 92.7597 73.737 91.656V77.2075C73.4603 76.9275 72.5845 76.3773 70.4195 77.3442V77.3377C69.2215 78.2102 67.7499 78.7344 66.1514 78.7344C62.1404 78.7344 58.8913 75.482 58.8913 71.4743C58.8913 67.4666 62.1437 64.2142 66.1514 64.2142C67.6653 64.2142 69.0684 64.6765 70.2307 65.4676C70.2307 65.4676 72.5715 67.0076 73.737 65.5979L73.7338 65.5914Z" fill="#407BFF"/>
<path opacity="0.2" d="M60.0612 49.2842C60.0612 49.2842 62.2588 53.2072 57.2516 56.6354C52.2444 60.0604 46.4461 67.9683 45.3034 73.3271C44.1607 78.6859 29.4028 79.9165 29.4028 79.9165V88.9477C29.4028 88.9477 44.1607 87.0692 46.9735 80.2877C49.7832 73.5062 50.1738 66.8288 54.8554 62.1733C59.5371 57.5177 69.1119 49.2874 69.1119 49.2874H60.0645" fill="white"/>
<path opacity="0.4" d="M29.8192 63.2308C29.8192 63.2308 31.2973 63.1526 31.8475 65.5911C32.3977 68.0296 29.3667 76.2859 29.3667 76.2859V68.7849L29.8192 63.2308Z" fill="black"/>
<path opacity="0.4" d="M37.9462 79.3301C37.9462 79.3301 40.7004 79.5091 41.586 82.3546L41.8855 83.6666C41.8855 83.6666 44.6756 85.5939 43.8551 89.2012C43.6663 90.0281 42.6668 91.5127 42.6668 91.5127L43.6956 93.6516L38.4801 93.5703L36.5234 83.1717L37.9462 79.3333V79.3301Z" fill="black"/>
<path d="M22.5822 102.045C22.5822 102.045 19.9224 83.1492 19.6131 78.4774C19.3005 73.8055 27.814 62.948 28.8526 62.6354C29.8911 62.3229 31.3432 63.4656 30.9297 65.9562C30.513 68.4468 26.7755 75.1534 26.7755 75.1534L27.3973 79.5127C27.3973 79.5127 31.6524 77.3314 35.3899 78.2658C39.1274 79.2001 40.0618 81.2772 39.7492 83.6636C39.7492 83.6636 41.8263 85.5324 41.9305 87.4011C42.0347 89.2698 40.9961 90.7219 40.9961 90.7219C40.9961 90.7219 41.8263 93.6291 41.1003 94.7719C40.3743 95.9146 35.9108 97.6792 35.9108 97.6792C35.9108 97.6792 37.5354 105.75 33.4626 108.494C33.4626 108.494 27.2899 130.939 27.4266 130.916H7.66162C7.66162 130.916 19.4861 107.804 20.3163 106.144C21.1465 104.483 22.5822 102.038 22.5822 102.038V102.045Z" fill="#FDBBB5"/>
<path d="M36.0469 98.6946C35.7441 96.904 35.4381 95.1134 35.1353 93.3196C35.106 93.1405 35.0735 92.9582 34.9758 92.8084C34.8781 92.6587 34.6926 92.5447 34.52 92.587" stroke="#D7504D" stroke-width="0.325564" stroke-linecap="round" stroke-linejoin="round"/>
<path d="M28.8818 83.3447C32.7137 80.9844 37.3628 81.0072 39.7524 83.667" stroke="#D7504D" stroke-width="0.325564" stroke-linecap="round" stroke-linejoin="round"/>
<path d="M40.9992 90.7255C40.3806 89.2018 39.8402 87.8768 38.2774 87.3689C36.7147 86.861 34.0158 87.3494 32.6191 88.2186" stroke="#D7504D" stroke-width="0.325564" stroke-linecap="round" stroke-linejoin="round"/>
<path d="M35.4526 94.1138C36.1038 93.5082 36.9535 93.1208 37.839 93.0264" stroke="#D7504D" stroke-width="0.325564" stroke-linecap="round" stroke-linejoin="round"/>
<path d="M26.4233 80.2845C28.1521 78.7673 31.8603 78.1813 33.2179 78.0381" stroke="#D7504D" stroke-width="0.325564" stroke-linecap="round" stroke-linejoin="round"/>
<path opacity="0.2" d="M64.405 78.5225C64.405 78.5225 52.5871 87.5894 53.1861 93.6482H59.6778C59.6778 93.6482 54.3842 93.3552 57.0798 88.9438C59.7755 84.5291 66.8663 78.5062 66.8728 78.6918C66.8728 78.7406 64.8022 78.6071 64.405 78.5225Z" fill="white"/>
<path d="M96.0449 95.3096C96.0449 95.3096 98.2262 92.3795 101.781 90.9014C105.337 89.4201 106.248 89.6708 106.766 90.654C107.287 91.6372 104.861 94.7138 103.819 95.5668C102.778 96.4197 96.3184 100.769 96.3184 100.769L96.0449 95.3128V95.3096Z" fill="#E97F3F"/>
<path d="M129.995 64.2048C128.4 64.2048 126.928 64.7257 125.727 65.6015V65.5949C123.757 66.474 122.855 66.0963 122.5 65.8098V51.2799C122.5 50.1795 121.608 49.2842 120.505 49.2842H80.1282C79.0278 49.2842 78.1325 50.1762 78.1325 51.2799V65.8977C76.9051 66.7474 74.9517 65.4582 74.9517 65.4582C73.7894 64.6671 72.3863 64.2048 70.8724 64.2048C66.8614 64.2048 63.6123 67.4572 63.6123 71.4649C63.6123 75.4726 66.8647 78.725 70.8724 78.725C72.4677 78.725 73.9392 78.204 75.1405 77.3283V77.3348C76.7716 76.6055 77.6702 76.7423 78.1325 76.9734V91.6498C78.1325 92.7503 79.0245 93.6456 80.1282 93.6456H120.505C121.605 93.6456 122.5 92.7535 122.5 91.6498V77.2306C123.692 76.0032 125.916 77.4715 125.916 77.4715C127.078 78.2626 128.481 78.725 129.995 78.725C134.006 78.725 137.255 75.4726 137.255 71.4649C137.255 67.4572 134.003 64.2048 129.995 64.2048Z" fill="#263238"/>
<path opacity="0.4" d="M83.5619 92.4087C83.5619 92.4087 89.6597 91.3181 92.5865 91.0837H93.7488C93.7488 91.0837 94.3087 81.8963 99.0034 81.5512L97.3072 94.7137L102.607 93.6491C102.607 93.6491 104.382 83.0976 108.324 81.753L109.871 85.2007C109.871 85.2007 112.355 81.1898 116.131 81.1963L111.808 93.9812L101.559 98.3438L92.5832 97.7643L83.5586 92.4087H83.5619Z" fill="black"/>
<path opacity="0.2" d="M116.302 49.2744C116.504 49.5218 116.543 49.8637 116.556 50.186C116.66 52.8198 115.605 55.4797 113.723 57.3256C110.36 60.6236 105.135 60.9784 100.997 63.2281C97.3768 65.1978 94.6322 68.7106 93.6002 72.6988C93.2649 73.9945 93.0988 75.3423 92.5617 76.5665C91.4808 79.0375 89.0065 80.6751 86.4118 81.4076C83.817 82.1401 80.8251 81.8048 78.1294 81.7527V86.086C80.8251 86.138 84.8197 84.979 87.4145 84.2465C90.0092 83.514 92.4835 81.8764 93.5644 79.4054C94.1016 78.1813 94.2676 76.8302 94.6029 75.5377C95.635 71.5495 97.253 67.6427 100.873 65.6731C105.011 63.4234 111.363 63.4625 114.726 60.1645C116.608 58.3186 120.772 51.9278 120.668 49.2939L116.302 49.2777V49.2744Z" fill="white"/>
<path d="M80.2709 132.118C80.31 131.271 86.1929 106.47 86.1929 106.47C89.5137 103.302 95.8719 103.612 98.8411 103.188C105.906 102.182 105.772 100.102 105.772 100.102C105.772 100.102 109.725 100.418 111.457 97.9077C112.352 96.6087 118.147 81.2225 118.147 81.2225C118.147 81.2225 117.06 79.9268 114.364 82.515C111.668 85.1065 109.822 91.4029 109.822 91.4029C109.822 91.4029 111.779 82.7331 111.815 81.1997C111.851 79.6663 108.826 80.1188 107.866 82.6224C106.905 85.126 103.702 93.2456 103.702 93.2456C102.852 94.5999 101.81 95.5148 100.44 95.6743C100.44 95.6743 101.573 83.1238 101.569 81.7532C101.566 80.3825 98.942 80.5909 97.8221 83.0554C96.7021 85.5199 95.1752 92.3308 95.1752 92.3308C95.1752 92.3308 82.7419 91.7122 80.603 93.0828C76.4878 95.7231 62.749 132.118 62.749 132.118H80.2807H80.2709Z" fill="#FDAD6A"/>
<path d="M108.723 98.7835C108.886 98.9202 110.66 100.486 112.903 99.5583C115.15 98.6304 117.852 97.0905 120.844 95.7362C123.836 94.3818 124.099 94.2679 122.253 93.2521C120.411 92.2363 117.464 93.467 115.469 94.1311C113.473 94.792 111.588 95.3553 111.588 95.3553L108.72 98.7867L108.723 98.7835Z" fill="#FDAD6A"/>
<path d="M105.818 100.155C107.836 98.4258 110.024 92.3931 111.808 81.2002" stroke="#E97F3F" stroke-width="0.244173" stroke-linecap="round" stroke-linejoin="round"/>
<path d="M96.4453 99.2455C97.8355 99.112 98.7633 98.8418 99.4535 98.2623C100.691 97.2303 101.56 81.7529 101.56 81.7529" stroke="#E97F3F" stroke-width="0.244173" stroke-linecap="round" stroke-linejoin="round"/>
<path d="M109.128 99.6235C110.421 99.171 111.622 97.4878 112.27 96.28C112.918 95.0722 117.701 82.7658 118.143 81.2227" stroke="#E97F3F" stroke-width="0.244173" stroke-linecap="round" stroke-linejoin="round"/>
</svg>
