<svg width="13" height="13" viewBox="0 0 13 13" fill="none" xmlns="http://www.w3.org/2000/svg">
<path d="M6.87445 8.04485L2.39206 12.5846C2.22435 12.7544 2.01091 12.8393 1.75172 12.8393C1.49254 12.8393 1.27909 12.7544 1.11138 12.5846C0.943672 12.4147 0.859818 12.1985 0.859818 11.936C0.859818 11.6735 0.943672 11.4574 1.11138 11.2875L5.59377 6.74779L1.11138 2.20809C0.943672 2.03824 0.859818 1.82206 0.859818 1.55956C0.859818 1.29706 0.943672 1.08088 1.11138 0.911029C1.27909 0.741176 1.49254 0.65625 1.75172 0.65625C2.01091 0.65625 2.22435 0.741176 2.39206 0.911029L6.87445 5.45074L11.3568 0.911029C11.5245 0.741176 11.738 0.65625 11.9972 0.65625C12.2564 0.65625 12.4698 0.741176 12.6375 0.911029C12.8052 1.08088 12.8891 1.29706 12.8891 1.55956C12.8891 1.82206 12.8052 2.03824 12.6375 2.20809L8.15513 6.74779L12.6375 11.2875C12.8052 11.4574 12.8891 11.6735 12.8891 11.936C12.8891 12.1985 12.8052 12.4147 12.6375 12.5846C12.4698 12.7544 12.2564 12.8393 11.9972 12.8393C11.738 12.8393 11.5245 12.7544 11.3568 12.5846L6.87445 8.04485Z" fill="#636363"/>
</svg>
